<svg height="1000" width="1000" xmlns="http://www.w3.org/2000/svg"><path d="M0 750.993q0 -90.815 64.449 -155.263l455.049 -451.143q82.026 -82.026 199.206 -82.026t199.206 82.026 82.026 199.206 -82.026 199.206l-343.728 341.775q-21.483 23.436 -43.943 .977t.977 -43.943l337.869 -339.822q64.449 -62.496 64.449 -153.311t-64.449 -155.263 -155.263 -64.449 -153.311 64.449l-453.096 447.237q-44.919 44.919 -44.919 109.368t45.895 110.345 110.345 45.895 109.368 -44.919l457.002 -451.143q27.342 -27.342 27.342 -66.402t-27.342 -66.402 -66.402 -27.342 -66.402 27.342l-341.775 343.728q-23.436 21.483 -44.919 -.977t0 -43.943l341.775 -343.728q46.872 -44.919 111.321 -44.919t110.345 45.895 45.895 110.345 -44.919 111.321l-457.002 449.19q-64.449 64.449 -155.263 64.449t-154.287 -63.473 -63.473 -154.287z"/></svg>