<svg height="1000px" width="1000px" xmlns="http://www.w3.org/2000/svg">
  <g>
    <path d="M0 750.9765625c0 -60.547 21.484 -112.305 64.453 -155.273c0 0 455.078 -451.172 455.078 -451.172c54.688 -54.688 121.094 -82.032 199.219 -82.032c78.125 0 144.531 27.344 199.219 82.032c54.687 54.687 82.031 121.093 82.031 199.218c0 78.125 -27.344 144.532 -82.031 199.219c0 0 -343.75 341.797 -343.75 341.797c-14.323 15.625 -28.972 15.951 -43.946 0.977c-14.974 -14.974 -14.648 -29.623 0.977 -43.946c0 0 337.891 -339.843 337.891 -339.843c42.968 -41.667 64.453 -92.774 64.453 -153.321c0 -60.547 -21.485 -112.304 -64.453 -155.273c-42.969 -42.969 -94.727 -64.453 -155.274 -64.453c-60.547 0 -111.653 21.484 -153.32 64.453c0 0 -453.125 447.265 -453.125 447.265c-29.948 29.948 -44.922 66.407 -44.922 109.375c0 42.969 15.299 79.753 45.898 110.352c30.599 30.599 67.383 45.898 110.352 45.898c42.969 0 79.427 -14.974 109.375 -44.921c0 0 457.031 -451.172 457.031 -451.172c18.229 -18.229 27.344 -40.365 27.344 -66.407c0 -26.041 -9.115 -48.177 -27.344 -66.406c-18.229 -18.229 -40.364 -27.344 -66.406 -27.344c-26.042 0 -48.177 9.115 -66.406 27.344c0 0 -341.797 343.75 -341.797 343.75c-15.625 14.323 -30.599 13.998 -44.922 -0.976c-14.323 -14.974 -14.323 -29.623 0 -43.946c0 0 341.797 -343.75 341.797 -343.75c31.25 -29.948 68.359 -44.922 111.328 -44.922c42.969 0 79.753 15.3 110.352 45.899c30.599 30.599 45.898 67.383 45.898 110.351c0 42.969 -14.974 80.079 -44.922 111.329c0 0 -457.031 449.218 -457.031 449.218c-42.969 42.969 -94.727 64.453 -155.274 64.453c-60.546 0 -111.979 -21.158 -154.296 -63.476c-42.318 -42.318 -63.477 -93.75 -63.477 -154.297c0 0 0 0 0 0" />
  </g>
</svg>