<svg height="1000px" width="1000px" xmlns="http://www.w3.org/2000/svg">
  <g>
    <path d="M1.953125 496.09375c6.51 -32.552 24.74 -55.339 54.688 -68.359c-0.001 0 423.828 -169.922 423.828 -169.922c-7.813 -13.021 -11.719 -26.693 -11.719 -41.016c0 -22.135 7.812 -41.016 23.437 -56.641c0 0 42.969 -42.968 42.969 -42.968c15.625 -15.625 34.18 -23.438 55.664 -23.438c21.485 0 40.039 7.813 55.664 23.438c0 0 240.235 240.234 240.235 240.234c15.625 15.625 23.437 34.18 23.437 55.664c0 21.485 -7.812 40.039 -23.437 55.664c0 0 -42.969 44.922 -42.969 44.922c-15.625 14.323 -33.854 21.484 -54.688 21.484c-15.625 0 -29.948 -3.906 -42.968 -11.718c0 0 -167.969 417.968 -167.969 417.968c-11.719 31.25 -34.505 50.131 -68.36 56.641c-5.208 1.302 -11.067 1.953 -17.578 1.953c0 0 -3.906 0 -3.906 0c-24.739 0 -45.573 -9.114 -62.5 -27.344c0 0 -398.437 -392.578 -398.437 -392.578c-23.438 -23.437 -31.901 -51.432 -25.391 -83.984c0 0 0 0 0 0m61.523 10.742c-1.953 11.068 0.977 20.508 8.789 28.32c0 0 396.485 392.579 396.485 392.579c6.51 6.51 13.672 9.765 21.484 9.765c0 0 7.813 0 7.813 0c10.416 -2.604 18.229 -9.114 23.437 -19.531c0 0 146.485 -371.094 146.485 -371.094c-39.063 -40.364 -80.078 -68.685 -123.047 -84.961c-42.969 -16.276 -91.797 -27.343 -146.485 -33.203c-54.687 -5.859 -95.703 -13.346 -123.046 -22.461c0 0 -193.36 78.125 -193.36 78.125c-10.417 3.906 -16.601 11.393 -18.555 22.461c0 0 0 0 0 0m186.524 24.414c0 -16.927 6.185 -31.575 18.555 -43.945c12.369 -12.37 27.018 -18.555 43.945 -18.555c16.927 0 31.575 6.185 43.945 18.555c12.37 12.37 18.555 27.018 18.555 43.945c0 16.927 -6.185 31.576 -18.555 43.946c-12.37 12.369 -27.018 18.554 -43.945 18.554c-16.927 0 -31.576 -6.185 -43.945 -18.554c-12.37 -12.37 -18.555 -27.019 -18.555 -43.946c0 0 0 0 0 0m31.25 0c0 9.115 2.93 16.602 8.789 22.461c5.859 5.86 13.346 8.789 22.461 8.789c9.114 0 16.601 -2.929 22.461 -8.789c5.859 -5.859 8.789 -13.346 8.789 -22.461c0 -9.114 -2.93 -16.601 -8.789 -22.461c-5.86 -5.859 -13.347 -8.789 -22.461 -8.789c-9.115 0 -16.602 2.93 -22.461 8.789c-5.859 5.86 -8.789 13.347 -8.789 22.461c0 0 0 0 0 0m42.969 -144.531c19.531 3.906 46.224 8.464 80.078 13.672c39.062 3.906 69.987 8.138 92.773 12.695c22.787 4.557 51.758 15.625 86.914 33.203c35.157 17.578 67.709 40.69 97.657 69.336c0 0 41.015 -101.562 41.015 -101.562c0 0 54.688 54.687 54.688 54.687c7.812 7.813 14.974 7.813 21.484 0c0 0 44.922 -44.922 44.922 -44.922c7.812 -6.51 7.812 -13.672 0 -21.484c0 0 -242.188 -242.188 -242.188 -242.188c-6.51 -6.51 -13.672 -6.51 -21.484 0c0 0 -44.922 44.922 -44.922 44.922c-6.51 7.813 -6.51 14.974 0 21.485c0 0 54.688 54.687 54.688 54.687c0 0 -265.625 105.469 -265.625 105.469m50.781 332.031c0 -9.114 2.93 -16.601 8.789 -22.461c5.859 -5.859 13.346 -8.789 22.461 -8.789c9.114 0 16.601 2.93 22.461 8.789c5.859 5.86 8.789 13.347 8.789 22.461c0 9.115 -2.93 16.602 -8.789 22.461c-5.86 5.86 -13.347 8.789 -22.461 8.789c-9.115 0 -16.602 -2.929 -22.461 -8.789c-5.859 -5.859 -8.789 -13.346 -8.789 -22.461c0 0 0 0 0 0m62.5 -140.625c0 -22.135 7.487 -40.69 22.461 -55.664c14.974 -14.974 33.528 -22.461 55.664 -22.461c22.135 0 40.69 7.487 55.664 22.461c14.974 14.974 22.461 33.529 22.461 55.664c0 22.136 -7.487 40.69 -22.461 55.664c-14.974 14.974 -33.529 22.461 -55.664 22.461c-22.136 0 -40.69 -7.487 -55.664 -22.461c-14.974 -14.974 -22.461 -33.528 -22.461 -55.664c0 0 0 0 0 0m31.25 0c0 13.021 4.557 24.089 13.672 33.203c9.114 9.115 20.182 13.672 33.203 13.672c13.021 0 24.088 -4.557 33.203 -13.672c9.115 -9.114 13.672 -20.182 13.672 -33.203c0 -13.021 -4.557 -24.088 -13.672 -33.203c-9.115 -9.114 -20.182 -13.672 -33.203 -13.672c-13.021 0 -24.089 4.558 -33.203 13.672c-9.115 9.115 -13.672 20.182 -13.672 33.203c0 0 0 0 0 0m375 -500c0 -22.135 7.487 -40.69 22.461 -55.664c14.974 -14.974 33.528 -22.461 55.664 -22.461c22.135 0 40.69 7.487 55.664 22.461c14.974 14.974 22.461 33.529 22.461 55.664c0 22.136 -7.487 40.69 -22.461 55.664c-14.974 14.974 -33.529 22.461 -55.664 22.461c-22.136 0 -40.69 -7.487 -55.664 -22.461c-14.974 -14.974 -22.461 -33.528 -22.461 -55.664c0 0 0 0 0 0m31.25 171.875c0 -9.114 2.93 -16.601 8.789 -22.461c5.859 -5.859 13.346 -8.789 22.461 -8.789c9.114 0 16.601 2.93 22.461 8.789c5.859 5.86 8.789 13.347 8.789 22.461c0 9.115 -2.93 16.602 -8.789 22.461c-5.86 5.86 -13.347 8.789 -22.461 8.789c-9.115 0 -16.602 -2.929 -22.461 -8.789c-5.859 -5.859 -8.789 -13.346 -8.789 -22.461c0 0 0 0 0 0m0 -171.875c0 13.021 4.557 24.089 13.672 33.203c9.114 9.115 20.182 13.672 33.203 13.672c13.021 0 24.088 -4.557 33.203 -13.672c9.115 -9.114 13.672 -20.182 13.672 -33.203c0 -13.021 -4.557 -24.088 -13.672 -33.203c-9.115 -9.114 -20.182 -13.672 -33.203 -13.672c-13.021 0 -24.089 4.558 -33.203 13.672c-9.115 9.115 -13.672 20.182 -13.672 33.203c0 0 0 0 0 0" />
  </g>
</svg>