<svg height="1000" width="1000" xmlns="http://www.w3.org/2000/svg"><path d="M2.124 496.126q9.765 -48.825 54.684 -68.355l423.801 -169.911q-11.718 -19.53 -11.718 -41.013 0 -33.201 23.436 -56.637l42.966 -42.966q23.436 -23.436 55.66 -23.436t55.66 23.436l240.219 240.219q23.436 23.436 23.436 55.66t-23.436 55.66l-42.966 44.919q-23.436 21.483 -54.684 21.483 -23.436 0 -42.966 -11.718l-167.958 417.942q-17.577 46.872 -68.355 56.637 -7.812 1.953 -17.577 1.953l-3.906 0q-37.107 0 -62.496 -27.342l-398.412 -392.553q-35.154 -35.154 -25.389 -83.979zm61.52 10.742q-2.929 16.601 8.789 28.319l396.459 392.553q9.765 9.765 21.483 9.765l7.812 0q15.624 -3.906 23.436 -19.53l146.475 -371.07q-58.59 -60.543 -123.039 -84.956t-146.475 -33.201 -123.039 -22.46l-193.347 78.12q-15.624 5.859 -18.553 22.46zm186.512 24.413q0 -25.389 18.553 -43.943t43.943 -18.553 43.943 18.553 18.553 43.943 -18.553 43.943 -43.943 18.553 -43.943 -18.553 -18.553 -43.943zm31.248 0q0 13.671 8.789 22.46t22.46 8.789 22.46 -8.789 8.789 -22.46 -8.789 -22.46 -22.46 -8.789 -22.46 8.789 -8.789 22.46zm42.966 -144.522q29.295 5.859 80.073 13.671 58.59 5.859 92.767 12.694t86.909 33.201 97.65 69.332l41.013 -101.556 54.684 54.684q11.718 11.718 21.483 0l44.919 -44.919q11.718 -9.765 0 -21.483l-242.172 -242.172q-9.765 -9.765 -21.483 0l-44.919 44.919q-9.765 11.718 0 21.483l54.684 54.684zm50.778 332.01q0 -13.671 8.789 -22.46t22.46 -8.789 22.46 8.789 8.789 22.46 -8.789 22.46 -22.46 8.789 -22.46 -8.789 -8.789 -22.46zm62.496 -140.616q0 -33.201 22.46 -55.66t55.66 -22.46 55.66 22.46 22.46 55.66 -22.46 55.66 -55.66 22.46 -55.66 -22.46 -22.46 -55.66zm31.248 0q0 19.53 13.671 33.201t33.201 13.671 33.201 -13.671 13.671 -33.201 -13.671 -33.201 -33.201 -13.671 -33.201 13.671 -13.671 33.201zm374.976 -499.968q0 -33.201 22.46 -55.66t55.66 -22.46 55.66 22.46 22.46 55.66 -22.46 55.66 -55.66 22.46 -55.66 -22.46 -22.46 -55.66zm31.248 171.864q0 -13.671 8.789 -22.46t22.46 -8.789 22.46 8.789 8.789 22.46 -8.789 22.46 -22.46 8.789 -22.46 -8.789 -8.789 -22.46zm0 -171.864q0 19.53 13.671 33.201t33.201 13.671 33.201 -13.671 13.671 -33.201 -13.671 -33.201 -33.201 -13.671 -33.201 13.671 -13.671 33.201z"/></svg>