<svg height="1000px" width="1000px" xmlns="http://www.w3.org/2000/svg">
  <g>
    <path d="M0 916.015625c0 0 0 -738.281 0 -738.281c0 -23.438 8.138 -43.295 24.414 -59.571c16.276 -16.276 36.133 -24.414 59.57 -24.414c0 0 134.766 0 134.766 0c0 0 0 -62.5 0 -62.5c0 -9.114 2.93 -16.601 8.789 -22.461c5.859 -5.859 13.346 -8.789 22.461 -8.789c9.115 0 16.602 2.93 22.461 8.789c5.859 5.86 8.789 13.347 8.789 22.461c0 0 0 62.5 0 62.5c0 0 187.5 0 187.5 0c0 0 0 -62.5 0 -62.5c0 -9.114 2.93 -16.601 8.789 -22.461c5.859 -5.859 13.346 -8.789 22.461 -8.789c9.115 0 16.602 2.93 22.461 8.789c5.859 5.86 8.789 13.347 8.789 22.461c0 0 0 62.5 0 62.5c0 0 187.5 0 187.5 0c0 0 0 -62.5 0 -62.5c0 -9.114 2.93 -16.601 8.789 -22.461c5.859 -5.859 13.346 -8.789 22.461 -8.789c9.115 0 16.602 2.93 22.461 8.789c5.859 5.86 8.789 13.347 8.789 22.461c0 0 0 62.5 0 62.5c0 0 134.766 0 134.766 0c23.437 0 43.294 8.138 59.57 24.414c16.276 16.276 24.414 36.133 24.414 59.571c0 0 0 738.281 0 738.281c0 23.438 -8.138 43.294 -24.414 59.57c-16.276 16.276 -36.133 24.414 -59.57 24.414c0 0 -832.032 0 -832.032 0c-23.437 0 -43.294 -8.138 -59.57 -24.414c-16.276 -16.276 -24.414 -36.133 -24.414 -59.57c0 0 0 0 0 0m62.5 0c0 6.51 1.953 11.719 5.859 15.625c3.907 3.906 9.115 5.859 15.625 5.859c0 0 832.032 0 832.032 0c6.51 0 11.718 -1.953 15.625 -5.859c3.906 -3.906 5.859 -9.115 5.859 -15.625c0 0 0 -738.281 0 -738.281c0 -6.511 -1.953 -11.719 -5.859 -15.625c-3.907 -3.906 -9.115 -5.86 -15.625 -5.86c0 0 -134.766 0 -134.766 0c0 0 0 62.5 0 62.5c0 9.115 -2.93 16.602 -8.789 22.461c-5.859 5.86 -13.346 8.789 -22.461 8.789c-9.115 0 -16.602 -2.929 -22.461 -8.789c-5.859 -5.859 -8.789 -13.346 -8.789 -22.461c0 0 0 -62.5 0 -62.5c0 0 -187.5 0 -187.5 0c0 0 0 62.5 0 62.5c0 9.115 -2.93 16.602 -8.789 22.461c-5.859 5.86 -13.346 8.789 -22.461 8.789c-9.115 0 -16.602 -2.929 -22.461 -8.789c-5.859 -5.859 -8.789 -13.346 -8.789 -22.461c0 0 0 -62.5 0 -62.5c0 0 -187.5 0 -187.5 0c0 0 0 62.5 0 62.5c0 9.115 -2.93 16.602 -8.789 22.461c-5.859 5.86 -13.346 8.789 -22.461 8.789c-9.115 0 -16.602 -2.929 -22.461 -8.789c-5.859 -5.859 -8.789 -13.346 -8.789 -22.461c0 0 0 -62.5 0 -62.5c0 0 -134.766 0 -134.766 0c-6.51 0 -11.718 1.954 -15.625 5.86c-3.906 3.906 -5.859 9.114 -5.859 15.625c0 0 0 738.281 0 738.281c0 0 0 0 0 0m156.25 -134.766c0 0 0 -93.75 0 -93.75c0 0 125 0 125 0c0 0 0 93.75 0 93.75c0 0 -125 0 -125 0c0 0 0 0 0 0m0 -156.25c0 0 0 -93.75 0 -93.75c0 0 125 0 125 0c0 0 0 93.75 0 93.75c0 0 -125 0 -125 0c0 0 0 0 0 0m0 -156.25c0 0 0 -93.75 0 -93.75c0 0 125 0 125 0c0 0 0 93.75 0 93.75c0 0 -125 0 -125 0c0 0 0 0 0 0m218.75 312.5c0 0 0 -93.75 0 -93.75c0 0 125 0 125 0c0 0 0 93.75 0 93.75c0 0 -125 0 -125 0c0 0 0 0 0 0m0 -156.25c0 0 0 -93.75 0 -93.75c0 0 125 0 125 0c0 0 0 93.75 0 93.75c0 0 -125 0 -125 0c0 0 0 0 0 0m0 -156.25c0 0 0 -93.75 0 -93.75c0 0 125 0 125 0c0 0 0 93.75 0 93.75c0 0 -125 0 -125 0c0 0 0 0 0 0m218.75 312.5c0 0 0 -93.75 0 -93.75c0 0 125 0 125 0c0 0 0 93.75 0 93.75c0 0 -125 0 -125 0c0 0 0 0 0 0m0 -156.25c0 0 0 -93.75 0 -93.75c0 0 125 0 125 0c0 0 0 93.75 0 93.75c0 0 -125 0 -125 0c0 0 0 0 0 0m0 -156.25c0 0 0 -93.75 0 -93.75c0 0 125 0 125 0c0 0 0 93.75 0 93.75c0 0 -125 0 -125 0c0 0 0 0 0 0" />
  </g>
</svg>