<svg height="1000" width="1000" xmlns="http://www.w3.org/2000/svg"><path d="M0 916.021v-738.234q0-35.154 24.413-59.567t59.567-24.413h134.757v-62.496q0-13.671 8.789-22.46t22.46-8.789 22.46 8.789 8.789 22.46v62.496h187.488v-62.496q0-13.671 8.789-22.46t22.46-8.789 22.46 8.789 8.789 22.46v62.496h187.488v-62.496q0-13.671 8.789-22.46t22.46-8.789 22.46 8.789 8.789 22.46v62.496h134.757q35.154 0 59.567 24.413t24.413 59.567v738.234q0 35.154-24.413 59.567t-59.567 24.413h-831.978q-35.154 0-59.567-24.413t-24.413-59.567zm62.496 0q0 9.765 5.859 15.624t15.624 5.859h831.978q9.765 0 15.624-5.859t5.859-15.624v-738.234q0-9.765-5.859-15.624t-15.624-5.859h-134.757v62.496q0 13.671-8.789 22.46t-22.46 8.789-22.46-8.789-8.789-22.46v-62.496h-187.488v62.496q0 13.671-8.789 22.46t-22.46 8.789-22.46-8.789-8.789-22.46v-62.496h-187.488v62.496q0 13.671-8.789 22.46t-22.46 8.789-22.46-8.789-8.789-22.46v-62.496h-134.757q-9.765 0-15.624 5.859t-5.859 15.624v738.234zm156.24-134.757v-93.744h124.992v93.744h-124.992zm0-156.24v-93.744h124.992v93.744h-124.992zm0-156.24v-93.744h124.992v93.744h-124.992zm218.736 312.48v-93.744h124.992v93.744h-124.992zm0-156.24v-93.744h124.992v93.744h-124.992zm0-156.24v-93.744h124.992v93.744h-124.992zm218.736 312.48v-93.744h124.992v93.744h-124.992zm0-156.24v-93.744h124.992v93.744h-124.992zm0-156.24v-93.744h124.992v93.744h-124.992z"/></svg>