<svg height="1000px" width="1000px" xmlns="http://www.w3.org/2000/svg">
  <g>
    <path d="M0 843.75c0 0 0 -468.75 0 -468.75c0 -23.438 7.487 -43.62 22.461 -60.547c14.974 -16.927 33.529 -27.344 55.664 -31.25c0 0 134.766 -23.437 134.766 -23.437c0 0 42.968 -107.422 42.968 -107.422c7.813 -18.229 19.532 -32.552 35.157 -42.969c15.625 -10.417 33.203 -15.625 52.734 -15.625c0 0 312.5 0 312.5 0c19.531 0 37.109 5.208 52.734 15.625c15.625 10.417 27.344 24.74 35.157 42.969c0 0 42.968 107.422 42.968 107.422c0 0 134.766 23.437 134.766 23.437c22.135 3.906 40.69 14.323 55.664 31.25c14.974 16.927 22.461 37.11 22.461 60.547c0 0 0 468.75 0 468.75c0 26.042 -9.115 48.177 -27.344 66.406c-18.229 18.229 -40.364 27.344 -66.406 27.344c0 0 -812.5 0 -812.5 0c-26.042 0 -48.177 -9.115 -66.406 -27.344c-18.229 -18.229 -27.344 -40.364 -27.344 -66.406c0 0 0 0 0 0m62.5 0c0 9.115 2.93 16.602 8.789 22.461c5.859 5.859 13.346 8.789 22.461 8.789c0 0 812.5 0 812.5 0c9.115 0 16.602 -2.93 22.461 -8.789c5.859 -5.859 8.789 -13.346 8.789 -22.461c0 0 0 -468.75 0 -468.75c0 -18.229 -8.464 -28.646 -25.391 -31.25c0 0 -169.922 -27.344 -169.922 -27.344c0 0 -56.64 -140.625 -56.64 -140.625c-5.208 -13.021 -14.974 -19.531 -29.297 -19.531c0 0 -312.5 0 -312.5 0c-14.323 0 -24.089 6.51 -29.297 19.531c0 0 -56.64 140.625 -56.64 140.625c0 0 -169.922 27.344 -169.922 27.344c-16.927 2.604 -25.391 13.021 -25.391 31.25c0 0 0 468.75 0 468.75c0 0 0 0 0 0m187.5 -281.25c0 -69.01 24.414 -127.93 73.242 -176.758c48.828 -48.828 107.748 -73.242 176.758 -73.242c69.01 0 127.93 24.414 176.758 73.242c48.828 48.828 73.242 107.748 73.242 176.758c0 69.01 -24.414 127.93 -73.242 176.758c-48.828 48.828 -107.748 73.242 -176.758 73.242c-69.01 0 -127.93 -24.414 -176.758 -73.242c-48.828 -48.828 -73.242 -107.748 -73.242 -176.758c0 0 0 0 0 0m62.5 14.648c3.906 51.433 25.716 94.076 65.43 127.93c39.713 33.854 85.286 48.828 136.718 44.922c51.433 -3.906 94.076 -25.716 127.93 -65.43c33.854 -39.713 48.828 -85.286 44.922 -136.718c-3.906 -51.433 -25.716 -94.076 -65.43 -127.93c-39.713 -33.854 -85.286 -48.828 -136.718 -44.922c-51.433 3.906 -94.076 25.716 -127.93 65.43c-33.854 39.713 -48.828 85.286 -44.922 136.718c0 0 0 0 0 0m62.5 -14.648c0 -33.854 12.044 -63.151 36.133 -87.891c24.088 -24.739 53.711 -37.109 88.867 -37.109c10.417 0 15.625 5.208 15.625 15.625c0 10.417 -5.208 15.625 -15.625 15.625c-26.042 0 -48.177 9.115 -66.406 27.344c-18.229 18.229 -27.344 40.364 -27.344 66.406c0 10.417 -5.208 15.625 -15.625 15.625c-10.417 0 -15.625 -5.208 -15.625 -15.625c0 0 0 0 0 0" />
  </g>
</svg>