<svg height="1000" width="1000" xmlns="http://www.w3.org/2000/svg"><path d="M0 843.76l0 -468.72q0 -35.154 22.46 -60.543t55.66 -31.248l134.757 -23.436 42.966 -107.415q11.718 -27.342 35.154 -42.966t52.731 -15.624l312.48 0q29.295 0 52.731 15.624t35.154 42.966l42.966 107.415 134.757 23.436q33.201 5.859 55.66 31.248t22.46 60.543l0 468.72q0 39.06 -27.342 66.402t-66.402 27.342l-812.448 0q-39.06 0 -66.402 -27.342t-27.342 -66.402zm62.496 0q0 13.671 8.789 22.46t22.46 8.789l812.448 0q13.671 0 22.46 -8.789t8.789 -22.46l0 -468.72q0 -27.342 -25.389 -31.248l-169.911 -27.342 -56.637 -140.616q-7.812 -19.53 -29.295 -19.53l-312.48 0q-21.483 0 -29.295 19.53l-56.637 140.616 -169.911 27.342q-25.389 3.906 -25.389 31.248l0 468.72zm187.488 -281.232q0 -103.509 73.237 -176.746t176.746 -73.237 176.746 73.237 73.237 176.746 -73.237 176.746 -176.746 73.237 -176.746 -73.237 -73.237 -176.746zm62.496 14.648q5.859 77.144 65.425 127.922t136.71 44.919 127.922 -65.425 44.919 -136.71 -65.425 -127.922 -136.71 -44.919 -127.922 65.425 -44.919 136.71zm62.496 -14.648q0 -50.778 36.13 -87.885t88.862 -37.107q15.624 0 15.624 15.624t-15.624 15.624q-39.06 0 -66.402 27.342t-27.342 66.402q0 15.624 -15.624 15.624t-15.624 -15.624z"/></svg>