<svg height="1000" width="998" xmlns="http://www.w3.org/2000/svg"><path d="M4.794 574.246q-17.577 -126.945 29.295 -259.749 50.778 -126.945 158.193 -208.971t233.383 -99.603 258.773 29.295q126.945 50.778 209.948 158.193t99.603 233.383 -30.271 258.773q-50.778 126.945 -157.216 209.948t-233.383 99.603 -259.749 -30.271q-126.945 -50.778 -208.971 -157.216t-99.603 -233.383zm88.862 -236.313q-67.379 167.958 3.906 334.94t239.243 233.383 334.94 -4.883 233.383 -239.243 -4.883 -333.963 -239.243 -233.383 -333.963 3.906 -233.383 239.243zm57.614 23.436q56.637 -144.522 199.206 -205.065 15.624 -7.812 21.483 6.836t-7.812 20.506q-130.851 56.637 -183.582 189.441 -5.859 13.671 -20.506 7.812t-8.789 -19.53zm58.59 23.436q46.872 -121.086 166.005 -171.864 13.671 -5.859 20.506 8.789t-8.789 20.506q-105.462 44.919 -150.381 154.287 -5.859 13.671 -19.53 7.812t-7.812 -19.53zm56.637 21.483q39.06 -93.744 132.804 -134.757l1.953 -1.953q13.671 -5.859 19.53 8.789t-7.812 20.506q-83.979 35.154 -117.18 119.133 -5.859 15.624 -20.506 9.765t-8.789 -21.483zm58.59 23.436q29.295 -72.261 100.58 -102.532t143.546 -.977 102.532 100.58 .977 143.546 -100.58 102.532 -143.546 .977 -102.532 -100.58 -.977 -143.546zm57.614 24.413q-18.553 47.849 1.953 95.697t68.355 66.402 95.697 -1.953 66.402 -68.355 -1.953 -95.697 -68.355 -66.402 -95.697 1.953 -66.402 68.355zm57.614 22.46q9.765 -23.436 34.178 -34.178t47.849 -.977 34.178 34.178 .977 47.849 -34.178 34.178 -47.849 .977 -34.178 -34.178 -.977 -47.849zm30.271 35.154q4.883 11.718 16.601 16.601t23.436 0 16.601 -16.601 0 -23.436 -16.601 -16.601 -23.436 0 -16.601 16.601 0 23.436zm106.439 209.948q-5.859 -14.648 7.812 -20.506 83.979 -35.154 117.18 -119.133 5.859 -15.624 20.506 -9.765t8.789 21.483q-39.06 95.697 -132.804 136.71l-1.953 0q-13.671 5.859 -19.53 -8.789zm24.413 57.614q-6.836 -13.671 8.789 -21.483 107.415 -44.919 150.381 -152.334 5.859 -15.624 20.506 -9.765t8.789 21.483q-48.825 119.133 -167.958 169.911 -13.671 5.859 -20.506 -7.812zm24.413 57.614q-5.859 -14.648 7.812 -20.506 130.851 -56.637 183.582 -189.441 5.859 -13.671 20.506 -7.812t8.789 19.53q-56.637 144.522 -199.206 205.065l0 1.953q-15.624 5.859 -21.483 -8.789z"/></svg>