<svg height="1000px" width="1000px" xmlns="http://www.w3.org/2000/svg">
  <g>
    <path d="M5.859375 574.21875c-11.719 -84.635 -1.953 -171.224 29.297 -259.766c33.854 -84.635 86.588 -154.296 158.203 -208.984c71.615 -54.687 149.414 -87.891 233.398 -99.609c83.985 -11.719 170.248 -1.953 258.789 29.297c84.636 33.854 154.623 86.588 209.961 158.203c55.339 71.614 88.542 149.414 99.61 233.398c11.068 83.984 0.976 170.247 -30.274 258.789c-33.854 84.636 -86.263 154.623 -157.226 209.961c-70.964 55.339 -148.763 88.542 -233.399 99.609c-84.635 11.068 -171.224 0.977 -259.765 -30.273c-84.636 -33.854 -154.297 -86.263 -208.985 -157.227c-54.687 -70.963 -87.89 -148.763 -99.609 -233.398c0 0 0 0 0 0m88.867 -236.328c-44.922 111.979 -43.62 223.633 3.906 334.961c47.526 111.328 127.279 189.127 239.258 233.398c111.979 44.271 223.633 42.643 334.961 -4.883c111.328 -47.526 189.128 -127.278 233.399 -239.257c44.27 -111.98 42.643 -223.308 -4.883 -333.985c-47.526 -110.677 -127.279 -188.476 -239.258 -233.398c-111.979 -44.922 -223.307 -43.62 -333.984 3.906c-110.677 47.526 -188.477 127.279 -233.399 239.258c0 0 0 0 0 0m57.617 23.437c37.761 -96.354 104.167 -164.713 199.219 -205.078c10.417 -5.208 17.578 -2.929 21.485 6.836c3.906 9.766 1.302 16.602 -7.813 20.508c-87.24 37.76 -148.438 100.911 -183.594 189.453c-3.906 9.115 -10.742 11.719 -20.508 7.813c-9.765 -3.907 -12.695 -10.417 -8.789 -19.532c0 0 0 0 0 0m58.594 23.438c31.25 -80.729 86.589 -138.021 166.016 -171.875c9.114 -3.906 15.95 -0.977 20.508 8.789c4.557 9.766 1.627 16.601 -8.789 20.508c-70.313 29.948 -120.443 81.38 -150.391 154.297c-3.906 9.114 -10.417 11.718 -19.531 7.812c-9.115 -3.906 -11.719 -10.417 -7.813 -19.531c0 0 0 0 0 0m56.641 21.484c26.041 -62.5 70.312 -107.422 132.812 -134.765c0 0 1.953 -1.954 1.953 -1.954c9.115 -3.906 15.625 -0.976 19.532 8.79c3.906 9.765 1.302 16.601 -7.813 20.507c-55.989 23.438 -95.052 63.151 -117.187 119.141c-3.907 10.417 -10.743 13.672 -20.508 9.766c-9.766 -3.907 -12.695 -11.068 -8.789 -21.485c0 0 0 0 0 0m58.594 23.438c19.531 -48.177 53.059 -82.357 100.585 -102.539c47.526 -20.183 95.378 -20.508 143.555 -0.977c48.177 19.531 82.357 53.06 102.539 100.586c20.182 47.526 20.508 95.378 0.977 143.555c-19.531 48.177 -53.06 82.357 -100.586 102.539c-47.526 20.182 -95.378 20.508 -143.555 0.976c-48.177 -19.531 -82.357 -53.06 -102.539 -100.586c-20.182 -47.526 -20.508 -95.377 -0.976 -143.554c0 0 0 0 0 0m57.617 24.414c-12.37 31.901 -11.719 63.802 1.953 95.703c13.672 31.901 36.458 54.036 68.359 66.406c31.901 12.37 63.802 11.719 95.703 -1.953c31.901 -13.672 54.037 -36.458 66.407 -68.359c12.369 -31.901 11.718 -63.802 -1.954 -95.703c-13.671 -31.901 -36.458 -54.037 -68.359 -66.407c-31.901 -12.369 -63.802 -11.718 -95.703 1.953c-31.901 13.672 -54.037 36.459 -66.406 68.36c0 0 0 0 0 0m57.617 22.461c6.51 -15.625 17.904 -27.018 34.18 -34.18c16.276 -7.161 32.226 -7.487 47.851 -0.977c15.625 6.511 27.018 17.904 34.18 34.18c7.161 16.276 7.487 32.227 0.976 47.852c-6.51 15.625 -17.903 27.018 -34.179 34.179c-16.276 7.162 -32.227 7.487 -47.852 0.977c-15.625 -6.51 -27.018 -17.904 -34.18 -34.18c-7.161 -16.276 -7.487 -32.226 -0.976 -47.851c0 0 0 0 0 0m30.273 35.156c3.256 7.812 8.789 13.346 16.602 16.602c7.812 3.255 15.625 3.255 23.437 0c7.813 -3.256 13.347 -8.79 16.602 -16.602c3.255 -7.813 3.255 -15.625 0 -23.438c-3.255 -7.812 -8.789 -13.346 -16.602 -16.601c-7.812 -3.255 -15.625 -3.255 -23.437 0c-7.813 3.255 -13.346 8.789 -16.602 16.601c-3.255 7.813 -3.255 15.625 0 23.438c0 0 0 0 0 0m106.446 209.961c-3.907 -9.766 -1.302 -16.602 7.812 -20.508c55.99 -23.437 95.052 -63.151 117.188 -119.141c3.906 -10.416 10.742 -13.671 20.507 -9.765c9.766 3.906 12.696 11.068 8.789 21.484c-26.041 63.802 -70.312 109.375 -132.812 136.719c0 0 -1.953 0 -1.953 0c-9.115 3.906 -15.625 0.977 -19.531 -8.789c0 0 0 0 0 0m24.414 57.617c-4.558 -9.114 -1.628 -16.276 8.789 -21.484c71.614 -29.948 121.745 -80.729 150.39 -152.344c3.907 -10.417 10.743 -13.672 20.508 -9.766c9.766 3.907 12.695 11.068 8.789 21.485c-32.552 79.427 -88.541 136.067 -167.969 169.922c-9.114 3.906 -15.95 1.302 -20.507 -7.813c0 0 0 0 0 0m24.414 57.617c-3.907 -9.765 -1.302 -16.601 7.812 -20.508c87.24 -37.76 148.438 -100.911 183.594 -189.453c3.906 -9.114 10.742 -11.718 20.508 -7.812c9.765 3.906 12.695 10.417 8.789 19.531c-37.761 96.354 -104.167 164.714 -199.219 205.078c0 0 0 1.953 0 1.953c-10.417 3.907 -17.578 0.977 -21.484 -8.789c0 0 0 0 0 0" />
  </g>
</svg>