<svg height="1000px" width="1000px" xmlns="http://www.w3.org/2000/svg">
  <g>
    <path d="M187.5 500c0 -80.729 28.646 -151.693 85.938 -212.891c0 0 42.968 -236.328 42.968 -236.328c2.604 -14.323 9.766 -26.367 21.485 -36.133c11.718 -9.765 25.39 -14.648 41.015 -14.648c0 0 250 0 250 0c14.323 0 27.344 4.883 39.063 14.648c11.719 9.766 18.88 21.81 21.484 36.133c0 0 44.922 244.141 44.922 244.141c37.76 42.969 61.849 91.146 72.266 144.531c0 0 1.953 -0.976 1.953 -0.976c1.302 -0.651 2.604 -0.977 3.906 -0.977c16.927 0 31.576 6.185 43.945 18.555c12.37 12.369 18.555 27.018 18.555 43.945c0 16.927 -6.185 31.576 -18.555 43.945c-12.369 12.37 -27.018 18.555 -43.945 18.555c-1.302 0 -2.604 -0.326 -3.906 -0.977c0 0 -1.953 -0.976 -1.953 -0.976c-11.719 55.989 -37.11 105.469 -76.172 148.437c0 0 -44.922 240.235 -44.922 240.235c-2.604 14.323 -9.44 26.367 -20.508 36.133c-11.068 9.765 -24.414 14.648 -40.039 14.648c0 0 -250 0 -250 0c-15.625 0 -28.971 -4.883 -40.039 -14.648c-11.068 -9.766 -17.904 -21.81 -20.508 -36.133c0 0 -44.922 -240.235 -44.922 -240.235c-54.687 -59.895 -82.031 -129.557 -82.031 -208.984c0 0 0 0 0 0m62.5 0c0 69.01 24.414 127.93 73.242 176.758c48.828 48.828 107.748 73.242 176.758 73.242c69.01 0 127.93 -24.414 176.758 -73.242c48.828 -48.828 73.242 -107.748 73.242 -176.758c0 -69.01 -24.414 -127.93 -73.242 -176.758c-48.828 -48.828 -107.748 -73.242 -176.758 -73.242c-69.01 0 -127.93 24.414 -176.758 73.242c-48.828 48.828 -73.242 107.748 -73.242 176.758c0 0 0 0 0 0m31.25 0c0 -9.115 2.93 -16.602 8.789 -22.461c5.859 -5.859 13.346 -8.789 22.461 -8.789c9.115 0 16.602 2.93 22.461 8.789c5.859 5.859 8.789 13.346 8.789 22.461c0 9.115 -2.93 16.602 -8.789 22.461c-5.859 5.859 -13.346 8.789 -22.461 8.789c-9.115 0 -16.602 -2.93 -22.461 -8.789c-5.859 -5.859 -8.789 -13.346 -8.789 -22.461c0 0 0 0 0 0m54.688 131.836c0 -8.464 2.929 -15.625 8.789 -21.484c5.859 -5.86 13.346 -8.789 22.461 -8.789c9.114 0 16.601 2.929 22.46 8.789c5.86 5.859 8.79 13.02 8.79 21.484c0 8.463 -2.93 15.95 -8.79 22.461c-5.859 6.51 -13.346 9.765 -22.46 9.765c-9.115 0 -16.602 -3.255 -22.461 -9.765c-5.86 -6.511 -8.789 -13.998 -8.789 -22.461c0 0 0 0 0 0m0 -264.649c0 -9.114 2.929 -16.601 8.789 -22.46c5.859 -5.86 13.346 -8.79 22.461 -8.79c9.114 0 16.601 2.93 22.46 8.79c5.86 5.859 8.79 13.346 8.79 22.46c0 9.115 -2.93 16.602 -8.79 22.461c-5.859 5.86 -13.346 8.789 -22.46 8.789c-9.115 0 -16.602 -2.929 -22.461 -8.789c-5.86 -5.859 -8.789 -13.346 -8.789 -22.461c0 0 0 0 0 0m7.812 402.344c0 0 31.25 167.969 31.25 167.969c0 0 250 0 250 0c0 0 31.25 -167.969 31.25 -167.969c-49.479 28.646 -101.563 42.969 -156.25 42.969c-54.688 0 -106.771 -14.323 -156.25 -42.969c0 0 0 0 0 0m3.906 -539.062c49.479 -28.646 101.563 -42.969 156.25 -42.969c54.688 0 106.771 14.323 156.25 42.969c0 0 -31.25 -167.969 -31.25 -167.969c0 0 -250 0 -250 0c0 0 -31.25 167.969 -31.25 167.969m121.094 457.031c0 -9.115 2.93 -16.602 8.789 -22.461c5.859 -5.859 13.346 -8.789 22.461 -8.789c9.115 0 16.602 2.93 22.461 8.789c5.859 5.859 8.789 13.346 8.789 22.461c0 9.115 -2.93 16.602 -8.789 22.461c-5.859 5.859 -13.346 8.789 -22.461 8.789c-9.115 0 -16.602 -2.93 -22.461 -8.789c-5.859 -5.859 -8.789 -13.346 -8.789 -22.461c0 0 0 0 0 0m0 -187.5c0 -9.115 3.255 -16.276 9.766 -21.484c0 0 162.109 -134.766 162.109 -134.766c5.208 -3.906 9.766 -3.581 13.672 0.977c3.906 4.557 4.557 9.44 1.953 14.648c0 0 -76.172 93.75 -76.172 93.75c0 0 -58.594 70.313 -58.594 70.313c-5.208 5.208 -12.369 7.812 -21.484 7.812c-9.115 0 -16.602 -2.93 -22.461 -8.789c-5.859 -5.859 -8.789 -13.346 -8.789 -22.461c0 0 0 0 0 0m0 -187.5c0 -9.115 2.93 -16.602 8.789 -22.461c5.859 -5.859 13.346 -8.789 22.461 -8.789c9.115 0 16.602 2.93 22.461 8.789c5.859 5.859 8.789 13.346 8.789 22.461c0 9.115 -2.93 16.602 -8.789 22.461c-5.859 5.859 -13.346 8.789 -22.461 8.789c-9.115 0 -16.602 -2.93 -22.461 -8.789c-5.859 -5.859 -8.789 -13.346 -8.789 -22.461c0 0 0 0 0 0m132.813 319.336c0 -8.464 2.929 -15.625 8.789 -21.484c5.859 -5.86 13.02 -8.789 21.484 -8.789c8.463 0 15.95 2.929 22.461 8.789c6.51 5.859 9.766 13.346 9.766 22.461c0 7.812 -3.256 14.973 -9.766 21.484c-6.511 6.51 -13.998 9.765 -22.461 9.765c-8.464 0 -15.625 -3.255 -21.484 -9.765c-5.86 -6.511 -8.789 -13.998 -8.789 -22.461c0 0 0 0 0 0m54.687 -131.836c0 -9.115 2.93 -16.602 8.789 -22.461c5.859 -5.859 13.346 -8.789 22.461 -8.789c9.115 0 16.602 2.93 22.461 8.789c5.859 5.859 8.789 13.346 8.789 22.461c0 9.115 -2.93 16.602 -8.789 22.461c-5.859 5.859 -13.346 8.789 -22.461 8.789c-9.115 0 -16.602 -2.93 -22.461 -8.789c-5.859 -5.859 -8.789 -13.346 -8.789 -22.461c0 0 0 0 0 0" />
  </g>
</svg>