<svg height="1000" width="687" xmlns="http://www.w3.org/2000/svg"><path d="M0 500.032q0 -121.086 85.932 -212.877l42.966 -236.313q3.906 -21.483 21.483 -36.13t41.013 -14.648l249.984 0q21.483 0 39.06 14.648t21.483 36.13l44.919 244.125q56.637 64.449 72.261 144.522l1.953 -.977q1.953 -.977 3.906 -.977 25.389 0 43.943 18.553t18.553 43.943 -18.553 43.943 -43.943 18.553q-1.953 0 -3.906 -.977l-1.953 -.977q-17.577 83.979 -76.167 148.428l-44.919 240.219q-3.906 21.483 -20.506 36.13t-40.037 14.648l-249.984 0q-23.436 0 -40.037 -14.648t-20.506 -36.13l-44.919 -240.219q-82.026 -89.838 -82.026 -208.971zm62.496 0q0 103.509 73.237 176.746t176.746 73.237 176.746 -73.237 73.237 -176.746 -73.237 -176.746 -176.746 -73.237 -176.746 73.237 -73.237 176.746zm31.248 0q0 -13.671 8.789 -22.46t22.46 -8.789 22.46 8.789 8.789 22.46 -8.789 22.46 -22.46 8.789 -22.46 -8.789 -8.789 -22.46zm54.684 131.828q0 -12.694 8.789 -21.483t22.46 -8.789 22.46 8.789 8.789 21.483 -8.789 22.46 -22.46 9.765 -22.46 -9.765 -8.789 -22.46zm0 -264.632q0 -13.671 8.789 -22.46t22.46 -8.789 22.46 8.789 8.789 22.46 -8.789 22.46 -22.46 8.789 -22.46 -8.789 -8.789 -22.46zm7.812 402.318l31.248 167.958l249.984 0l31.248 -167.958q-74.214 42.966 -156.24 42.966t-156.24 -42.966zm3.906 -539.028q74.214 -42.966 156.24 -42.966t156.24 42.966l-31.248 -167.958l-249.984 0zm121.086 457.002q0 -13.671 8.789 -22.46t22.46 -8.789 22.46 8.789 8.789 22.46 -8.789 22.46 -22.46 8.789 -22.46 -8.789 -8.789 -22.46zm0 -187.488q0 -13.671 9.765 -21.483l162.099 -134.757q7.812 -5.859 13.671 .977t1.953 14.648l-76.167 93.744 -58.59 70.308q-7.812 7.812 -21.483 7.812t-22.46 -8.789 -8.789 -22.46zm0 -187.488q0 -13.671 8.789 -22.46t22.46 -8.789 22.46 8.789 8.789 22.46 -8.789 22.46 -22.46 8.789 -22.46 -8.789 -8.789 -22.46zm132.804 319.315q0 -12.694 8.789 -21.483t21.483 -8.789 22.46 8.789 9.765 22.46q0 11.718 -9.765 21.483t-22.46 9.765 -21.483 -9.765 -8.789 -22.46zm54.684 -131.828q0 -13.671 8.789 -22.46t22.46 -8.789 22.46 8.789 8.789 22.46 -8.789 22.46 -22.46 8.789 -22.46 -8.789 -8.789 -22.46z"/></svg>