<svg height="1000px" width="1000px" xmlns="http://www.w3.org/2000/svg">
  <g>
    <path d="M0 671.875c0 -36.458 9.115 -70.313 27.344 -101.563c18.229 -31.25 42.968 -55.989 74.219 -74.218c-5.209 -14.323 -7.813 -28.646 -7.813 -42.969c0 -39.063 13.672 -72.266 41.016 -99.609c27.343 -27.344 60.547 -41.016 99.609 -41.016c13.021 0 27.344 2.604 42.969 7.813c22.135 -49.48 55.989 -89.193 101.562 -119.141c45.573 -29.948 96.354 -44.922 152.344 -44.922c72.917 0 135.742 24.414 188.477 73.242c52.734 48.828 83.007 109.05 90.82 180.664c54.687 10.417 99.935 37.11 135.742 80.078c35.807 42.969 53.711 93.099 53.711 150.391c0 65.104 -22.786 120.443 -68.359 166.016c-45.573 45.573 -100.912 68.359 -166.016 68.359c0 0 -562.5 0 -562.5 0c-55.99 0 -103.841 -19.857 -143.555 -59.57c-39.713 -39.714 -59.57 -87.565 -59.57 -143.555c0 0 0 0 0 0m62.5 0c0 39.063 13.672 72.266 41.016 99.609c27.343 27.344 60.547 41.016 99.609 41.016c0 0 562.5 0 562.5 0c46.875 0 87.24 -16.927 121.094 -50.781c33.854 -33.854 50.781 -74.219 50.781 -121.094c0 -41.667 -13.021 -78.125 -39.063 -109.375c-26.041 -31.25 -59.244 -50.781 -99.609 -58.594c-23.437 -5.208 -37.435 -10.091 -41.992 -14.648c-4.557 -4.557 -7.487 -18.555 -8.789 -41.992c-5.208 -55.99 -28.646 -102.865 -70.313 -140.625c-41.666 -37.761 -90.494 -56.641 -146.484 -56.641c-41.667 0 -80.729 11.393 -117.188 34.18c-36.458 22.786 -63.151 53.711 -80.078 92.773c-6.51 13.021 -10.416 21.159 -11.718 24.414c-1.302 3.255 -4.232 7.487 -8.789 12.696c-4.558 5.208 -9.441 7.161 -14.649 5.859c-5.208 -1.302 -12.37 -3.255 -21.484 -5.859c-14.323 -6.511 -28.646 -9.115 -42.969 -7.813c-22.135 0 -40.69 7.487 -55.664 22.461c-14.974 14.974 -22.461 33.529 -22.461 55.664c0 6.51 1.302 14.323 3.906 23.438c9.115 22.135 12.37 37.109 9.766 44.921c-2.604 7.813 -14.974 17.579 -37.11 29.297c-46.875 27.344 -70.312 67.709 -70.312 121.094c0 0 0 0 0 0" />
  </g>
</svg>