<svg height="1000px" width="1000px" xmlns="http://www.w3.org/2000/svg">
  <g>
    <path d="M0 542.96875c0 0 0 -85.938 0 -85.938c0 -14.322 4.883 -27.343 14.648 -39.062c9.766 -11.719 21.81 -18.88 36.133 -21.484c0 0 95.703 -19.532 95.703 -19.532c3.907 -13.02 9.115 -26.692 15.625 -41.015c0 0 -52.734 -80.078 -52.734 -80.078c-9.115 -13.021 -12.695 -27.019 -10.742 -41.993c1.953 -14.974 8.138 -27.669 18.555 -38.086c0 0 58.593 -58.593 58.593 -58.593c13.021 -13.021 27.995 -19.531 44.922 -19.532c13.021 0.001 24.74 3.907 35.156 11.719c0 0 80.078 52.735 80.078 52.735c14.323 -6.511 27.995 -11.719 41.016 -15.625c0 0 19.531 -95.704 19.531 -95.704c2.605 -14.322 9.766 -26.367 21.485 -36.132c11.718 -9.766 24.739 -14.649 39.062 -14.649c0 0 85.938 0 85.938 0c14.323 0 27.343 4.883 39.062 14.649c11.719 9.765 18.88 21.81 21.485 36.132c0 0 19.531 95.704 19.531 95.704c13.021 3.906 26.693 9.114 41.015 15.625c0 0 80.079 -52.735 80.079 -52.735c10.416 -7.812 22.135 -11.718 35.156 -11.719c16.927 0.001 31.901 6.511 44.922 19.532c0 0 58.594 58.593 58.594 58.593c11.718 10.417 18.229 23.112 19.531 38.086c1.302 14.974 -2.604 28.972 -11.719 41.993c0 0 -52.734 80.078 -52.734 80.078c6.51 14.323 11.718 27.995 15.625 41.015c0 0 95.703 19.532 95.703 19.532c14.323 2.604 26.367 9.765 36.133 21.484c9.765 11.719 14.648 24.74 14.648 39.063c0 0 0 85.937 0 85.937c0 14.323 -4.883 27.344 -14.648 39.063c-9.766 11.718 -21.81 18.88 -36.133 21.484c0 0 -95.703 19.531 -95.703 19.531c-3.907 13.021 -9.115 26.693 -15.625 41.016c0 0 52.734 80.078 52.734 80.078c9.115 13.021 13.021 27.018 11.719 41.992c-1.302 14.974 -7.813 27.669 -19.531 38.086c0 0 -58.594 58.594 -58.594 58.594c-13.021 13.021 -27.995 19.531 -44.922 19.531c-13.021 0 -24.74 -3.906 -35.156 -11.719c0 0 -80.078 -52.734 -80.078 -52.734c-14.323 6.51 -27.995 11.719 -41.016 15.625c0 0 -19.531 95.703 -19.531 95.703c-2.605 14.323 -9.766 26.367 -21.485 36.133c-11.719 9.765 -24.739 14.648 -39.062 14.648c0 0 -85.938 0 -85.938 0c-14.323 0 -27.344 -4.557 -39.062 -13.672c-11.719 -9.114 -18.88 -21.484 -21.485 -37.109c0 0 -19.531 -95.703 -19.531 -95.703c-13.021 -3.906 -26.693 -9.115 -41.016 -15.625c0 0 -80.078 52.734 -80.078 52.734c-10.416 7.813 -22.135 11.719 -35.156 11.719c-16.927 0 -31.901 -6.51 -44.922 -19.531c0 0 -58.594 -58.594 -58.594 -58.594c-10.416 -10.417 -16.601 -23.112 -18.554 -38.086c-1.953 -14.974 1.627 -28.971 10.742 -41.992c0 0 52.734 -80.078 52.734 -80.078c-6.51 -14.323 -11.718 -27.995 -15.625 -41.016c0 0 -95.703 -19.531 -95.703 -19.531c-14.323 -2.604 -26.367 -9.766 -36.133 -21.485c-9.765 -11.718 -14.648 -24.739 -14.648 -39.062c0 0 0 0 0 0m62.5 0c0 0 95.703 19.531 95.703 19.531c23.438 3.907 39.063 16.927 46.875 39.063c3.906 11.719 8.464 23.437 13.672 35.156c10.417 20.833 9.115 41.016 -3.906 60.547c0 0 -54.688 82.031 -54.688 82.031c0 0 60.547 60.547 60.547 60.547c0 0 82.031 -54.688 82.031 -54.688c10.417 -6.51 21.485 -9.765 33.203 -9.765c10.417 0 19.532 1.953 27.344 5.859c11.719 5.209 23.438 9.766 35.156 13.672c22.136 7.813 35.157 23.438 39.063 46.875c0 0 19.531 95.703 19.531 95.703c0 0 85.938 0 85.938 0c0 0 19.531 -95.703 19.531 -95.703c3.906 -23.437 16.927 -39.062 39.063 -46.875c11.718 -3.906 23.437 -8.463 35.156 -13.672c7.812 -3.906 16.927 -5.859 27.344 -5.859c11.718 0 22.786 3.255 33.203 9.765c0 0 82.031 54.688 82.031 54.688c0 0 60.547 -60.547 60.547 -60.547c0 0 -54.688 -82.031 -54.688 -82.031c-13.021 -19.531 -14.323 -39.714 -3.906 -60.547c5.208 -11.719 9.766 -23.438 13.672 -35.156c7.812 -22.136 23.437 -35.157 46.875 -39.063c0 0 95.703 -19.531 95.703 -19.531c0 0 0 -85.938 0 -85.938c0 0 -95.703 -19.531 -95.703 -19.531c-23.438 -3.906 -39.063 -16.927 -46.875 -39.062c-3.906 -11.719 -8.464 -23.438 -13.672 -35.157c-10.417 -20.833 -9.115 -41.015 3.906 -60.546c0 0 54.688 -82.032 54.688 -82.032c0 0 -60.547 -60.547 -60.547 -60.547c0 0 -82.031 54.688 -82.031 54.688c-10.417 6.51 -21.485 9.766 -33.204 9.766c-10.416 0 -19.531 -1.954 -27.343 -5.86c-11.719 -5.208 -23.438 -9.765 -35.157 -13.672c-22.135 -7.812 -35.156 -23.437 -39.062 -46.875c0 0 -19.531 -95.703 -19.531 -95.703c0 0 -85.938 0 -85.938 0c0 0 -19.531 95.703 -19.531 95.703c-3.906 23.438 -16.927 39.063 -39.063 46.875c-11.718 3.907 -23.437 8.464 -35.156 13.672c-7.812 3.906 -16.927 5.86 -27.344 5.86c-11.718 0 -22.786 -3.256 -33.203 -9.766c0 0 -82.031 -54.688 -82.031 -54.688c0 0 -60.547 60.547 -60.547 60.547c0 0 54.688 82.032 54.688 82.032c13.021 19.531 14.323 39.713 3.906 60.546c-5.208 11.719 -9.766 23.438 -13.672 35.157c-7.812 22.135 -23.437 35.156 -46.875 39.062c0 0 -95.703 19.531 -95.703 19.531c0 0 0 85.938 0 85.938c0 0 0 0 0 0m218.75 -42.969c0 -59.896 21.484 -111.328 64.453 -154.297c42.969 -42.968 94.401 -64.453 154.297 -64.453c59.896 0 111.328 21.485 154.297 64.453c42.969 42.969 64.453 94.401 64.453 154.297c0 59.896 -21.484 111.328 -64.453 154.297c-42.969 42.969 -94.401 64.453 -154.297 64.453c-59.896 0 -111.328 -21.484 -154.297 -64.453c-42.969 -42.969 -64.453 -94.401 -64.453 -154.297c0 0 0 0 0 0m27.344 0c0 53.386 18.554 98.633 55.664 135.742c37.109 37.11 82.357 55.664 135.742 55.664c53.385 0 98.633 -18.554 135.742 -55.664c37.11 -37.109 55.664 -82.356 55.664 -135.742c0 -53.385 -18.554 -98.633 -55.664 -135.742c-37.109 -37.109 -82.357 -55.664 -135.742 -55.664c-53.385 0 -98.633 18.555 -135.742 55.664c-37.11 37.109 -55.664 82.357 -55.664 135.742c0 0 0 0 0 0m66.406 0c0 -35.156 12.044 -64.778 36.133 -88.867c24.088 -24.088 53.711 -36.133 88.867 -36.133c35.156 0 64.779 12.37 88.867 37.11c24.089 24.739 36.133 54.362 36.133 88.867c0 34.505 -12.044 63.802 -36.133 87.89c-24.088 24.089 -53.711 36.133 -88.867 36.133c-35.156 0 -64.779 -12.044 -88.867 -36.133c-24.089 -24.088 -36.133 -53.711 -36.133 -88.867c0 0 0 0 0 0m31.25 0c0 26.042 9.115 48.177 27.344 66.406c18.229 18.23 40.364 27.344 66.406 27.344c26.042 0 48.177 -9.114 66.406 -27.344c18.229 -18.229 27.344 -40.364 27.344 -66.406c0 -26.041 -9.115 -48.177 -27.344 -66.406c-18.229 -18.229 -40.364 -27.344 -66.406 -27.344c-26.042 0 -48.177 9.115 -66.406 27.344c-18.229 18.229 -27.344 40.365 -27.344 66.406c0 0 0 0 0 0" />
  </g>
</svg>