<svg height="1000" width="1000" xmlns="http://www.w3.org/2000/svg"><path d="M0 542.998l0 -85.932q0 -21.483 14.648 -39.06t36.13 -21.483l95.697 -19.53q5.859 -19.53 15.624 -41.013l-52.731 -80.073q-13.671 -19.53 -10.742 -41.989t18.553 -38.084l58.59 -58.59q19.53 -19.53 44.919 -19.53 19.53 0 35.154 11.718l80.073 52.731q21.483 -9.765 41.013 -15.624l19.53 -95.697q3.906 -21.483 21.483 -36.13t39.06 -14.648l85.932 0q21.483 0 39.06 14.648t21.483 36.13l19.53 95.697q19.53 5.859 41.013 15.624l80.073 -52.731q15.624 -11.718 35.154 -11.718 25.389 0 44.919 19.53l58.59 58.59q17.577 15.624 19.53 38.084t-11.718 41.989l-52.731 80.073q9.765 21.483 15.624 41.013l95.697 19.53q21.483 3.906 36.13 21.483t14.648 39.06l0 85.932q0 21.483 -14.648 39.06t-36.13 21.483l-95.697 19.53q-5.859 19.53 -15.624 41.013l52.731 80.073q13.671 19.53 11.718 41.989t-19.53 38.084l-58.59 58.59q-19.53 19.53 -44.919 19.53 -19.53 0 -35.154 -11.718l-80.073 -52.731q-21.483 9.765 -41.013 15.624l-19.53 95.697q-3.906 21.483 -21.483 36.13t-39.06 14.648l-85.932 0q-21.483 0 -39.06 -13.671t-21.483 -37.107l-19.53 -95.697q-19.53 -5.859 -41.013 -15.624l-80.073 52.731q-15.624 11.718 -35.154 11.718 -25.389 0 -44.919 -19.53l-58.59 -58.59q-15.624 -15.624 -18.553 -38.084t10.742 -41.989l52.731 -80.073q-9.765 -21.483 -15.624 -41.013l-95.697 -19.53q-21.483 -3.906 -36.13 -21.483t-14.648 -39.06zm62.496 0l95.697 19.53q35.154 5.859 46.872 39.06 5.859 17.577 13.671 35.154 15.624 31.248 -3.906 60.543l-54.684 82.026 60.543 60.543 82.026 -54.684q15.624 -9.765 33.201 -9.765 15.624 0 27.342 5.859 17.577 7.812 35.154 13.671 33.201 11.718 39.06 46.872l19.53 95.697l85.932 0l19.53 -95.697q5.859 -35.154 39.06 -46.872 17.577 -5.859 35.154 -13.671 11.718 -5.859 27.342 -5.859 17.577 0 33.201 9.765l82.026 54.684 60.543 -60.543 -54.684 -82.026q-19.53 -29.295 -3.906 -60.543 7.812 -17.577 13.671 -35.154 11.718 -33.201 46.872 -39.06l95.697 -19.53l0 -85.932l-95.697 -19.53q-35.154 -5.859 -46.872 -39.06 -5.859 -17.577 -13.671 -35.154 -15.624 -31.248 3.906 -60.543l54.684 -82.026 -60.543 -60.543 -82.026 54.684q-15.624 9.765 -33.201 9.765 -15.624 0 -27.342 -5.859 -17.577 -7.812 -35.154 -13.671 -33.201 -11.718 -39.06 -46.872l-19.53 -95.697l-85.932 0l-19.53 95.697q-5.859 35.154 -39.06 46.872 -17.577 5.859 -35.154 13.671 -11.718 5.859 -27.342 5.859 -17.577 0 -33.201 -9.765l-82.026 -54.684 -60.543 60.543 54.684 82.026q19.53 29.295 3.906 60.543 -7.812 17.577 -13.671 35.154 -11.718 33.201 -46.872 39.06l-95.697 19.53l0 85.932zm218.736 -42.966q0 -89.838 64.449 -154.287t154.287 -64.449 154.287 64.449 64.449 154.287 -64.449 154.287 -154.287 64.449 -154.287 -64.449 -64.449 -154.287zm27.342 0q0 80.073 55.66 135.733t135.733 55.66 135.733 -55.66 55.66 -135.733 -55.66 -135.733 -135.733 -55.66 -135.733 55.66 -55.66 135.733zm66.402 0q0 -52.731 36.13 -88.862t88.862 -36.13 88.862 37.107 36.13 88.862 -36.13 87.885 -88.862 36.13 -88.862 -36.13 -36.13 -88.862zm31.248 0q0 39.06 27.342 66.402t66.402 27.342 66.402 -27.342 27.342 -66.402 -27.342 -66.402 -66.402 -27.342 -66.402 27.342 -27.342 66.402z"/></svg>