<svg height="1000" width="1000" xmlns="http://www.w3.org/2000/svg"><path d="M.002 437.536q0 -156.24 146.475 -265.608t353.493 -109.368 353.493 109.368 146.475 265.608 -146.475 265.608 -353.493 109.368q-46.872 0 -95.697 -7.812 -29.295 35.154 -88.862 78.12t-122.063 54.684l-9.765 0q-11.718 0 -19.53 -7.812t-7.812 -19.53q0 -5.859 1.953 -11.718 0 -1.953 12.694 -21.483t17.577 -29.295 13.671 -29.295 12.694 -36.13 3.906 -32.224l0 -1.953q-101.556 -52.731 -160.146 -133.781t-58.59 -176.746zm62.496 0q0 74.214 48.825 142.569t136.71 111.321q33.201 17.577 33.201 56.637l0 5.859q0 41.013 -21.483 91.791 60.543 -37.107 95.697 -80.073 17.577 -23.436 48.825 -23.436 3.906 0 7.812 1.953 44.919 5.859 87.885 5.859 181.629 0 309.55 -91.791t127.922 -220.689 -127.922 -220.689 -309.55 -91.791 -309.55 91.791 -127.922 220.689zm93.744 0q0 -89.838 101.556 -154.287t242.172 -64.449q15.624 0 15.624 15.624t-15.624 15.624q-124.992 0 -218.736 56.637t-93.744 130.851q0 15.624 -15.624 15.624t-15.624 -15.624z"/></svg>