<svg height="1000px" width="1000px" xmlns="http://www.w3.org/2000/svg">
  <g>
    <path d="M0 437.5c0 -104.167 48.828 -192.708 146.484 -265.625c97.657 -72.917 215.495 -109.375 353.516 -109.375c138.021 0 255.859 36.458 353.516 109.375c97.656 72.917 146.484 161.458 146.484 265.625c0 104.167 -48.828 192.708 -146.484 265.625c-97.657 72.917 -215.495 109.375 -353.516 109.375c-31.25 0 -63.151 -2.604 -95.703 -7.813c-19.531 23.438 -49.154 49.48 -88.867 78.125c-39.714 28.646 -80.404 46.875 -122.071 54.688c0 0 -9.765 0 -9.765 0c-7.813 0 -14.323 -2.604 -19.531 -7.813c-5.209 -5.208 -7.813 -11.718 -7.813 -19.531c0 -3.906 0.651 -7.812 1.953 -11.719c0 -1.302 4.232 -8.463 12.695 -21.484c8.464 -13.021 14.323 -22.786 17.579 -29.297c3.255 -6.51 7.812 -16.276 13.671 -29.297c5.86 -13.02 10.092 -25.065 12.696 -36.132c2.604 -11.068 3.906 -21.81 3.906 -32.227c0 0 0 -1.953 0 -1.953c-67.708 -35.156 -121.094 -79.753 -160.156 -133.789c-39.063 -54.037 -58.594 -112.956 -58.594 -176.758c0 0 0 0 0 0m62.5 0c0 49.479 16.276 97.005 48.828 142.578c32.552 45.573 78.125 82.682 136.719 111.328c22.135 11.719 33.203 30.599 33.203 56.641c0 0 0 5.859 0 5.859c0 27.344 -7.161 57.943 -21.484 91.797c40.364 -24.739 72.265 -51.432 95.703 -80.078c11.718 -15.625 27.995 -23.438 48.828 -23.438c2.604 0 5.208 0.652 7.812 1.954c29.948 3.906 59.245 5.859 87.891 5.859c121.094 0 224.284 -30.599 309.57 -91.797c85.287 -61.198 127.93 -134.765 127.93 -220.703c0 -85.938 -42.643 -159.505 -127.93 -220.703c-85.286 -61.198 -188.476 -91.797 -309.57 -91.797c-121.094 0 -224.284 30.599 -309.57 91.797c-85.287 61.198 -127.93 134.766 -127.93 220.703c0 0 0 0 0 0m93.75 0c0 -59.896 33.854 -111.328 101.563 -154.297c67.708 -42.969 148.437 -64.453 242.187 -64.453c10.417 0 15.625 5.208 15.625 15.625c0 10.417 -5.208 15.625 -15.625 15.625c-83.333 0 -156.25 18.88 -218.75 56.641c-62.5 37.76 -93.75 81.38 -93.75 130.859c0 10.417 -5.208 15.625 -15.625 15.625c-10.417 0 -15.625 -5.208 -15.625 -15.625c0 0 0 0 0 0" />
  </g>
</svg>