<svg height="1000px" width="1000px" xmlns="http://www.w3.org/2000/svg">
  <g>
    <path d="M62.5 312.5c0 0 0 -93.75 0 -93.75c0 -16.927 5.534 -31.25 16.602 -42.969c11.067 -11.719 25.065 -18.229 41.992 -19.531c0 0 39.062 -113.281 39.062 -113.281c9.115 -28.646 28.646 -42.969 58.594 -42.969c0 0 562.5 0 562.5 0c29.948 0 49.479 14.323 58.594 42.969c0 0 39.062 113.281 39.062 113.281c15.625 1.302 29.297 7.813 41.016 19.531c11.719 11.719 17.578 26.042 17.578 42.969c0 0 0 93.75 0 93.75c0 16.927 -6.185 31.576 -18.555 43.945c-12.369 12.37 -27.018 18.555 -43.945 18.555c0 0 -33.203 0 -33.203 0c0 0 0.976 2.93 0.976 2.93c0.651 1.953 0.977 3.58 0.977 4.882c0 0 -62.5 562.5 -62.5 562.5c-2.604 15.625 -9.766 28.646 -21.484 39.063c-11.719 10.417 -25.391 15.625 -41.016 15.625c0 0 -437.5 0 -437.5 0c-15.625 0 -29.297 -5.208 -41.016 -15.625c-11.718 -10.417 -18.88 -23.438 -21.484 -39.063c0 0 -62.5 -562.5 -62.5 -562.5c0 -1.302 0.326 -2.929 0.977 -4.882c0 0 0.976 -2.93 0.976 -2.93c0 0 -33.203 0 -33.203 0c-16.927 0 -31.576 -6.185 -43.945 -18.555c-12.37 -12.369 -18.555 -27.018 -18.555 -43.945c0 0 0 0 0 0m62.5 0c0 0 750 0 750 0c0 0 0 -93.75 0 -93.75c0 0 -750 0 -750 0c0 0 0 93.75 0 93.75c0 0 0 0 0 0m62.5 -156.25c0 0 625 0 625 0c0 0 -31.25 -93.75 -31.25 -93.75c0 0 -562.5 0 -562.5 0c0 0 -31.25 93.75 -31.25 93.75m31.25 218.75c0 0 9.766 93.75 9.766 93.75c0 0 542.968 0 542.968 0c0 0 9.766 -93.75 9.766 -93.75c0 0 -562.5 0 -562.5 0c0 0 0 0 0 0m13.672 125c0 0 35.156 312.5 35.156 312.5c0 0 464.844 0 464.844 0c0 0 35.156 -312.5 35.156 -312.5c0 0 -535.156 0 -535.156 0c0 0 0 0 0 0m39.062 343.75c0 0 9.766 93.75 9.766 93.75c0 0 437.5 0 437.5 0c0 0 9.766 -93.75 9.766 -93.75c0 0 -457.032 0 -457.032 0c0 0 0 0 0 0" />
  </g>
</svg>