<svg height="1000" width="1000" xmlns="http://www.w3.org/2000/svg"><path d="M62.496 312.544v-93.744q0-25.389 16.601-42.966t41.989-19.53l39.06-113.274q13.671-42.966 58.59-42.966h562.464q44.919 0 58.59 42.966l39.06 113.274q23.436 1.953 41.013 19.53t17.577 42.966v93.744q0 25.389-18.553 43.943t-43.943 18.553h-33.201l.977 2.929q.977 2.929.977 4.883l-62.496 562.464q-3.906 23.436-21.483 39.06t-41.013 15.624h-437.472q-23.436 0-41.013-15.624t-21.483-39.06l-62.496-562.464q0-1.953.977-4.883l.977-2.929h-33.201q-25.389 0-43.943-18.553t-18.553-43.943zm62.496 0h749.952v-93.744h-749.952v93.744zm62.496-156.24h624.96l-31.248-93.744h-562.464zm31.248 218.736l9.765 93.744h542.934l9.765-93.744h-562.464zm13.671 124.992l35.154 312.48h464.814l35.154-312.48h-535.122zm39.06 343.728l9.765 93.744h437.472l9.765-93.744h-457.002z"/></svg>