<svg height="1000px" width="1000px" xmlns="http://www.w3.org/2000/svg">
  <g>
    <path d="M62.5 796.875c0 0 0 -593.75 0 -593.75c0 -65.104 43.62 -115.234 130.859 -150.391c87.24 -35.156 189.453 -52.734 306.641 -52.734c117.188 0 219.401 17.578 306.641 52.734c87.239 35.157 130.859 85.287 130.859 150.391c0 0 0 593.75 0 593.75c0 65.104 -43.62 115.234 -130.859 150.391c-87.24 35.156 -189.454 52.734 -306.641 52.734c-117.188 0 -219.401 -17.578 -306.641 -52.734c-87.239 -35.157 -130.859 -85.287 -130.859 -150.391c0 0 0 0 0 0m62.5 0c0 39.063 36.458 72.266 109.375 99.609c72.917 27.344 161.458 41.016 265.625 41.016c104.167 0 192.708 -13.672 265.625 -41.016c72.917 -27.343 109.375 -60.547 109.375 -99.609c0 0 0 -117.188 0 -117.188c-31.25 32.553 -81.38 57.618 -150.391 75.196c-69.01 17.578 -143.88 26.367 -224.609 26.367c-80.729 0 -155.599 -8.789 -224.609 -26.367c-69.011 -17.578 -119.141 -42.643 -150.391 -75.196c0 0 0 117.188 0 117.188c0 0 0 0 0 0m0 -187.5c0 39.063 36.458 72.266 109.375 99.609c72.917 27.344 161.458 41.016 265.625 41.016c104.167 0 192.708 -13.672 265.625 -41.016c72.917 -27.343 109.375 -60.547 109.375 -99.609c0 0 0 -117.188 0 -117.188c-31.25 32.553 -81.38 57.618 -150.391 75.196c-69.01 17.578 -143.88 26.367 -224.609 26.367c-80.729 0 -155.599 -8.789 -224.609 -26.367c-69.011 -17.578 -119.141 -42.643 -150.391 -75.196c0 0 0 117.188 0 117.188c0 0 0 0 0 0m0 -187.5c0 39.063 36.458 72.266 109.375 99.609c72.917 27.344 161.458 41.016 265.625 41.016c104.167 0 192.708 -13.672 265.625 -41.016c72.917 -27.343 109.375 -60.547 109.375 -99.609c0 0 0 -107.422 0 -107.422c-39.063 29.948 -92.448 52.734 -160.156 68.359c-67.709 15.625 -139.323 23.438 -214.844 23.438c-75.521 0 -147.135 -7.813 -214.844 -23.438c-67.708 -15.625 -121.094 -38.411 -160.156 -68.359c0 0 0 107.422 0 107.422c0 0 0 0 0 0m0 -218.75c0 39.062 36.458 72.266 109.375 99.609c72.917 27.344 161.458 41.016 265.625 41.016c104.167 0 192.708 -13.672 265.625 -41.016c72.917 -27.343 109.375 -60.547 109.375 -99.609c0 -39.063 -36.458 -72.266 -109.375 -99.609c-72.917 -27.344 -161.458 -41.016 -265.625 -41.016c-104.167 0 -192.708 13.672 -265.625 41.016c-72.917 27.343 -109.375 60.546 -109.375 99.609c0 0 0 0 0 0m625 609.375c0 -9.115 2.93 -16.602 8.789 -22.461c5.859 -5.859 13.346 -8.789 22.461 -8.789c9.115 0 16.602 2.93 22.461 8.789c5.859 5.859 8.789 13.346 8.789 22.461c0 9.115 -2.93 16.602 -8.789 22.461c-5.859 5.859 -13.346 8.789 -22.461 8.789c-9.115 0 -16.602 -2.93 -22.461 -8.789c-5.859 -5.859 -8.789 -13.346 -8.789 -22.461c0 0 0 0 0 0m0 -187.5c0 -9.115 2.93 -16.602 8.789 -22.461c5.859 -5.859 13.346 -8.789 22.461 -8.789c9.115 0 16.602 2.93 22.461 8.789c5.859 5.859 8.789 13.346 8.789 22.461c0 9.115 -2.93 16.602 -8.789 22.461c-5.859 5.859 -13.346 8.789 -22.461 8.789c-9.115 0 -16.602 -2.93 -22.461 -8.789c-5.859 -5.859 -8.789 -13.346 -8.789 -22.461c0 0 0 0 0 0m0 -187.5c0 -9.115 2.93 -16.602 8.789 -22.461c5.859 -5.859 13.346 -8.789 22.461 -8.789c9.115 0 16.602 2.93 22.461 8.789c5.859 5.859 8.789 13.346 8.789 22.461c0 9.115 -2.93 16.602 -8.789 22.461c-5.859 5.859 -13.346 8.789 -22.461 8.789c-9.115 0 -16.602 -2.93 -22.461 -8.789c-5.859 -5.859 -8.789 -13.346 -8.789 -22.461c0 0 0 0 0 0" />
  </g>
</svg>