<svg height="1000" width="1000" xmlns="http://www.w3.org/2000/svg"><path d="M0 750.016v-624.96q0-39.06 27.342-66.402t66.402-27.342h812.448q39.06 0 66.402 27.342t27.342 66.402v624.96q0 39.06-27.342 66.402t-66.402 27.342h-312.48v37.107l195.3 25.389q23.436 5.859 23.436 31.248 0 13.671-8.789 22.46t-22.46 8.789h-562.464q-13.671 0-22.46-8.789t-8.789-22.46q0-25.389 23.436-31.248l195.3-25.389v-37.107h-312.48q-39.06 0-66.402-27.342t-27.342-66.402zm62.496 0q0 13.671 8.789 22.46t22.46 8.789h812.4480000000001q13.671 0 22.46-8.789t8.789-22.46v-624.96q0-13.671-8.789-22.46t-22.46-8.789h-812.448q-13.671 0-22.46 8.789t-8.789 22.46v624.96zm62.496-124.992v-437.472q0-13.671 8.789-22.46t22.46-8.789h687.456q13.671 0 22.46 8.789t8.789 22.46v437.472q0 13.671-8.789 22.46t-22.46 8.789h-687.456q-13.671 0-22.46-8.789t-8.789-22.46zm31.248 0h687.456v-437.472h-687.456v437.472z"/></svg>