<svg height="1000" width="1000" xmlns="http://www.w3.org/2000/svg"><path d="M.002 750.016l0 -624.96q0 -39.06 27.342 -66.402t66.402 -27.342l812.448 0q39.06 0 66.402 27.342t27.342 66.402l0 624.96q0 39.06 -27.342 66.402t-66.402 27.342l-312.48 0l0 37.107l195.3 25.389q23.436 5.859 23.436 31.248 0 13.671 -8.789 22.46t-22.46 8.789l-562.464 0q-13.671 0 -22.46 -8.789t-8.789 -22.46q0 -25.389 23.436 -31.248l195.3 -25.389l0 -37.107l-312.48 0q-39.06 0 -66.402 -27.342t-27.342 -66.402zm62.496 0q0 13.671 8.789 22.46t22.46 8.789l812.448 0q13.671 0 22.46 -8.789t8.789 -22.46l0 -624.96q0 -13.671 -8.789 -22.46t-22.46 -8.789l-812.448 0q-13.671 0 -22.46 8.789t-8.789 22.46l0 624.96zm62.496 -124.992l0 -437.472q0 -13.671 8.789 -22.46t22.46 -8.789l687.456 0q13.671 0 22.46 8.789t8.789 22.46l0 437.472q0 13.671 -8.789 22.46t-22.46 8.789l-687.456 0q-13.671 0 -22.46 -8.789t-8.789 -22.46zm31.248 0l687.456 0l0 -437.472l-687.456 0l0 437.472z"/></svg>