<svg height="1000" width="1000" xmlns="http://www.w3.org/2000/svg"><path d="M0 347.698q0-27.342 17.577-44.919l160.146-158.193q17.577-19.53 42.966-19.53h558.558q25.389 0 42.966 19.53l160.146 158.193q17.577 17.577 17.577 42.966 0 23.436-15.624 42.966l-437.472 464.814q-19.53 21.483-46.872 21.483t-46.872-21.483l-437.472-464.814q-15.624-17.577-15.624-41.013zm62.496-3.906h134.757l83.979-83.979-72.261-60.543zm27.342 31.248l306.621 328.104-195.3-328.104h-111.321zm146.475 0l230.454 382.788-76.167-382.788h-154.287zm3.906-31.248h142.569l-78.12-64.449zm1.953-156.24l60.543 50.778 50.778-50.778h-111.321zm83.979 70.308l80.073 66.402 70.308-58.59-85.932-70.308zm95.697 117.18l78.12 388.647 78.12-388.647h-156.24zm7.812-31.248h140.616l-70.308-56.637zm0-156.24l70.308 58.59 68.355-58.59h-138.663zm95.697 78.12l68.355 58.59 80.073-66.402-64.449-62.496zm7.812 492.156l230.454-382.788h-154.287zm70.308-54.684l306.621-328.104h-111.321zm13.671-359.352h142.569l-64.449-64.449zm29.295-156.24l50.778 50.778 60.543-50.778h-111.321zm72.261 72.261l83.979 83.979h132.804l-144.522-144.522z"/></svg>