<svg height="1000" width="1000" xmlns="http://www.w3.org/2000/svg"><path d="M0 347.698q0 -27.342 17.577 -44.919l160.146 -158.193q17.577 -19.53 42.966 -19.53l558.558 0q25.389 0 42.966 19.53l160.146 158.193q17.577 17.577 17.577 42.966 0 23.436 -15.624 42.966l-437.472 464.814q-19.53 21.483 -46.872 21.483t-46.872 -21.483l-437.472 -464.814q-15.624 -17.577 -15.624 -41.013zm62.496 -3.906l134.757 0l83.979 -83.979 -72.261 -60.543zm27.342 31.248l306.621 328.104 -195.3 -328.104l-111.321 0zm146.475 0l230.454 382.788 -76.167 -382.788l-154.287 0zm3.906 -31.248l142.569 0l-78.12 -64.449zm1.953 -156.24l60.543 50.778 50.778 -50.778l-111.321 0zm83.979 70.308l80.073 66.402 70.308 -58.59 -85.932 -70.308zm95.697 117.18l78.12 388.647 78.12 -388.647l-156.24 0zm7.812 -31.248l140.616 0l-70.308 -56.637zm0 -156.24l70.308 58.59 68.355 -58.59l-138.663 0zm95.697 78.12l68.355 58.59 80.073 -66.402 -64.449 -62.496zm7.812 492.156l230.454 -382.788l-154.287 0zm70.308 -54.684l306.621 -328.104l-111.321 0zm13.671 -359.352l142.569 0l-64.449 -64.449zm29.295 -156.24l50.778 50.778 60.543 -50.778l-111.321 0zm72.261 72.261l83.979 83.979l132.804 0l-144.522 -144.522z"/></svg>