<svg height="1000px" width="1000px" xmlns="http://www.w3.org/2000/svg">
  <g>
    <path d="M0 347.65625c0 -18.229 5.859 -33.203 17.578 -44.922c0 0 160.156 -158.203 160.156 -158.203c11.719 -13.021 26.042 -19.531 42.969 -19.531c0 0 558.594 0 558.594 0c16.927 0 31.25 6.51 42.969 19.531c0 0 160.156 158.203 160.156 158.203c11.719 11.719 17.578 26.042 17.578 42.969c0 15.625 -5.208 29.948 -15.625 42.969c0 0 -437.5 464.843 -437.5 464.843c-13.021 14.323 -28.646 21.485 -46.875 21.485c-18.229 0 -33.854 -7.162 -46.875 -21.485c0 0 -437.5 -464.843 -437.5 -464.843c-10.417 -11.719 -15.625 -25.391 -15.625 -41.016c0 0 0 0 0 0m62.5 -3.906c0 0 134.766 0 134.766 0c0 0 83.984 -83.985 83.984 -83.985c0 0 -72.266 -60.546 -72.266 -60.546c0 0 -146.484 144.531 -146.484 144.531m27.344 31.25c0 0 306.64 328.125 306.64 328.125c0 0 -195.312 -328.125 -195.312 -328.125c0 0 -111.328 0 -111.328 0c0 0 0 0 0 0m146.484 0c0 0 230.469 382.812 230.469 382.812c0 0 -76.172 -382.812 -76.172 -382.812c0 0 -154.297 0 -154.297 0c0 0 0 0 0 0m3.906 -31.25c0 0 142.579 0 142.579 0c0 0 -78.125 -64.453 -78.125 -64.453c0 0 -64.454 64.453 -64.454 64.453m1.954 -156.25c0 0 60.546 50.781 60.546 50.781c0 0 50.782 -50.781 50.782 -50.781c0 0 -111.328 0 -111.328 0c0 0 0 0 0 0m83.984 70.312c0 0 80.078 66.407 80.078 66.407c0 0 70.313 -58.594 70.313 -58.594c0 0 -85.938 -70.313 -85.938 -70.313c0 0 -64.453 62.5 -64.453 62.5m95.703 117.188c0 0 78.125 388.672 78.125 388.672c0 0 78.125 -388.672 78.125 -388.672c0 0 -156.25 0 -156.25 0c0 0 0 0 0 0m7.813 -31.25c0 0 140.625 0 140.625 0c0 0 -70.313 -56.641 -70.313 -56.641c0 0 -70.312 56.641 -70.312 56.641m0 -156.25c0 0 70.312 58.594 70.312 58.594c0 0 68.359 -58.594 68.359 -58.594c0 0 -138.671 0 -138.671 0c0 0 0 0 0 0m95.703 78.125c0 0 68.359 58.594 68.359 58.594c0 0 80.078 -66.407 80.078 -66.407c0 0 -64.453 -62.5 -64.453 -62.5c0 0 -83.984 70.313 -83.984 70.313m7.812 492.187c0 0 230.469 -382.812 230.469 -382.812c0 0 -154.297 0 -154.297 0c0 0 -76.172 382.812 -76.172 382.812m70.313 -54.687c0 0 306.64 -328.125 306.64 -328.125c0 0 -111.328 0 -111.328 0c0 0 -195.312 328.125 -195.312 328.125m13.672 -359.375c0 0 142.578 0 142.578 0c0 0 -64.453 -64.453 -64.453 -64.453c0 0 -78.125 64.453 -78.125 64.453m29.296 -156.25c0 0 50.782 50.781 50.782 50.781c0 0 60.546 -50.781 60.546 -50.781c0 0 -111.328 0 -111.328 0c0 0 0 0 0 0m72.266 72.265c0 0 83.984 83.985 83.984 83.985c0 0 132.813 0 132.813 0c0 0 -144.531 -144.531 -144.531 -144.531c0 0 -72.266 60.546 -72.266 60.546" />
  </g>
</svg>