<svg height="1000" width="1000" xmlns="http://www.w3.org/2000/svg"><path d="M0 875.008v-624.96q0-39.06 27.342-66.402t66.402-27.342h31.248v-62.496q0-39.06 27.342-66.402t66.402-27.342h687.456q39.06 0 66.402 27.342t27.342 66.402v781.2q0 52.731-36.13 88.862t-88.862 36.13h-749.952q-52.731 0-88.862-36.13t-36.13-88.862zm62.496 0q0 25.389 18.553 43.943t43.943 18.553h749.952q25.389 0 43.943-18.553t18.553-43.943v-781.2q0-13.671-8.789-22.46t-22.46-8.789h-687.456q-13.671 0-22.46 8.789t-8.789 22.46v749.952q0 13.671-8.789 22.46t-22.46 8.789-22.46-8.789-8.789-22.46v-624.96h-31.248q-13.671 0-22.46 8.789t-8.789 22.46v624.96zm187.488-15.624q0-15.624 15.624-15.624h249.984q15.624 0 15.624 15.624t-15.624 15.624h-249.984q-15.624 0-15.624-15.624zm0-93.744q0-15.624 15.624-15.624h249.984q15.624 0 15.624 15.624t-15.624 15.624h-249.984q-15.624 0-15.624-15.624zm0-93.744q0-15.624 15.624-15.624h249.984q15.624 0 15.624 15.624 0 5.859-4.883 10.742t-10.742 4.883h-249.984q-15.624 0-15.624-15.624zm0-93.744q0-15.624 15.624-15.624h593.712q15.624 0 15.624 15.624t-15.624 15.624h-593.712q-15.624 0-15.624-15.624zm0-93.744q0-15.624 15.624-15.624h593.712q15.624 0 15.624 15.624t-15.624 15.624h-593.712q-15.624 0-15.624-15.624zm0-109.368v-218.736q0-13.671 8.789-22.46t22.46-8.789h218.736q13.671 0 22.46 8.789t8.789 22.46v218.736q0 13.671-8.789 22.46t-22.46 8.789h-218.736q-13.671 0-22.46-8.789t-8.789-22.46zm62.496-31.248h156.24v-156.24h-156.24v156.24zm281.232 515.592q0-15.624 15.624-15.624h249.984q15.624 0 15.624 15.624t-15.624 15.624h-249.984q-15.624 0-15.624-15.624zm0-93.744q0-15.624 15.624-15.624h249.984q15.624 0 15.624 15.624t-15.624 15.624h-249.984q-15.624 0-15.624-15.624zm0-93.744q0-15.624 15.624-15.624h249.984q15.624 0 15.624 15.624 0 5.859-4.883 10.742t-10.742 4.883h-249.984q-15.624 0-15.624-15.624zm0-281.232q0-15.624 15.624-15.624h249.984q15.624 0 15.624 15.624t-15.624 15.624h-249.984q-15.624 0-15.624-15.624zm0-93.744q0-15.624 15.624-15.624h249.984q15.624 0 15.624 15.624t-15.624 15.624h-249.984q-15.624 0-15.624-15.624zm0-93.744q0-15.624 15.624-15.624h249.984q15.624 0 15.624 15.624t-15.624 15.624h-249.984q-15.624 0-15.624-15.624z"/></svg>