<svg height="1000" width="1000" xmlns="http://www.w3.org/2000/svg"><path d="M0 875.008l0 -624.96q0 -39.06 27.342 -66.402t66.402 -27.342l31.248 0l0 -62.496q0 -39.06 27.342 -66.402t66.402 -27.342l687.456 0q39.06 0 66.402 27.342t27.342 66.402l0 781.2q0 52.731 -36.13 88.862t-88.862 36.13l-749.952 0q-52.731 0 -88.862 -36.13t-36.13 -88.862zm62.496 0q0 25.389 18.553 43.943t43.943 18.553l749.952 0q25.389 0 43.943 -18.553t18.553 -43.943l0 -781.2q0 -13.671 -8.789 -22.46t-22.46 -8.789l-687.456 0q-13.671 0 -22.46 8.789t-8.789 22.46l0 749.952q0 13.671 -8.789 22.46t-22.46 8.789 -22.46 -8.789 -8.789 -22.46l0 -624.96l-31.248 0q-13.671 0 -22.46 8.789t-8.789 22.46l0 624.96zm187.488 -15.624q0 -15.624 15.624 -15.624l249.984 0q15.624 0 15.624 15.624t-15.624 15.624l-249.984 0q-15.624 0 -15.624 -15.624zm0 -93.744q0 -15.624 15.624 -15.624l249.984 0q15.624 0 15.624 15.624t-15.624 15.624l-249.984 0q-15.624 0 -15.624 -15.624zm0 -93.744q0 -15.624 15.624 -15.624l249.984 0q15.624 0 15.624 15.624 0 5.859 -4.883 10.742t-10.742 4.883l-249.984 0q-15.624 0 -15.624 -15.624zm0 -93.744q0 -15.624 15.624 -15.624l593.712 0q15.624 0 15.624 15.624t-15.624 15.624l-593.712 0q-15.624 0 -15.624 -15.624zm0 -93.744q0 -15.624 15.624 -15.624l593.712 0q15.624 0 15.624 15.624t-15.624 15.624l-593.712 0q-15.624 0 -15.624 -15.624zm0 -109.368l0 -218.736q0 -13.671 8.789 -22.46t22.46 -8.789l218.736 0q13.671 0 22.46 8.789t8.789 22.46l0 218.736q0 13.671 -8.789 22.46t-22.46 8.789l-218.736 0q-13.671 0 -22.46 -8.789t-8.789 -22.46zm62.496 -31.248l156.24 0l0 -156.24l-156.24 0l0 156.24zm281.232 515.592q0 -15.624 15.624 -15.624l249.984 0q15.624 0 15.624 15.624t-15.624 15.624l-249.984 0q-15.624 0 -15.624 -15.624zm0 -93.744q0 -15.624 15.624 -15.624l249.984 0q15.624 0 15.624 15.624t-15.624 15.624l-249.984 0q-15.624 0 -15.624 -15.624zm0 -93.744q0 -15.624 15.624 -15.624l249.984 0q15.624 0 15.624 15.624 0 5.859 -4.883 10.742t-10.742 4.883l-249.984 0q-15.624 0 -15.624 -15.624zm0 -281.232q0 -15.624 15.624 -15.624l249.984 0q15.624 0 15.624 15.624t-15.624 15.624l-249.984 0q-15.624 0 -15.624 -15.624zm0 -93.744q0 -15.624 15.624 -15.624l249.984 0q15.624 0 15.624 15.624t-15.624 15.624l-249.984 0q-15.624 0 -15.624 -15.624zm0 -93.744q0 -15.624 15.624 -15.624l249.984 0q15.624 0 15.624 15.624t-15.624 15.624l-249.984 0q-15.624 0 -15.624 -15.624z"/></svg>