<svg height="1000px" width="1000px" xmlns="http://www.w3.org/2000/svg">
  <g>
    <path d="M0 875c0 0 0 -625 0 -625c0 -26.042 9.115 -48.177 27.344 -66.406c18.229 -18.229 40.364 -27.344 66.406 -27.344c0 0 31.25 0 31.25 0c0 0 0 -62.5 0 -62.5c0 -26.042 9.115 -48.177 27.344 -66.406c18.229 -18.229 40.364 -27.344 66.406 -27.344c0 0 687.5 0 687.5 0c26.042 0 48.177 9.115 66.406 27.344c18.229 18.229 27.344 40.364 27.344 66.406c0 0 0 781.25 0 781.25c0 35.156 -12.044 64.779 -36.133 88.867c-24.088 24.089 -53.711 36.133 -88.867 36.133c0 0 -750 0 -750 0c-35.156 0 -64.779 -12.044 -88.867 -36.133c-24.089 -24.088 -36.133 -53.711 -36.133 -88.867c0 0 0 0 0 0m62.5 0c0 16.927 6.185 31.576 18.555 43.945c12.369 12.37 27.018 18.555 43.945 18.555c0 0 750 0 750 0c16.927 0 31.576 -6.185 43.945 -18.555c12.37 -12.369 18.555 -27.018 18.555 -43.945c0 0 0 -781.25 0 -781.25c0 -9.115 -2.93 -16.602 -8.789 -22.461c-5.859 -5.859 -13.346 -8.789 -22.461 -8.789c0 0 -687.5 0 -687.5 0c-9.115 0 -16.602 2.93 -22.461 8.789c-5.859 5.859 -8.789 13.346 -8.789 22.461c0 0 0 750 0 750c0 9.115 -2.93 16.602 -8.789 22.461c-5.859 5.859 -13.346 8.789 -22.461 8.789c-9.115 0 -16.602 -2.93 -22.461 -8.789c-5.859 -5.859 -8.789 -13.346 -8.789 -22.461c0 0 0 -625 0 -625c0 0 -31.25 0 -31.25 0c-9.115 0 -16.602 2.93 -22.461 8.789c-5.859 5.859 -8.789 13.346 -8.789 22.461c0 0 0 625 0 625c0 0 0 0 0 0m187.5 -15.625c0 -10.417 5.208 -15.625 15.625 -15.625c0 0 250 0 250 0c10.417 0 15.625 5.208 15.625 15.625c0 10.417 -5.208 15.625 -15.625 15.625c0 0 -250 0 -250 0c-10.417 0 -15.625 -5.208 -15.625 -15.625c0 0 0 0 0 0m0 -93.75c0 -10.417 5.208 -15.625 15.625 -15.625c0 0 250 0 250 0c10.417 0 15.625 5.208 15.625 15.625c0 10.417 -5.208 15.625 -15.625 15.625c0 0 -250 0 -250 0c-10.417 0 -15.625 -5.208 -15.625 -15.625c0 0 0 0 0 0m0 -93.75c0 -10.417 5.208 -15.625 15.625 -15.625c0 0 250 0 250 0c10.417 0 15.625 5.208 15.625 15.625c0 3.906 -1.628 7.487 -4.883 10.742c-3.255 3.255 -6.836 4.883 -10.742 4.883c0 0 -250 0 -250 0c-10.417 0 -15.625 -5.208 -15.625 -15.625c0 0 0 0 0 0m0 -93.75c0 -10.417 5.208 -15.625 15.625 -15.625c0 0 593.75 0 593.75 0c10.417 0 15.625 5.208 15.625 15.625c0 10.417 -5.208 15.625 -15.625 15.625c0 0 -593.75 0 -593.75 0c-10.417 0 -15.625 -5.208 -15.625 -15.625c0 0 0 0 0 0m0 -93.75c0 -10.417 5.208 -15.625 15.625 -15.625c0 0 593.75 0 593.75 0c10.417 0 15.625 5.208 15.625 15.625c0 10.417 -5.208 15.625 -15.625 15.625c0 0 -593.75 0 -593.75 0c-10.417 0 -15.625 -5.208 -15.625 -15.625c0 0 0 0 0 0m0 -109.375c0 0 0 -218.75 0 -218.75c0 -9.115 2.93 -16.602 8.789 -22.461c5.859 -5.859 13.346 -8.789 22.461 -8.789c0 0 218.75 0 218.75 0c9.115 0 16.602 2.93 22.461 8.789c5.859 5.859 8.789 13.346 8.789 22.461c0 0 0 218.75 0 218.75c0 9.115 -2.93 16.602 -8.789 22.461c-5.859 5.859 -13.346 8.789 -22.461 8.789c0 0 -218.75 0 -218.75 0c-9.115 0 -16.602 -2.93 -22.461 -8.789c-5.859 -5.859 -8.789 -13.346 -8.789 -22.461c0 0 0 0 0 0m62.5 -31.25c0 0 156.25 0 156.25 0c0 0 0 -156.25 0 -156.25c0 0 -156.25 0 -156.25 0c0 0 0 156.25 0 156.25c0 0 0 0 0 0m281.25 515.625c0 -10.417 5.208 -15.625 15.625 -15.625c0 0 250 0 250 0c10.417 0 15.625 5.208 15.625 15.625c0 10.417 -5.208 15.625 -15.625 15.625c0 0 -250 0 -250 0c-10.417 0 -15.625 -5.208 -15.625 -15.625c0 0 0 0 0 0m0 -93.75c0 -10.417 5.208 -15.625 15.625 -15.625c0 0 250 0 250 0c10.417 0 15.625 5.208 15.625 15.625c0 10.417 -5.208 15.625 -15.625 15.625c0 0 -250 0 -250 0c-10.417 0 -15.625 -5.208 -15.625 -15.625c0 0 0 0 0 0m0 -93.75c0 -10.417 5.208 -15.625 15.625 -15.625c0 0 250 0 250 0c10.417 0 15.625 5.208 15.625 15.625c0 3.906 -1.628 7.487 -4.883 10.742c-3.255 3.255 -6.836 4.883 -10.742 4.883c0 0 -250 0 -250 0c-10.417 0 -15.625 -5.208 -15.625 -15.625c0 0 0 0 0 0m0 -281.25c0 -10.417 5.208 -15.625 15.625 -15.625c0 0 250 0 250 0c10.417 0 15.625 5.208 15.625 15.625c0 10.417 -5.208 15.625 -15.625 15.625c0 0 -250 0 -250 0c-10.417 0 -15.625 -5.208 -15.625 -15.625c0 0 0 0 0 0m0 -93.75c0 -10.417 5.208 -15.625 15.625 -15.625c0 0 250 0 250 0c10.417 0 15.625 5.208 15.625 15.625c0 10.417 -5.208 15.625 -15.625 15.625c0 0 -250 0 -250 0c-10.417 0 -15.625 -5.208 -15.625 -15.625c0 0 0 0 0 0m0 -93.75c0 -10.417 5.208 -15.625 15.625 -15.625c0 0 250 0 250 0c10.417 0 15.625 5.208 15.625 15.625c0 10.417 -5.208 15.625 -15.625 15.625c0 0 -250 0 -250 0c-10.417 0 -15.625 -5.208 -15.625 -15.625c0 0 0 0 0 0" />
  </g>
</svg>