<svg height="1000" width="998" xmlns="http://www.w3.org/2000/svg"><path d="M0 508.82l0 -17.577q0 -.977 1.953 -2.929l0 -3.906q70.308 -130.851 206.042 -213.853t290.021 -83.002 290.997 83.002 205.065 215.806l.977 .977 .977 .977l0 3.906q1.953 5.859 1.953 7.812t-1.953 7.812l0 3.906l-.977 .977 -.977 .977q-68.355 132.804 -205.065 215.806t-290.997 83.002 -290.021 -83.002 -206.042 -215.806l0 -1.953q-1.953 -1.953 -1.953 -2.929zm66.402 -8.789q64.449 113.274 182.606 181.629t249.984 68.355 249.984 -68.355 182.606 -181.629q-64.449 -113.274 -182.606 -181.629t-249.984 -68.355 -249.984 68.355 -182.606 181.629zm212.877 0q0 -89.838 64.449 -154.287t154.287 -64.449 154.287 64.449 64.449 154.287 -64.449 154.287 -154.287 64.449 -154.287 -64.449 -64.449 -154.287zm31.248 0q0 78.12 54.684 132.804t132.804 54.684 132.804 -54.684 54.684 -132.804 -54.684 -132.804 -132.804 -54.684 -132.804 54.684 -54.684 132.804zm62.496 0q0 -52.731 37.107 -88.862t87.885 -36.13q15.624 0 15.624 15.624t-15.624 15.624q-37.107 0 -65.425 27.342t-28.319 66.402q0 15.624 -15.624 15.624t-15.624 -15.624z"/></svg>