<svg height="1000px" width="1000px" xmlns="http://www.w3.org/2000/svg">
  <g>
    <path d="M1.953125 508.7890625c0 0 0 -2.93 0 -2.93c0 0 0 -5.859 0 -5.859c0 0 0 -7.813 0 -7.813c0 0 0 -0.976 0 -0.976c0 -0.651 0.651 -1.628 1.953 -2.93c0 0 0 -1.953 0 -1.953c0 0 0 -1.953 0 -1.953c46.875 -87.24 115.56 -158.529 206.055 -213.867c90.495 -55.339 187.174 -83.008 290.039 -83.008c102.864 0 199.87 27.669 291.015 83.008c91.146 55.338 159.506 127.278 205.079 215.82c0 0 0.976 0.977 0.976 0.977c0 0 0.977 0.976 0.977 0.976c0 0 0 2.93 0 2.93c0 0 0 0.976 0 0.976c1.302 3.907 1.953 6.511 1.953 7.813c0 1.302 -0.651 3.906 -1.953 7.812c0 0 0 0.977 0 0.977c0 0 0 2.93 0 2.93c0 0 -0.977 0.976 -0.977 0.976c0 0 -0.976 0.977 -0.976 0.977c-45.573 88.541 -113.933 160.482 -205.079 215.82c-91.145 55.339 -188.151 83.008 -291.015 83.008c-102.865 0 -199.544 -27.669 -290.039 -83.008c-90.495 -55.338 -159.18 -127.279 -206.055 -215.82c0 0 0 -1.953 0 -1.953c-1.302 -1.302 -1.953 -2.279 -1.953 -2.93c0 0 0 0 0 0m66.406 -8.789c42.969 75.521 103.841 136.068 182.617 181.641c78.776 45.572 162.11 68.359 250 68.359c87.891 0 171.224 -22.787 250 -68.359c78.776 -45.573 139.649 -106.12 182.618 -181.641c-42.969 -75.521 -103.842 -136.068 -182.618 -181.641c-78.776 -45.573 -162.109 -68.359 -250 -68.359c-87.89 0 -171.224 22.786 -250 68.359c-78.776 45.573 -139.648 106.12 -182.617 181.641c0 0 0 0 0 0m212.891 0c0 -59.896 21.484 -111.328 64.453 -154.297c42.969 -42.969 94.401 -64.453 154.297 -64.453c59.896 0 111.328 21.484 154.297 64.453c42.968 42.969 64.453 94.401 64.453 154.297c0 59.896 -21.485 111.328 -64.453 154.297c-42.969 42.969 -94.401 64.453 -154.297 64.453c-59.896 0 -111.328 -21.484 -154.297 -64.453c-42.969 -42.969 -64.453 -94.401 -64.453 -154.297c0 0 0 0 0 0m31.25 0c0 52.083 18.229 96.354 54.687 132.812c36.459 36.459 80.73 54.688 132.813 54.688c52.083 0 96.354 -18.229 132.812 -54.688c36.459 -36.458 54.688 -80.729 54.688 -132.812c0 -52.083 -18.229 -96.354 -54.688 -132.813c-36.458 -36.458 -80.729 -54.687 -132.812 -54.687c-52.083 0 -96.354 18.229 -132.813 54.687c-36.458 36.459 -54.687 80.73 -54.687 132.813c0 0 0 0 0 0m62.5 0c0 -35.156 12.37 -64.779 37.109 -88.867c24.74 -24.089 54.037 -36.133 87.891 -36.133c10.417 0 15.625 5.208 15.625 15.625c0 10.417 -5.208 15.625 -15.625 15.625c-24.74 0 -46.55 9.115 -65.43 27.344c-18.88 18.229 -28.32 40.364 -28.32 66.406c0 10.417 -5.208 15.625 -15.625 15.625c-10.417 0 -15.625 -5.208 -15.625 -15.625c0 0 0 0 0 0" />
  </g>
</svg>