<svg height="1000px" width="1000px" xmlns="http://www.w3.org/2000/svg">
  <g>
    <path d="M156.25 714.84375c0 -50.781 5.859 -106.445 17.578 -166.992c11.719 -60.547 22.787 -112.63 33.203 -156.25c10.417 -43.62 14.974 -100.261 13.672 -169.922c-1.302 -69.662 -12.37 -143.555 -33.203 -221.68c0 0 19.531 13.672 19.531 13.672c13.021 9.115 29.948 23.763 50.781 43.945c20.834 20.183 42.318 43.295 64.454 69.336c22.135 26.042 43.619 58.269 64.453 96.68c20.833 38.412 37.109 77.8 48.828 118.164c41.667 -62.5 63.151 -124.349 64.453 -185.547c0 0 31.25 35.156 31.25 35.156c19.531 23.438 39.714 58.594 60.547 105.469c20.833 46.875 31.25 93.099 31.25 138.672c0 0 15.625 -19.531 15.625 -19.531c10.417 -14.323 21.159 -34.18 32.226 -59.57c11.068 -25.391 16.602 -50.456 16.602 -75.196c63.802 79.427 108.724 163.086 134.766 250.977c26.041 87.89 29.297 170.898 9.765 249.023c-9.114 33.854 -19.531 61.849 -31.25 83.985c-11.718 22.135 -30.273 44.596 -55.664 67.382c-25.39 22.787 -60.872 39.714 -106.445 50.782c-45.573 11.067 -102.214 16.601 -169.922 16.601c-91.146 0 -166.016 -28.32 -224.609 -84.961c-58.594 -56.64 -87.891 -123.372 -87.891 -200.195c0 0 0 0 0 0m62.5 0c0 58.594 23.112 110.352 69.336 155.273c46.224 44.922 106.445 67.383 180.664 67.383c49.479 0 92.448 -3.58 128.906 -10.742c36.459 -7.161 64.453 -15.625 83.985 -25.391c19.531 -9.765 35.807 -23.763 48.828 -41.992c13.021 -18.229 21.81 -32.877 26.367 -43.945c4.557 -11.068 9.44 -27.669 14.648 -49.805c26.042 -105.469 4.558 -220.052 -64.453 -343.75c-40.364 69.011 -88.541 126.302 -144.531 171.875c0 -61.198 -3.581 -119.791 -10.742 -175.781c-7.162 -55.99 -15.3 -93.75 -24.414 -113.281c-15.625 39.062 -53.386 100.911 -113.282 185.547c0 -5.209 -3.906 -22.136 -11.718 -50.782c-7.813 -28.645 -22.461 -69.336 -43.946 -122.07c-21.484 -52.734 -46.549 -98.633 -75.195 -137.695c5.208 83.333 -5.859 186.849 -33.203 310.547c-20.833 95.052 -31.25 169.921 -31.25 224.609c0 0 0 0 0 0m50.781 23.437c0 -97.656 13.672 -185.546 41.016 -263.671c0 0 15.625 -46.875 15.625 -46.875c0 0 15.625 41.015 15.625 41.015c13.021 37.761 35.156 92.448 66.406 164.063c13.021 -19.532 29.297 -44.271 48.828 -74.219c0 0 46.875 -74.219 46.875 -74.219c0 0 0 52.735 0 52.735c0 44.27 7.813 89.192 23.438 134.765c26.041 -13.021 48.828 -26.692 68.359 -41.015c19.531 -14.323 33.854 -26.368 42.969 -36.133c9.114 -9.766 20.833 -23.112 35.156 -40.039c0 0 27.344 -29.297 27.344 -29.297c0 0 5.859 31.25 5.859 31.25c14.323 79.427 7.813 152.344 -19.531 218.75c-2.604 6.51 -7.161 9.765 -13.672 9.765c-2.604 0 -4.557 -0.651 -5.859 -1.953c-9.115 -3.906 -11.719 -10.416 -7.813 -19.531c18.229 -48.177 24.74 -104.167 19.531 -167.969c-39.062 44.271 -90.494 82.032 -154.296 113.282c0 0 -15.625 5.859 -15.625 5.859c0 0 -5.86 -15.625 -5.86 -15.625c-15.625 -44.271 -24.739 -81.38 -27.344 -111.328c-20.833 29.948 -40.364 57.943 -58.593 83.984c0 0 -15.625 21.485 -15.625 21.485c0 0 -11.719 -23.438 -11.719 -23.438c-28.646 -65.104 -50.13 -114.583 -64.453 -148.437c-16.927 55.989 -25.391 128.255 -25.391 216.796c0 10.417 -5.208 15.625 -15.625 15.625c-10.416 0 -15.625 -5.208 -15.625 -15.625c0 0 0 0 0 0" />
  </g>
</svg>