<svg height="1000" width="688" xmlns="http://www.w3.org/2000/svg"><path d="M0 714.862q0 -76.167 17.577 -166.982t33.201 -156.24 13.671 -169.911 -33.201 -221.666l19.53 13.671q19.53 13.671 50.778 43.943t64.449 69.332 64.449 96.674 48.825 118.157q62.496 -93.744 64.449 -185.535l31.248 35.154q29.295 35.154 60.543 105.462t31.248 138.663l15.624 -19.53q15.624 -21.483 32.224 -59.567t16.601 -75.191q95.697 119.133 134.757 250.96t9.765 249.008q-13.671 50.778 -31.248 83.979t-55.66 67.379 -106.439 50.778 -169.911 16.601q-136.71 0 -224.595 -84.956t-87.885 -200.183zm62.496 0q0 87.885 69.332 155.263t180.653 67.379q74.214 0 128.898 -10.742t83.979 -25.389 48.825 -41.989 26.366 -43.943 14.648 -49.802q39.06 -158.193 -64.449 -343.728 -60.543 103.509 -144.522 171.864 0 -91.791 -10.742 -175.77t-24.413 -113.274q-23.436 58.59 -113.274 185.535 0 -7.812 -11.718 -50.778t-43.943 -122.063 -75.191 -137.686q7.812 124.992 -33.201 310.527 -31.248 142.569 -31.248 224.595zm50.778 23.436q0 -146.475 41.013 -263.655l15.624 -46.872 15.624 41.013q19.53 56.637 66.402 164.052 19.53 -29.295 48.825 -74.214l46.872 -74.214l0 52.731q0 66.402 23.436 134.757 39.06 -19.53 68.355 -41.013t42.966 -36.13 35.154 -40.037l27.342 -29.295 5.859 31.248q21.483 119.133 -19.53 218.736 -3.906 9.765 -13.671 9.765 -3.906 0 -5.859 -1.953 -13.671 -5.859 -7.812 -19.53 27.342 -72.261 19.53 -167.958 -58.59 66.402 -154.287 113.274l-15.624 5.859 -5.859 -15.624q-23.436 -66.402 -27.342 -111.321 -31.248 44.919 -58.59 83.979l-15.624 21.483 -11.718 -23.436q-42.966 -97.65 -64.449 -148.428 -25.389 83.979 -25.389 216.783 0 15.624 -15.624 15.624t-15.624 -15.624z"/></svg>