<svg height="1000" width="1000" xmlns="http://www.w3.org/2000/svg"><path d="M0 734.392q0 -33.201 22.46 -55.66t55.66 -22.46l83.979 0q21.483 -121.086 117.18 -201.159t220.689 -80.073q101.556 0 185.535 54.684t126.945 144.522l142.569 -70.308q11.718 -5.859 23.436 -1.953t17.577 15.624 1.953 23.436 -15.624 17.577l-150.381 76.167q3.906 11.718 5.859 21.483l83.979 0q33.201 0 55.66 22.46t22.46 55.66q0 23.436 -15.624 41.013l-109.368 123.039l0 23.436q0 33.201 -22.46 55.66t-55.66 22.46l-593.712 0q-33.201 0 -55.66 -22.46t-22.46 -55.66l0 -23.436l-109.368 -123.039q-15.624 -17.577 -15.624 -41.013zm62.496 0l124.992 140.616l0 46.872q0 15.624 15.624 15.624l593.712 0q15.624 0 15.624 -15.624l0 -46.872l124.992 -140.616q0 -15.624 -15.624 -15.624l-843.696 0q-15.624 0 -15.624 15.624zm130.851 -78.12l33.201 0q21.483 -95.697 97.65 -157.216t175.77 -61.52q83.979 0 153.311 45.895t102.532 120.11l27.342 -15.624q-37.107 -82.026 -113.274 -131.828t-169.911 -49.802q-111.321 0 -198.23 71.285t-108.392 178.7zm54.684 -290.997q-15.624 -39.06 15.624 -113.274 25.389 -60.543 13.671 -89.838l-1.953 0l0 -5.859q0 -15.624 15.624 -15.624 9.765 0 13.671 9.765 17.577 41.013 -13.671 113.274 -25.389 62.496 -11.718 91.791l0 3.906q0 15.624 -15.624 15.624 -9.765 0 -13.671 -7.812l0 -1.953l-1.953 0zm9.765 290.997l33.201 0q19.53 -68.355 77.144 -112.297t131.828 -43.943q66.402 0 120.11 36.13t79.097 94.721l29.295 -13.671q-31.248 -66.402 -92.767 -107.415t-135.733 -41.013q-85.932 0 -153.311 52.731t-88.862 134.757zm66.402 0l33.201 0q17.577 -42.966 56.637 -68.355t85.932 -25.389 85.932 25.389 56.637 68.355l5.859 0l23.436 -11.718q-21.483 -50.778 -68.355 -82.026t-103.509 -31.248q-60.543 0 -108.392 35.154t-67.379 89.838zm68.355 0l37.107 0q29.295 -31.248 70.308 -31.248t68.355 31.248l39.06 0q-37.107 -62.496 -107.415 -62.496t-107.415 62.496zm76.167 -429.66l0 -1.953q-15.624 -39.06 13.671 -113.274 27.342 -60.543 13.671 -89.838l0 -5.859q0 -15.624 13.671 -15.624 11.718 0 15.624 9.765 17.577 41.013 -13.671 113.274 -25.389 62.496 -13.671 91.791 1.953 1.953 1.953 3.906 0 15.624 -15.624 15.624 -9.765 0 -15.624 -7.812zm160.146 134.757l0 -1.953q-15.624 -39.06 15.624 -111.321 25.389 -62.496 11.718 -89.838l0 -5.859q0 -15.624 15.624 -15.624 9.765 0 13.671 9.765 17.577 39.06 -13.671 113.274 -25.389 60.543 -13.671 89.838l0 1.953q1.953 1.953 1.953 3.906 0 15.624 -15.624 15.624 -9.765 0 -13.671 -9.765l-1.953 0zm160.146 294.903l17.577 0q0 -1.953 -.977 -3.906t-.977 -3.906z"/></svg>