<svg height="1000px" width="1000px" xmlns="http://www.w3.org/2000/svg">
  <g>
    <path d="M0 734.375c0 -22.135 7.487 -40.69 22.461 -55.664c14.974 -14.974 33.529 -22.461 55.664 -22.461c0 0 83.984 0 83.984 0c14.323 -80.729 53.386 -147.786 117.188 -201.172c63.802 -53.385 137.37 -80.078 220.703 -80.078c67.708 0 129.557 18.229 185.547 54.688c55.989 36.458 98.307 84.635 126.953 144.531c0 0 142.578 -70.313 142.578 -70.313c7.813 -3.906 15.625 -4.557 23.438 -1.953c7.812 2.604 13.672 7.813 17.578 15.625c3.906 7.813 4.557 15.625 1.953 23.438c-2.604 7.812 -7.813 13.671 -15.625 17.578c0 0 -150.391 76.172 -150.391 76.172c2.604 7.812 4.558 14.974 5.86 21.484c0 0 83.984 0 83.984 0c22.135 0 40.69 7.487 55.664 22.461c14.974 14.974 22.461 33.529 22.461 55.664c0 15.625 -5.208 29.297 -15.625 41.016c0 0 -109.375 123.046 -109.375 123.046c0 0 0 23.438 0 23.438c0 22.135 -7.487 40.69 -22.461 55.664c-14.974 14.974 -33.529 22.461 -55.664 22.461c0 0 -593.75 0 -593.75 0c-22.135 0 -40.69 -7.487 -55.664 -22.461c-14.974 -14.974 -22.461 -33.529 -22.461 -55.664c0 0 0 -23.438 0 -23.438c0 0 -109.375 -123.046 -109.375 -123.046c-10.417 -11.719 -15.625 -25.391 -15.625 -41.016c0 0 0 0 0 0m62.5 0c0 0 125 140.625 125 140.625c0 0 0 46.875 0 46.875c0 10.417 5.208 15.625 15.625 15.625c0 0 593.75 0 593.75 0c10.417 0 15.625 -5.208 15.625 -15.625c0 0 0 -46.875 0 -46.875c0 0 125 -140.625 125 -140.625c0 -10.417 -5.208 -15.625 -15.625 -15.625c0 0 -78.125 0 -78.125 0c0 0 -31.25 0 -31.25 0c0 0 -31.25 0 -31.25 0c0 0 -31.25 0 -31.25 0c0 0 -31.25 0 -31.25 0c0 0 -31.25 0 -31.25 0c0 0 -31.25 0 -31.25 0c0 0 -31.25 0 -31.25 0c0 0 -31.25 0 -31.25 0c0 0 -187.5 0 -187.5 0c0 0 -31.25 0 -31.25 0c0 0 -31.25 0 -31.25 0c0 0 -31.25 0 -31.25 0c0 0 -31.25 0 -31.25 0c0 0 -31.25 0 -31.25 0c0 0 -31.25 0 -31.25 0c0 0 -31.25 0 -31.25 0c0 0 -31.25 0 -31.25 0c0 0 -78.125 0 -78.125 0c-10.417 0 -15.625 5.208 -15.625 15.625c0 0 0 0 0 0m130.859 -78.125c0 0 33.203 0 33.203 0c14.323 -63.802 46.875 -116.211 97.657 -157.227c50.781 -41.015 109.375 -61.523 175.781 -61.523c55.99 0 107.096 15.299 153.32 45.898c46.224 30.599 80.404 70.638 102.539 120.118c0 0 27.344 -15.625 27.344 -15.625c-24.739 -54.688 -62.5 -98.633 -113.281 -131.836c-50.781 -33.203 -107.422 -49.805 -169.922 -49.805c-74.219 0 -140.299 23.763 -198.242 71.289c-57.943 47.526 -94.076 107.096 -108.399 178.711c0 0 0 0 0 0m54.688 -291.016c-10.417 -26.041 -5.208 -63.802 15.625 -113.281c16.927 -40.364 21.484 -70.312 13.672 -89.844c0 0 -1.953 0 -1.953 0c0 0 0 -5.859 0 -5.859c0 -10.417 5.208 -15.625 15.625 -15.625c6.51 0 11.067 3.255 13.671 9.766c11.719 27.343 7.162 65.104 -13.671 113.281c-16.927 41.667 -20.834 72.266 -11.719 91.797c0 0 0 3.906 0 3.906c0 10.417 -5.208 15.625 -15.625 15.625c-6.511 0 -11.068 -2.604 -13.672 -7.812c0 0 0 -1.954 0 -1.954c0 0 -1.953 0 -1.953 0c0 0 0 0 0 0m9.765 291.016c0 0 33.204 0 33.204 0c13.02 -45.573 38.737 -83.008 77.148 -112.305c38.412 -29.297 82.357 -43.945 131.836 -43.945c44.271 0 84.31 12.044 120.117 36.133c35.807 24.088 62.175 55.664 79.102 94.726c0 0 29.297 -13.671 29.297 -13.671c-20.834 -44.271 -51.758 -80.079 -92.774 -107.422c-41.015 -27.344 -86.263 -41.016 -135.742 -41.016c-57.292 0 -108.398 17.578 -153.32 52.734c-44.922 35.157 -74.545 80.079 -88.868 134.766c0 0 0 0 0 0m66.407 0c0 0 33.203 0 33.203 0c11.719 -28.646 30.599 -51.432 56.64 -68.359c26.042 -16.927 54.688 -25.391 85.938 -25.391c31.25 0 59.896 8.464 85.937 25.391c26.042 16.927 44.922 39.713 56.641 68.359c0 0 5.859 0 5.859 0c0 0 23.438 -11.719 23.438 -11.719c-14.323 -33.854 -37.109 -61.198 -68.359 -82.031c-31.25 -20.833 -65.756 -31.25 -103.516 -31.25c-40.365 0 -76.497 11.719 -108.398 35.156c-31.901 23.438 -54.362 53.386 -67.383 89.844c0 0 0 0 0 0m68.359 0c0 0 37.109 0 37.109 0c19.532 -20.833 42.969 -31.25 70.313 -31.25c27.344 0 50.13 10.417 68.359 31.25c0 0 39.063 0 39.063 0c-24.74 -41.667 -60.547 -62.5 -107.422 -62.5c-46.875 0 -82.682 20.833 -107.422 62.5c0 0 0 0 0 0m76.172 -429.687c0 0 0 -1.954 0 -1.954c-10.417 -26.041 -5.859 -63.802 13.672 -113.281c18.229 -40.364 22.786 -70.312 13.672 -89.844c0 0 0 -5.859 0 -5.859c0 -10.417 4.557 -15.625 13.672 -15.625c7.812 0 13.02 3.255 15.625 9.766c11.718 27.343 7.161 65.104 -13.672 113.281c-16.927 41.667 -21.485 72.266 -13.672 91.797c1.302 1.302 1.953 2.604 1.953 3.906c0 10.417 -5.208 15.625 -15.625 15.625c-6.51 0 -11.719 -2.604 -15.625 -7.812c0 0 0 0 0 0m160.156 134.765c0 0 0 -1.953 0 -1.953c-10.416 -26.042 -5.208 -63.151 15.625 -111.328c16.927 -41.667 20.834 -71.615 11.719 -89.844c0 0 0 -1.953 0 -1.953c0 0 0 -3.906 0 -3.906c0 -10.417 5.208 -15.625 15.625 -15.625c6.51 0 11.068 3.255 13.672 9.765c11.719 26.042 7.161 63.802 -13.672 113.282c-16.927 40.364 -21.484 70.312 -13.672 89.843c0 0 0 1.954 0 1.954c1.302 1.302 1.953 2.604 1.953 3.906c0 10.416 -5.208 15.625 -15.625 15.625c-6.51 0 -11.067 -3.255 -13.672 -9.766c0 0 -1.953 0 -1.953 0c0 0 0 0 0 0m160.157 294.922c0 0 17.578 0 17.578 0c0 -1.302 -0.326 -2.604 -0.977 -3.906c-0.651 -1.302 -0.977 -2.604 -0.976 -3.906c0 0 -15.625 7.812 -15.625 7.812" />
  </g>
</svg>