<svg height="1000px" width="1000px" xmlns="http://www.w3.org/2000/svg">
  <g>
    <path d="M0 484.375c0 -134.115 47.201 -248.372 141.602 -342.773c94.401 -94.401 208.658 -141.602 342.773 -141.602c134.115 0 248.372 47.201 342.773 141.602c94.401 94.401 141.602 208.658 141.602 342.773c0 134.115 -47.201 248.372 -141.602 342.773c-94.401 94.401 -208.658 141.602 -342.773 141.602c-134.115 0 -248.372 -47.201 -342.773 -141.602c-94.401 -94.401 -141.602 -208.658 -141.602 -342.773c0 0 0 0 0 0m62.5 15.625c5.208 110.677 46.875 205.078 125 283.203c35.156 -24.739 71.615 -44.922 109.375 -60.547c-28.646 -70.312 -44.271 -144.531 -46.875 -222.656c0 0 -187.5 0 -187.5 0c0 0 0 0 0 0m0 -31.25c0 0 187.5 0 187.5 0c2.604 -69.01 14.974 -134.115 37.109 -195.312c-41.666 -16.928 -80.729 -39.714 -117.187 -68.36c-67.708 75.521 -103.516 163.412 -107.422 263.672c0 0 0 0 0 0m128.906 -287.109c33.854 26.041 69.662 46.875 107.422 62.5c28.646 -67.709 67.708 -126.302 117.188 -175.782c-87.24 14.323 -162.11 52.084 -224.61 113.282c0 0 0 0 0 0m19.532 623.047c58.593 50.781 126.953 82.682 205.078 95.703c-42.969 -42.969 -78.125 -92.448 -105.469 -148.438c-35.156 13.021 -68.359 30.599 -99.609 52.735c0 0 0 0 0 0m70.312 -304.688c2.604 74.219 17.578 145.182 44.922 212.891c45.573 -14.323 93.099 -22.787 142.578 -25.391c0 0 0 -187.5 0 -187.5c0 0 -187.5 0 -187.5 0c0 0 0 0 0 0m0 -31.25c0 0 187.5 0 187.5 0c0 0 0 -156.25 0 -156.25c-52.083 -2.604 -102.865 -12.37 -152.344 -29.297c-20.833 58.594 -32.552 120.443 -35.156 185.547c0 0 0 0 0 0m46.875 -214.844c45.573 15.625 92.448 24.74 140.625 27.344c0 0 0 -218.75 0 -218.75c0 0 -1.953 0 -1.953 0c-59.896 50.781 -106.12 114.583 -138.672 191.406c0 0 0 0 0 0m11.719 486.328c32.552 66.407 74.87 121.745 126.953 166.016c0 0 1.953 0 1.953 0c0 0 0 -187.5 0 -187.5c-45.573 2.604 -88.542 9.766 -128.906 21.484c0 0 0 0 0 0m160.156 166.016c0 0 1.953 0 1.953 0c52.083 -44.271 94.401 -99.609 126.953 -166.016c-40.364 -11.718 -83.333 -18.88 -128.906 -21.484c0 0 0 187.5 0 187.5c0 0 0 0 0 0m0 -218.75c49.479 2.604 97.005 11.068 142.578 25.391c27.344 -67.709 42.318 -138.672 44.922 -212.891c0 0 -187.5 0 -187.5 0c0 0 0 187.5 0 187.5c0 0 0 0 0 0m0 -218.75c0 0 187.5 0 187.5 0c-2.604 -65.104 -14.323 -126.953 -35.156 -185.547c-49.479 16.927 -100.261 26.693 -152.344 29.297c0 0 0 156.25 0 156.25c0 0 0 0 0 0m0 -187.5c48.177 -2.604 95.052 -11.719 140.625 -27.344c-32.552 -76.823 -78.776 -140.625 -138.672 -191.406c0 0 -1.953 0 -1.953 0c0 0 0 218.75 0 218.75c0 0 0 0 0 0m52.734 619.141c78.125 -13.021 146.485 -44.922 205.078 -95.703c-31.25 -22.136 -64.453 -39.714 -99.609 -52.735c-27.344 55.99 -62.5 105.469 -105.469 148.438c0 0 0 0 0 0m0 -832.032c49.48 49.48 88.542 108.073 117.188 175.782c37.76 -15.625 73.568 -36.459 107.422 -62.5c-62.5 -61.198 -137.37 -98.959 -224.61 -113.282c0 0 0 0 0 0m119.141 654.297c37.76 15.625 74.219 35.808 109.375 60.547c78.125 -78.125 119.792 -172.526 125 -283.203c0 0 -187.5 0 -187.5 0c-2.604 78.125 -18.229 152.344 -46.875 222.656c0 0 0 0 0 0m9.766 -449.218c22.135 61.197 34.505 126.302 37.109 195.312c0 0 187.5 0 187.5 0c-3.906 -100.26 -39.714 -188.151 -107.422 -263.672c-36.458 28.646 -75.521 51.432 -117.187 68.36c0 0 0 0 0 0" />
  </g>
</svg>