<svg height="1000" width="969" xmlns="http://www.w3.org/2000/svg"><path d="M0 484.408q0 -201.159 141.593 -342.752t342.752 -141.593 342.752 141.593 141.593 342.752 -141.593 342.752 -342.752 141.593 -342.752 -141.593 -141.593 -342.752zm62.496 15.624q7.812 166.005 124.992 283.185 52.731 -37.107 109.368 -60.543 -42.966 -105.462 -46.872 -222.642l-187.488 0zm0 -31.248l187.488 0q3.906 -103.509 37.107 -195.3 -62.496 -25.389 -117.18 -68.355 -101.556 113.274 -107.415 263.655zm128.898 -287.091q50.778 39.06 107.415 62.496 42.966 -101.556 117.18 -175.77 -130.851 21.483 -224.595 113.274zm19.53 623.007q87.885 76.167 205.065 95.697 -64.449 -64.449 -105.462 -148.428 -52.731 19.53 -99.603 52.731zm70.308 -304.668q3.906 111.321 44.919 212.877 68.355 -21.483 142.569 -25.389l0 -187.488l-187.488 0zm0 -31.248l187.488 0l0 -156.24q-78.12 -3.906 -152.334 -29.295 -31.248 87.885 -35.154 185.535zm46.872 -214.83q68.355 23.436 140.616 27.342l0 -218.736l-1.953 0q-89.838 76.167 -138.663 191.394zm11.718 486.297q48.825 99.603 126.945 166.005l1.953 0l0 -187.488q-68.355 3.906 -128.898 21.483zm160.146 166.005l1.953 0q78.12 -66.402 126.945 -166.005 -60.543 -17.577 -128.898 -21.483l0 187.488zm0 -218.736q74.214 3.906 142.569 25.389 41.013 -101.556 44.919 -212.877l-187.488 0l0 187.488zm0 -218.736l187.488 0q-3.906 -97.65 -35.154 -185.535 -74.214 25.389 -152.334 29.295l0 156.24zm0 -187.488q72.261 -3.906 140.616 -27.342 -48.825 -115.227 -138.663 -191.394l-1.953 0l0 218.736zm52.731 619.101q117.18 -19.53 205.065 -95.697 -46.872 -33.201 -99.603 -52.731 -41.013 83.979 -105.462 148.428zm0 -831.978q74.214 74.214 117.18 175.77 56.637 -23.436 107.415 -62.496 -93.744 -91.791 -224.595 -113.274zm119.133 654.255q56.637 23.436 109.368 60.543 117.18 -117.18 124.992 -283.185l-187.488 0q-3.906 117.18 -46.872 222.642zm9.765 -449.19q33.201 91.791 37.107 195.3l187.488 0q-5.859 -150.381 -107.415 -263.655 -54.684 42.966 -117.18 68.355z"/></svg>