<svg height="1000px" width="1000px" xmlns="http://www.w3.org/2000/svg">
  <g>
    <path d="M0 250c0 -22.135 6.836 -41.667 20.508 -58.594c13.672 -16.927 30.924 -27.995 51.758 -33.203c0 0 406.25 -93.75 406.25 -93.75c7.812 -1.302 14.974 -1.953 21.484 -1.953c6.51 0 13.672 0.651 21.484 1.953c0 0 406.25 93.75 406.25 93.75c20.834 5.208 38.086 16.276 51.758 33.203c13.672 16.927 20.508 36.459 20.508 58.594c0 22.135 -6.836 41.667 -20.508 58.594c-13.672 16.927 -30.924 27.995 -51.758 33.203c0 0 -83.984 19.531 -83.984 19.531c0 0 0 263.672 0 263.672c0 45.573 -27.995 83.008 -83.984 112.305c-55.99 29.297 -142.578 43.945 -259.766 43.945c-117.187 0 -203.776 -14.648 -259.766 -43.945c-55.989 -29.297 -83.984 -66.732 -83.984 -112.305c0 0 0 -263.672 0 -263.672c0 0 -83.984 -19.531 -83.984 -19.531c-20.834 -5.208 -38.086 -16.276 -51.758 -33.203c-13.672 -16.927 -20.508 -36.459 -20.508 -58.594c0 0 0 0 0 0m62.5 0c0 16.927 7.813 27.344 23.438 31.25c0 0 406.25 93.75 406.25 93.75c0 0 7.812 0 7.812 0c0 0 7.813 0 7.813 0c0 0 406.25 -93.75 406.25 -93.75c15.625 -3.906 23.437 -14.323 23.437 -31.25c0 -16.927 -7.812 -27.344 -23.437 -31.25c0 0 -406.25 -93.75 -406.25 -93.75c0 0 -7.813 0 -7.813 0c0 0 -7.812 0 -7.812 0c0 0 -406.25 93.75 -406.25 93.75c-15.625 3.906 -23.438 14.323 -23.438 31.25c0 0 0 0 0 0m156.25 375c0 13.021 9.766 26.367 29.297 40.039c19.531 13.672 51.758 26.042 96.68 37.109c44.921 11.068 96.679 16.602 155.273 16.602c58.594 0 110.352 -5.534 155.273 -16.602c44.922 -11.067 77.149 -23.437 96.68 -37.109c19.531 -13.672 29.297 -27.018 29.297 -40.039c0 0 0 -250 0 -250c0 0 -259.766 60.547 -259.766 60.547c-7.812 1.302 -14.974 1.953 -21.484 1.953c-6.51 0 -13.672 -0.651 -21.484 -1.953c0 0 -259.766 -60.547 -259.766 -60.547c0 0 0 250 0 250c0 0 0 0 0 0m656.25 250c0 -20.833 6.51 -46.875 19.531 -78.125c13.021 -31.25 27.344 -46.875 42.969 -46.875c15.625 0 29.948 15.625 42.969 46.875c13.021 31.25 19.531 57.292 19.531 78.125c0 16.927 -6.185 31.576 -18.555 43.945c-12.369 12.37 -27.018 18.555 -43.945 18.555c-16.927 0 -31.576 -6.185 -43.945 -18.555c-12.37 -12.369 -18.555 -27.018 -18.555 -43.945c0 0 0 0 0 0m31.25 -187.5c0 0 0 -281.25 0 -281.25c0 -9.115 2.93 -16.602 8.789 -22.461c5.859 -5.859 13.346 -8.789 22.461 -8.789c9.115 0 16.602 2.93 22.461 8.789c5.859 5.859 8.789 13.346 8.789 22.461c0 0 0 281.25 0 281.25c0 9.115 -2.93 16.602 -8.789 22.461c-5.859 5.859 -13.346 8.789 -22.461 8.789c-9.115 0 -16.602 -2.93 -22.461 -8.789c-5.859 -5.859 -8.789 -13.346 -8.789 -22.461c0 0 0 0 0 0" />
  </g>
</svg>