<svg height="1000" width="1000" xmlns="http://www.w3.org/2000/svg"><path d="M0 250.048q0 -33.201 20.506 -58.59t51.755 -33.201l406.224 -93.744q11.718 -1.953 21.483 -1.953t21.483 1.953l406.224 93.744q31.248 7.812 51.755 33.201t20.506 58.59 -20.506 58.59 -51.755 33.201l-83.979 19.53l0 263.655q0 68.355 -83.979 112.297t-259.749 43.943 -259.749 -43.943 -83.979 -112.297l0 -263.655l-83.979 -19.53q-31.248 -7.812 -51.755 -33.201t-20.506 -58.59zm62.496 0q0 25.389 23.436 31.248l406.224 93.744l15.624 0l406.224 -93.744q23.436 -5.859 23.436 -31.248t-23.436 -31.248l-406.224 -93.744l-15.624 0l-406.224 93.744q-23.436 5.859 -23.436 31.248zm156.24 374.976q0 19.53 29.295 40.037t96.674 37.107 155.263 16.601 155.263 -16.601 96.674 -37.107 29.295 -40.037l0 -249.984l-259.749 60.543q-11.718 1.953 -21.483 1.953t-21.483 -1.953l-259.749 -60.543l0 249.984zm656.208 249.984q0 -31.248 19.53 -78.12t42.966 -46.872 42.966 46.872 19.53 78.12q0 25.389 -18.553 43.943t-43.943 18.553 -43.943 -18.553 -18.553 -43.943zm31.248 -187.488l0 -281.232q0 -13.671 8.789 -22.46t22.46 -8.789 22.46 8.789 8.789 22.46l0 281.232q0 13.671 -8.789 22.46t-22.46 8.789 -22.46 -8.789 -8.789 -22.46z"/></svg>