<svg height="1000px" width="1000px" xmlns="http://www.w3.org/2000/svg">
  <g>
    <path d="M0 374.0234375c0 -81.38 29.297 -151.367 87.891 -209.961c55.989 -55.99 124.023 -84.635 204.101 -85.937c80.078 -1.303 149.414 24.739 208.008 78.125c58.594 -53.386 127.93 -79.428 208.008 -78.125c80.078 1.302 148.112 29.947 204.101 85.937c58.594 58.594 87.891 128.581 87.891 209.961c0 81.38 -29.297 151.367 -87.891 209.961c-2.604 2.604 -117.838 116.536 -345.703 341.797c-18.229 18.229 -40.364 27.344 -66.406 27.344c-26.042 0 -48.177 -9.115 -66.406 -27.344c-1.302 0 -116.537 -113.932 -345.703 -341.797c-58.594 -58.594 -87.891 -128.581 -87.891 -209.961c0 0 0 0 0 0m62.5 0c0 64.453 23.437 119.466 70.312 165.039c0 0 345.704 341.797 345.704 341.797c14.323 15.625 28.645 15.625 42.968 0c0 0 345.703 -341.797 345.703 -341.797c46.875 -45.573 70.313 -100.586 70.313 -165.039c0 -64.453 -23.438 -119.466 -70.313 -165.039c-44.27 -44.271 -97.656 -67.057 -160.156 -68.359c-62.5 -1.303 -117.187 18.88 -164.062 60.546c0 0 -42.969 39.063 -42.969 39.063c0 0 -42.969 -39.063 -42.969 -39.063c-46.875 -41.666 -101.562 -61.849 -164.062 -60.546c-62.5 1.302 -115.886 24.088 -160.156 68.359c-46.875 45.573 -70.313 100.586 -70.313 165.039c0 0 0 0 0 0m93.75 -6.836c0 -36.458 13.021 -67.708 39.063 -93.75c26.041 -26.042 57.291 -39.062 93.75 -39.062c10.416 0 15.625 5.208 15.625 15.625c0 10.416 -5.209 15.625 -15.625 15.625c-27.344 0 -51.107 9.765 -71.29 29.296c-20.182 19.532 -30.273 43.62 -30.273 72.266c0 10.417 -5.208 15.625 -15.625 15.625c-10.417 0 -15.625 -5.208 -15.625 -15.625c0 0 0 0 0 0" />
  </g>
</svg>