<svg height="1000" width="1000" xmlns="http://www.w3.org/2000/svg"><path d="M0 374.063q0 -122.063 87.885 -209.948 83.979 -83.979 204.089 -85.932t207.995 78.12q87.885 -80.073 207.995 -78.12t204.089 85.932q87.885 87.885 87.885 209.948t-87.885 209.948q-3.906 3.906 -345.681 341.775 -27.342 27.342 -66.402 27.342t-66.402 -27.342q-1.953 0 -345.681 -341.775 -87.885 -87.885 -87.885 -209.948zm62.496 0q0 96.674 70.308 165.029l345.681 341.775q21.483 23.436 42.966 0l345.681 -341.775q70.308 -68.355 70.308 -165.029t-70.308 -165.029q-66.402 -66.402 -160.146 -68.355t-164.052 60.543l-42.966 39.06 -42.966 -39.06q-70.308 -62.496 -164.052 -60.543t-160.146 68.355q-70.308 68.355 -70.308 165.029zm93.744 -6.836q0 -54.684 39.06 -93.744t93.744 -39.06q15.624 0 15.624 15.624t-15.624 15.624q-41.013 0 -71.285 29.295t-30.271 72.261q0 15.624 -15.624 15.624t-15.624 -15.624z"/></svg>