<svg height="1000" width="1000" xmlns="http://www.w3.org/2000/svg"><path d="M0 812.512v-218.736q0-7.812 1.953-17.577l124.992-468.72q5.859-19.53 22.46-32.224t38.084-12.694h624.96q21.483 0 38.084 12.694t22.46 32.224l124.992 468.72q1.953 9.765 1.953 17.577v218.736q0 52.731-36.13 88.862t-88.862 36.13h-749.952q-52.731 0-88.862-36.13t-36.13-88.862zm62.496 0q0 25.389 18.553 43.943t43.943 18.553h749.952q25.389 0 43.943-18.553t18.553-43.943v-218.736l-124.992-468.72h-624.96l-124.992 468.72v218.736zm58.59-226.548l107.415-374.976q5.859-23.436 29.295-23.436h484.344q23.436 0 29.295 23.436l107.415 374.976q3.906 15.624-4.883 27.342t-24.413 11.718h-142.569l-44.919 89.838q-17.577 35.154-56.637 35.154h-210.924q-39.06 0-56.637-35.154l-44.919-89.838h-142.569q-15.624 0-24.413-11.718t-4.883-27.342zm44.919-23.436h126.945q39.06 0 56.637 35.154l44.919 89.838h210.924l44.919-89.838q17.577-35.154 56.637-35.154h126.945l-91.791-343.728h-484.344z"/></svg>