<svg height="1000" width="1000" xmlns="http://www.w3.org/2000/svg"><path d="M0 812.512l0 -218.736q0 -7.812 1.953 -17.577l124.992 -468.72q5.859 -19.53 22.46 -32.224t38.084 -12.694l624.96 0q21.483 0 38.084 12.694t22.46 32.224l124.992 468.72q1.953 9.765 1.953 17.577l0 218.736q0 52.731 -36.13 88.862t-88.862 36.13l-749.952 0q-52.731 0 -88.862 -36.13t-36.13 -88.862zm62.496 0q0 25.389 18.553 43.943t43.943 18.553l749.952 0q25.389 0 43.943 -18.553t18.553 -43.943l0 -218.736l-124.992 -468.72l-624.96 0l-124.992 468.72l0 218.736zm58.59 -226.548l107.415 -374.976q5.859 -23.436 29.295 -23.436l484.344 0q23.436 0 29.295 23.436l107.415 374.976q3.906 15.624 -4.883 27.342t-24.413 11.718l-142.569 0l-44.919 89.838q-17.577 35.154 -56.637 35.154l-210.924 0q-39.06 0 -56.637 -35.154l-44.919 -89.838l-142.569 0q-15.624 0 -24.413 -11.718t-4.883 -27.342zm44.919 -23.436l126.945 0q39.06 0 56.637 35.154l44.919 89.838l210.924 0l44.919 -89.838q17.577 -35.154 56.637 -35.154l126.945 0l-91.791 -343.728l-484.344 0z"/></svg>