<svg height="1000px" width="1000px" xmlns="http://www.w3.org/2000/svg">
  <g>
    <path d="M0 812.5c0 0 0 -218.75 0 -218.75c0 -5.208 0.651 -11.068 1.953 -17.578c0 0 125 -468.75 125 -468.75c3.906 -13.021 11.393 -23.763 22.461 -32.227c11.068 -8.463 23.763 -12.695 38.086 -12.695c0 0 312.5 0 312.5 0c0 0 312.5 0 312.5 0c14.323 0 27.018 4.232 38.086 12.695c11.068 8.464 18.555 19.206 22.461 32.227c0 0 125 468.75 125 468.75c1.302 6.51 1.953 12.37 1.953 17.578c0 0 0 218.75 0 218.75c0 35.156 -12.044 64.779 -36.133 88.867c-24.088 24.089 -53.711 36.133 -88.867 36.133c0 0 -750 0 -750 0c-35.156 0 -64.779 -12.044 -88.867 -36.133c-24.089 -24.088 -36.133 -53.711 -36.133 -88.867c0 0 0 0 0 0m62.5 0c0 16.927 6.185 31.576 18.555 43.945c12.369 12.37 27.018 18.555 43.945 18.555c0 0 750 0 750 0c16.927 0 31.576 -6.185 43.945 -18.555c12.37 -12.369 18.555 -27.018 18.555 -43.945c0 0 0 -218.75 0 -218.75c0 0 -125 -468.75 -125 -468.75c0 0 -625 0 -625 0c0 0 -125 468.75 -125 468.75c0 0 0 218.75 0 218.75c0 0 0 0 0 0m58.594 -226.563c0 0 107.422 -375 107.422 -375c3.906 -15.625 13.672 -23.437 29.297 -23.437c0 0 484.375 0 484.375 0c15.625 0 25.39 7.813 29.296 23.438c0 0 107.422 375 107.422 375c2.604 10.416 0.977 19.531 -4.883 27.343c-5.859 7.813 -13.997 11.719 -24.414 11.719c0 0 -91.797 0 -91.797 0c0 0 -35.156 0 -35.156 0c0 0 -15.625 0 -15.625 0c0 0 -44.922 89.844 -44.922 89.844c-11.718 23.437 -30.599 35.156 -56.64 35.156c0 0 -210.938 0 -210.938 0c-26.041 0 -44.922 -11.719 -56.64 -35.156c0 0 -44.922 -89.844 -44.922 -89.844c0 0 -15.625 0 -15.625 0c0 0 -37.11 0 -37.11 0c0 0 -89.843 0 -89.843 0c-10.417 0 -18.555 -3.906 -24.414 -11.719c-5.86 -7.812 -7.487 -16.927 -4.883 -27.343c0 0 0 0 0 0m44.922 -23.438c0 0 76.171 0 76.171 0c0 0 50.782 0 50.782 0c26.041 0 44.922 11.719 56.64 35.156c0 0 44.922 89.844 44.922 89.844c0 0 210.938 0 210.938 0c0 0 44.922 -89.844 44.922 -89.844c11.718 -23.437 30.599 -35.156 56.64 -35.156c0 0 50.782 0 50.782 0c0 0 76.171 0 76.171 0c0 0 -91.797 -343.75 -91.797 -343.75c0 0 -484.375 0 -484.375 0c0 0 -91.796 343.75 -91.796 343.75" />
  </g>
</svg>