<svg height="1000px" width="1000px" xmlns="http://www.w3.org/2000/svg">
  <g>
    <path d="M0 937.5c0 0 0 -93.75 0 -93.75c0 -13.021 5.859 -26.042 17.578 -39.063c0 0 378.906 -378.906 378.906 -378.906c-14.323 -37.76 -21.484 -75.521 -21.484 -113.281c0 -85.938 30.599 -159.505 91.797 -220.703c61.198 -61.198 134.765 -91.797 220.703 -91.797c85.937 0 159.505 30.599 220.703 91.797c61.198 61.198 91.797 134.766 91.797 220.703c0 85.938 -30.599 159.505 -91.797 220.703c-61.198 61.198 -134.766 91.797 -220.703 91.797c-37.76 0 -75.521 -7.161 -113.281 -21.484c0 0 -74.219 72.265 -74.219 72.265c0 0 0 74.219 0 74.219c0 16.927 -6.185 31.576 -18.555 43.945c-12.369 12.37 -27.018 18.555 -43.945 18.555c0 0 -62.5 0 -62.5 0c0 0 0 62.5 0 62.5c0 16.927 -6.185 31.576 -18.555 43.945c-12.369 12.37 -27.018 18.555 -43.945 18.555c0 0 -72.266 0 -72.266 0c0 0 -44.922 44.922 -44.922 44.922c-11.718 11.719 -24.739 17.578 -39.062 17.578c0 0 -93.75 0 -93.75 0c-16.927 0 -31.576 -6.185 -43.945 -18.555c-12.37 -12.369 -18.555 -27.018 -18.555 -43.945c0 0 0 0 0 0m62.5 0c0 0 87.891 0 87.891 0c0 0 44.921 -44.922 44.921 -44.922c11.719 -11.719 26.693 -17.578 44.922 -17.578c0 0 72.266 0 72.266 0c0 0 0 -62.5 0 -62.5c0 -16.927 6.185 -31.576 18.555 -43.945c12.369 -12.37 27.018 -18.555 43.945 -18.555c0 0 62.5 0 62.5 0c0 0 0 -74.219 0 -74.219c0 -16.927 5.859 -31.25 17.578 -42.968c0 0 60.547 -60.547 60.547 -60.547c0 0 35.156 -35.157 35.156 -35.157c0 0 9.766 -9.765 9.766 -9.765c40.364 23.437 82.682 35.156 126.953 35.156c69.01 0 127.93 -24.414 176.758 -73.242c48.828 -48.828 73.242 -107.748 73.242 -176.758c0 -69.01 -24.414 -127.93 -73.242 -176.758c-48.828 -48.828 -107.748 -73.242 -176.758 -73.242c-69.01 0 -127.93 24.414 -176.758 73.242c-48.828 48.828 -73.242 107.748 -73.242 176.758c0 44.271 11.719 86.589 35.156 126.953c0 0 -44.922 44.922 -44.922 44.922c0 0 -365.234 363.281 -365.234 363.281c0 0 0 89.844 0 89.844c0 0 0 0 0 0m562.5 -712.891c0 -2.604 0.651 -5.859 1.953 -9.765c15.625 -42.969 44.922 -72.266 87.891 -87.891c10.416 -3.906 19.531 -2.604 27.344 3.906c49.479 35.157 91.796 77.474 126.953 126.953c3.906 5.209 5.859 11.068 5.859 17.579c0 2.604 -0.651 5.859 -1.953 9.765c-15.625 42.969 -44.922 72.266 -87.891 87.891c-10.416 3.906 -19.531 2.604 -27.343 -3.906c-49.48 -35.157 -91.797 -77.474 -126.954 -126.954c-3.906 -5.208 -5.859 -11.067 -5.859 -17.578c0 0 0 0 0 0m31.25 0c33.854 46.875 73.568 86.589 119.141 119.141c33.854 -11.719 56.64 -34.505 68.359 -68.359c-32.552 -45.573 -72.266 -85.287 -119.141 -119.141c-33.854 11.719 -56.64 34.505 -68.359 68.359c0 0 0 0 0 0" />
  </g>
</svg>