<svg height="1000" width="1000" xmlns="http://www.w3.org/2000/svg"><path d="M0 937.504l0 -93.744q0 -19.53 17.577 -39.06l378.882 -378.882q-21.483 -56.637 -21.483 -113.274 0 -128.898 91.791 -220.689t220.689 -91.791 220.689 91.791 91.791 220.689 -91.791 220.689 -220.689 91.791q-56.637 0 -113.274 -21.483l-74.214 72.261l0 74.214q0 25.389 -18.553 43.943t-43.943 18.553l-62.496 0l0 62.496q0 25.389 -18.553 43.943t-43.943 18.553l-72.261 0l-44.919 44.919q-17.577 17.577 -39.06 17.577l-93.744 0q-25.389 0 -43.943 -18.553t-18.553 -43.943zm62.496 0l87.885 0l44.919 -44.919q17.577 -17.577 44.919 -17.577l72.261 0l0 -62.496q0 -25.389 18.553 -43.943t43.943 -18.553l62.496 0l0 -74.214q0 -25.389 17.577 -42.966l60.543 -60.543 35.154 -35.154 9.765 -9.765q60.543 35.154 126.945 35.154 103.509 0 176.746 -73.237t73.237 -176.746 -73.237 -176.746 -176.746 -73.237 -176.746 73.237 -73.237 176.746q0 66.402 35.154 126.945l-44.919 44.919 -365.211 363.258l0 89.838zm562.464 -712.845q0 -3.906 1.953 -9.765 23.436 -64.449 87.885 -87.885 15.624 -5.859 27.342 3.906 74.214 52.731 126.945 126.945 5.859 7.812 5.859 17.577 0 3.906 -1.953 9.765 -23.436 64.449 -87.885 87.885 -15.624 5.859 -27.342 -3.906 -74.214 -52.731 -126.945 -126.945 -5.859 -7.812 -5.859 -17.577zm31.248 0q50.778 70.308 119.133 119.133 50.778 -17.577 68.355 -68.355 -48.825 -68.355 -119.133 -119.133 -50.778 17.577 -68.355 68.355z"/></svg>