<svg height="1000" width="687" xmlns="http://www.w3.org/2000/svg"><path d="M0 343.792q0 -142.569 100.58 -243.149t243.149 -100.58 243.149 100.58 100.58 243.149q0 54.684 -29.295 121.086t-71.285 140.616 -55.66 115.227q-15.624 39.06 -31.248 94.721t-24.413 81.05 -26.366 53.708 -41.989 39.06 -63.473 10.742 -63.473 -10.742 -41.013 -39.06 -26.366 -53.708 -25.389 -81.05 -31.248 -94.721q-13.671 -42.966 -55.66 -116.204t-71.285 -139.639 -29.295 -121.086zm62.496 0q0 64.449 82.026 212.877 37.107 64.449 52.731 99.603l292.95 0q15.624 -35.154 52.731 -99.603 82.026 -150.381 82.026 -212.877 0 -117.18 -82.026 -199.206t-199.206 -82.026 -199.206 82.026 -82.026 199.206zm93.744 0q0 -78.12 54.684 -132.804t132.804 -54.684q15.624 0 15.624 15.624t-15.624 15.624q-64.449 0 -110.345 45.895t-45.895 110.345q0 15.624 -15.624 15.624t-15.624 -15.624zm66.402 374.976q11.718 33.201 19.53 60.543l212.877 -27.342q1.953 -11.718 9.765 -33.201l-242.172 0zm29.295 89.838q9.765 35.154 17.577 60.543l154.287 -19.53q5.859 -15.624 11.718 -37.107 1.953 -5.859 4.883 -15.624t2.929 -11.718zm29.295 89.838q11.718 25.389 24.413 32.224t38.084 6.836q29.295 0 42.966 -9.765t27.342 -44.919z"/></svg>