<svg height="1000px" width="1000px" xmlns="http://www.w3.org/2000/svg">
  <g>
    <path d="M156.25 343.75c0 -95.052 33.529 -176.107 100.586 -243.164c67.057 -67.057 148.112 -100.586 243.164 -100.586c95.052 0 176.107 33.529 243.164 100.586c67.057 67.057 100.586 148.112 100.586 243.164c0 36.458 -9.766 76.823 -29.297 121.094c-19.531 44.271 -43.294 91.146 -71.289 140.625c-27.995 49.479 -46.549 87.89 -55.664 115.234c-10.417 26.042 -20.833 57.617 -31.25 94.727c-10.417 37.109 -18.555 64.127 -24.414 81.054c-5.859 16.927 -14.649 34.831 -26.367 53.711c-11.719 18.881 -25.716 31.901 -41.992 39.063c-16.276 7.161 -37.435 10.742 -63.477 10.742c-26.042 0 -47.201 -3.581 -63.477 -10.742c-16.276 -7.162 -29.947 -20.182 -41.015 -39.063c-11.068 -18.88 -19.857 -36.784 -26.367 -53.711c-6.511 -16.927 -14.974 -43.945 -25.391 -81.054c-10.417 -37.11 -20.833 -68.685 -31.25 -94.727c-9.115 -28.646 -27.669 -67.383 -55.664 -116.211c-27.995 -48.828 -51.758 -95.377 -71.289 -139.648c-19.531 -44.271 -29.297 -84.636 -29.297 -121.094c0 0 0 0 0 0m62.5 0c0 42.969 27.344 113.932 82.031 212.891c24.74 42.968 42.318 76.171 52.735 99.609c0 0 292.968 0 292.968 0c10.417 -23.438 27.995 -56.641 52.735 -99.609c54.687 -100.261 82.031 -171.224 82.031 -212.891c0 -78.125 -27.344 -144.531 -82.031 -199.219c-54.688 -54.687 -121.094 -82.031 -199.219 -82.031c-78.125 0 -144.531 27.344 -199.219 82.031c-54.687 54.688 -82.031 121.094 -82.031 199.219c0 0 0 0 0 0m93.75 0c0 -52.083 18.229 -96.354 54.687 -132.813c36.459 -36.458 80.73 -54.687 132.813 -54.687c10.417 0 15.625 5.208 15.625 15.625c0 10.417 -5.208 15.625 -15.625 15.625c-42.969 0 -79.753 15.299 -110.352 45.898c-30.599 30.599 -45.898 67.383 -45.898 110.352c0 10.417 -5.208 15.625 -15.625 15.625c-10.417 0 -15.625 -5.208 -15.625 -15.625c0 0 0 0 0 0m66.406 375c7.813 22.135 14.323 42.318 19.531 60.547c0 0 212.891 -27.344 212.891 -27.344c1.302 -7.812 4.557 -18.88 9.766 -33.203c0 0 -242.188 0 -242.188 0c0 0 0 0 0 0m29.297 89.844c6.511 23.437 12.37 43.62 17.578 60.547c0 0 154.297 -19.532 154.297 -19.532c3.906 -10.416 7.813 -22.786 11.719 -37.109c1.302 -3.906 2.93 -9.115 4.883 -15.625c1.953 -6.51 2.929 -10.417 2.929 -11.719c0 0 -191.406 23.438 -191.406 23.438m29.297 89.844c7.812 16.927 15.951 27.669 24.414 32.226c8.464 4.557 21.159 6.836 38.086 6.836c19.531 0 33.854 -3.255 42.969 -9.766c9.114 -6.51 18.229 -21.484 27.343 -44.921c0 0 -132.812 15.625 -132.812 15.625" />
  </g>
</svg>