<svg height="1000" width="750" xmlns="http://www.w3.org/2000/svg"><path d="M.004 375.04q0 -156.24 109.368 -265.608t265.608 -109.368 265.608 109.368 109.368 265.608q0 78.12 -28.319 160.146t-84.956 166.005 -100.58 140.616 -110.345 132.804q-19.53 25.389 -48.825 25.389l-3.906 0q-29.295 0 -48.825 -25.389 -66.402 -76.167 -110.345 -132.804t-100.58 -140.616 -84.956 -166.005 -28.319 -160.146zm62.496 0q0 72.261 28.319 150.381t84.956 160.146 94.721 128.898 100.58 119.133l1.953 0q1.953 1.953 1.953 3.906l3.906 -3.906q62.496 -72.261 99.603 -119.133t94.721 -128.898 85.932 -160.146 28.319 -150.381q0 -128.898 -91.791 -220.689t-220.689 -91.791 -220.689 91.791 -91.791 220.689zm124.992 -7.812q0 -78.12 54.684 -132.804t132.804 -54.684 132.804 54.684 54.684 132.804 -54.684 132.804 -132.804 54.684 -132.804 -54.684 -54.684 -132.804zm31.248 0q0 64.449 45.895 110.345t110.345 45.895 110.345 -45.895 45.895 -110.345 -45.895 -110.345 -110.345 -45.895 -110.345 45.895 -45.895 110.345z"/></svg>