<svg height="1000px" width="1000px" xmlns="http://www.w3.org/2000/svg">
  <g>
    <path d="M125 375c0 -104.167 36.458 -192.708 109.375 -265.625c72.917 -72.917 161.458 -109.375 265.625 -109.375c104.167 0 192.708 36.458 265.625 109.375c72.917 72.917 109.375 161.458 109.375 265.625c0 52.083 -9.44 105.469 -28.32 160.156c-18.881 54.688 -47.201 110.026 -84.961 166.016c-37.761 55.989 -71.289 102.864 -100.586 140.625c-29.297 37.76 -66.081 82.031 -110.352 132.812c-13.021 16.927 -29.297 25.391 -48.828 25.391c0 0 -3.906 0 -3.906 0c-19.531 0 -35.807 -8.464 -48.828 -25.391c-44.271 -50.781 -81.055 -95.052 -110.352 -132.812c-29.297 -37.761 -62.825 -84.636 -100.586 -140.625c-37.76 -55.99 -66.08 -111.328 -84.961 -166.016c-18.88 -54.687 -28.32 -108.073 -28.32 -160.156c0 0 0 0 0 0m62.5 0c0 48.177 9.44 98.307 28.32 150.391c18.881 52.083 47.201 105.468 84.961 160.156c37.761 54.687 69.336 97.656 94.727 128.906c25.39 31.25 58.919 70.964 100.586 119.141c0 0 1.953 0 1.953 0c1.302 1.302 1.953 2.604 1.953 3.906c0 0 3.906 -3.906 3.906 -3.906c41.667 -48.177 74.87 -87.891 99.61 -119.141c24.739 -31.25 56.315 -74.219 94.726 -128.906c38.412 -54.688 67.057 -108.073 85.938 -160.156c18.88 -52.084 28.32 -102.214 28.32 -150.391c0 -85.938 -30.599 -159.505 -91.797 -220.703c-61.198 -61.198 -134.765 -91.797 -220.703 -91.797c-85.937 0 -159.505 30.599 -220.703 91.797c-61.198 61.198 -91.797 134.765 -91.797 220.703c0 0 0 0 0 0m125 -7.813c0 -52.083 18.229 -96.354 54.688 -132.812c36.458 -36.458 80.729 -54.688 132.812 -54.688c52.083 0 96.354 18.23 132.813 54.688c36.458 36.458 54.687 80.729 54.687 132.812c0 52.084 -18.229 96.355 -54.687 132.813c-36.459 36.458 -80.73 54.687 -132.813 54.687c-52.083 0 -96.354 -18.229 -132.812 -54.687c-36.459 -36.458 -54.688 -80.729 -54.688 -132.813c0 0 0 0 0 0m31.25 0c0 42.969 15.299 79.753 45.898 110.352c30.599 30.599 67.383 45.898 110.352 45.898c42.969 0 79.753 -15.299 110.352 -45.898c30.599 -30.599 45.898 -67.383 45.898 -110.352c0 -42.968 -15.299 -79.752 -45.898 -110.351c-30.599 -30.599 -67.383 -45.899 -110.352 -45.899c-42.969 0 -79.753 15.3 -110.352 45.899c-30.599 30.599 -45.898 67.383 -45.898 110.351c0 0 0 0 0 0" />
  </g>
</svg>