<svg height="1000" width="1000" xmlns="http://www.w3.org/2000/svg"><path d="M124.992 718.768v-218.736q0-39.06 27.342-66.402t66.402-27.342v-124.992q0-117.18 82.026-199.206t199.206-82.026 199.206 82.026 82.026 199.206v124.992q39.06 0 66.402 27.342t27.342 66.402v218.736q0 117.18-82.026 199.206t-199.206 82.026h-187.488q-117.18 0-199.206-82.026t-82.026-199.206zm62.496 0q0 89.838 64.449 154.287t154.287 64.449h187.488q89.838 0 154.287-64.449t64.449-154.287v-218.736q0-13.671-8.789-22.46t-22.46-8.789h-562.4639999999999q-13.671 0-22.46 8.789t-8.789 22.46v218.736zm93.744-312.48h62.496v-124.992q0-64.449 45.895-110.345t110.345-45.895 110.345 45.895 45.895 110.345v124.992h62.496v-124.992q0-89.838-64.449-154.287t-154.287-64.449-154.287 64.449-64.449 154.287v124.992zm93.744 0h249.984v-124.992q0-52.731-36.13-88.862t-88.862-36.13-88.862 36.13-36.13 88.862v124.992zm62.496 249.984q0-25.389 18.553-43.943t43.943-18.553 43.943 18.553 18.553 43.943q0 27.342-21.483 83.979-13.671 41.013-41.013 41.013t-41.013-41.013q-21.483-56.637-21.483-83.979z"/></svg>