<svg height="1000px" width="1000px" xmlns="http://www.w3.org/2000/svg">
  <g>
    <path d="M125 718.75c0 0 0 -31.25 0 -31.25c0 0 0 -62.5 0 -62.5c0 0 0 -31.25 0 -31.25c0 0 0 -93.75 0 -93.75c0 -26.042 9.115 -48.177 27.344 -66.406c18.229 -18.229 40.364 -27.344 66.406 -27.344c0 0 0 -125 0 -125c0 -78.125 27.344 -144.531 82.031 -199.219c54.688 -54.687 121.094 -82.031 199.219 -82.031c78.125 0 144.531 27.344 199.219 82.031c54.687 54.688 82.031 121.094 82.031 199.219c0 0 0 125 0 125c26.042 0 48.177 9.115 66.406 27.344c18.229 18.229 27.344 40.364 27.344 66.406c0 0 0 93.75 0 93.75c0 0 0 31.25 0 31.25c0 0 0 62.5 0 62.5c0 0 0 31.25 0 31.25c0 78.125 -27.344 144.531 -82.031 199.219c-54.688 54.687 -121.094 82.031 -199.219 82.031c0 0 -187.5 0 -187.5 0c-78.125 0 -144.531 -27.344 -199.219 -82.031c-54.687 -54.688 -82.031 -121.094 -82.031 -199.219c0 0 0 0 0 0m62.5 0c0 59.896 21.484 111.328 64.453 154.297c42.969 42.969 94.401 64.453 154.297 64.453c0 0 187.5 0 187.5 0c59.896 0 111.328 -21.484 154.297 -64.453c42.969 -42.969 64.453 -94.401 64.453 -154.297c0 0 0 -31.25 0 -31.25c0 0 0 -62.5 0 -62.5c0 0 0 -31.25 0 -31.25c0 0 0 -93.75 0 -93.75c0 -9.115 -2.93 -16.602 -8.789 -22.461c-5.859 -5.859 -13.346 -8.789 -22.461 -8.789c0 0 -62.5 0 -62.5 0c0 0 -437.5 0 -437.5 0c0 0 -62.5 0 -62.5 0c-9.115 0 -16.602 2.93 -22.461 8.789c-5.859 5.859 -8.789 13.346 -8.789 22.461c0 0 0 93.75 0 93.75c0 0 0 31.25 0 31.25c0 0 0 62.5 0 62.5c0 0 0 31.25 0 31.25c0 0 0 0 0 0m93.75 -312.5c0 0 62.5 0 62.5 0c0 0 0 -125 0 -125c0 -42.969 15.299 -79.753 45.898 -110.352c30.599 -30.599 67.383 -45.898 110.352 -45.898c42.969 0 79.753 15.299 110.352 45.898c30.599 30.599 45.898 67.383 45.898 110.352c0 0 0 125 0 125c0 0 62.5 0 62.5 0c0 0 0 -125 0 -125c0 -59.896 -21.484 -111.328 -64.453 -154.297c-42.969 -42.969 -94.401 -64.453 -154.297 -64.453c-59.896 0 -111.328 21.484 -154.297 64.453c-42.969 42.969 -64.453 94.401 -64.453 154.297c0 0 0 125 0 125c0 0 0 0 0 0m93.75 0c0 0 250 0 250 0c0 0 0 -125 0 -125c0 -35.156 -12.044 -64.779 -36.133 -88.867c-24.088 -24.089 -53.711 -36.133 -88.867 -36.133c-35.156 0 -64.779 12.044 -88.867 36.133c-24.089 24.088 -36.133 53.711 -36.133 88.867c0 0 0 125 0 125c0 0 0 0 0 0m62.5 250c0 -16.927 6.185 -31.576 18.555 -43.945c12.369 -12.37 27.018 -18.555 43.945 -18.555c16.927 0 31.576 6.185 43.945 18.555c12.37 12.369 18.555 27.018 18.555 43.945c0 18.229 -7.161 46.224 -21.484 83.984c-9.115 27.344 -22.787 41.016 -41.016 41.016c-18.229 0 -31.901 -13.672 -41.016 -41.016c-14.323 -37.76 -21.484 -65.755 -21.484 -83.984c0 0 0 0 0 0" />
  </g>
</svg>