<svg height="1000" width="750" xmlns="http://www.w3.org/2000/svg"><path d="M0 718.768l0 -218.736q0 -39.06 27.342 -66.402t66.402 -27.342l0 -124.992q0 -117.18 82.026 -199.206t199.206 -82.026 199.206 82.026 82.026 199.206l0 124.992q39.06 0 66.402 27.342t27.342 66.402l0 218.736q0 117.18 -82.026 199.206t-199.206 82.026l-187.488 0q-117.18 0 -199.206 -82.026t-82.026 -199.206zm62.496 0q0 89.838 64.449 154.287t154.287 64.449l187.488 0q89.838 0 154.287 -64.449t64.449 -154.287l0 -218.736q0 -13.671 -8.789 -22.46t-22.46 -8.789l-562.464 0q-13.671 0 -22.46 8.789t-8.789 22.46l0 218.736zm93.744 -312.48l62.496 0l0 -124.992q0 -64.449 45.895 -110.345t110.345 -45.895 110.345 45.895 45.895 110.345l0 124.992l62.496 0l0 -124.992q0 -89.838 -64.449 -154.287t-154.287 -64.449 -154.287 64.449 -64.449 154.287l0 124.992zm93.744 0l249.984 0l0 -124.992q0 -52.731 -36.13 -88.862t-88.862 -36.13 -88.862 36.13 -36.13 88.862l0 124.992zm62.496 249.984q0 -25.389 18.553 -43.943t43.943 -18.553 43.943 18.553 18.553 43.943q0 27.342 -21.483 83.979 -13.671 41.013 -41.013 41.013t-41.013 -41.013q-21.483 -56.637 -21.483 -83.979z"/></svg>