<svg height="1000" width="1000" xmlns="http://www.w3.org/2000/svg"><path d="M0 687.52l0 -406.224q0 -50.778 36.13 -87.885t88.862 -37.107l749.952 0q52.731 0 88.862 37.107t36.13 87.885l0 406.224q0 52.731 -36.13 88.862t-88.862 36.13l-749.952 0q-52.731 0 -88.862 -36.13t-36.13 -88.862zm62.496 0q0 25.389 18.553 43.943t43.943 18.553l749.952 0q25.389 0 43.943 -18.553t18.553 -43.943l-244.125 -183.582 -136.71 101.556q-25.389 19.53 -56.637 19.53t-56.637 -19.53l-136.71 -101.556zm0 -39.06l218.736 -164.052 -218.736 -164.052l0 328.104zm0 -367.164l244.125 183.582 27.342 19.53 128.898 97.65q15.624 11.718 37.107 11.718t37.107 -11.718l400.365 -300.762q0 -25.389 -18.553 -43.943t-43.943 -18.553l-749.952 0q-25.389 0 -43.943 18.553t-18.553 43.943zm656.208 203.112l218.736 164.052l0 -328.104z"/></svg>