<svg height="1000px" width="1000px" xmlns="http://www.w3.org/2000/svg">
  <g>
    <path d="M0 687.5c0 0 0 -406.25 0 -406.25c0 -33.854 12.044 -63.151 36.133 -87.891c24.088 -24.739 53.711 -37.109 88.867 -37.109c0 0 750 0 750 0c35.156 0 64.779 12.37 88.867 37.109c24.089 24.74 36.133 54.037 36.133 87.891c0 0 0 406.25 0 406.25c0 35.156 -12.044 64.779 -36.133 88.867c-24.088 24.089 -53.711 36.133 -88.867 36.133c0 0 -750 0 -750 0c-35.156 0 -64.779 -12.044 -88.867 -36.133c-24.089 -24.088 -36.133 -53.711 -36.133 -88.867c0 0 0 0 0 0m62.5 0c0 16.927 6.185 31.576 18.555 43.945c12.369 12.37 27.018 18.555 43.945 18.555c0 0 750 0 750 0c16.927 0 31.576 -6.185 43.945 -18.555c12.37 -12.369 18.555 -27.018 18.555 -43.945c0 0 -244.141 -183.594 -244.141 -183.594c0 0 -136.718 101.563 -136.718 101.563c-16.927 13.021 -35.808 19.531 -56.641 19.531c-20.833 0 -39.714 -6.51 -56.641 -19.531c0 0 -136.718 -101.563 -136.718 -101.563c0 0 -244.141 183.594 -244.141 183.594m0 -39.063c0 0 218.75 -164.062 218.75 -164.062c0 0 -218.75 -164.063 -218.75 -164.063c0 0 0 328.125 0 328.125c0 0 0 0 0 0m0 -367.187c0 0 244.141 183.594 244.141 183.594c0 0 27.343 19.531 27.343 19.531c0 0 128.907 97.656 128.907 97.656c10.416 7.813 22.786 11.719 37.109 11.719c14.323 0 26.693 -3.906 37.109 -11.719c0 0 400.391 -300.781 400.391 -300.781c0 -16.927 -6.185 -31.576 -18.555 -43.945c-12.369 -12.37 -27.018 -18.555 -43.945 -18.555c0 0 -750 0 -750 0c-16.927 0 -31.576 6.185 -43.945 18.555c-12.37 12.369 -18.555 27.018 -18.555 43.945c0 0 0 0 0 0m656.25 203.125c0 0 218.75 164.063 218.75 164.063c0 0 0 -328.125 0 -328.125c0 0 -218.75 164.062 -218.75 164.062" />
  </g>
</svg>