<svg height="1000" width="1000" xmlns="http://www.w3.org/2000/svg"><path d="M0 437.536q0 -66.402 36.13 -111.321t88.862 -44.919l289.044 0q62.496 0 119.133 -44.919t95.697 -124.992l1.953 0q58.59 -111.321 150.381 -111.321 101.556 0 160.146 130.851t58.59 306.621 -58.59 306.621 -160.146 130.851q-91.791 0 -150.381 -111.321l-1.953 0q-78.12 -154.287 -199.206 -167.958 -5.859 1.953 -7.812 1.953l0 1.953q-5.859 1.953 -9.765 7.812 -1.953 1.953 -1.953 3.906 -3.906 5.859 -3.906 11.718l0 220.689q0 7.812 15.624 26.366t15.624 36.13l0 31.248q0 25.389 -18.553 43.943t-43.943 18.553l-124.992 0q-25.389 0 -43.943 -18.553t-18.553 -43.943l0 -281.232q0 -25.389 -18.553 -43.943t-43.943 -18.553q-52.731 0 -88.862 -44.919t-36.13 -111.321zm62.496 0q0 39.06 18.553 66.402t43.943 27.342l218.736 0q-31.248 -37.107 -31.248 -93.744t31.248 -93.744l-218.736 0q-25.389 0 -43.943 27.342t-18.553 66.402zm169.911 156.24q17.577 29.295 17.577 62.496l0 281.232l124.992 0l0 -27.342l-1.953 -1.953 -1.953 -1.953q-27.342 -33.201 -27.342 -62.496l0 -218.736q0 -15.624 5.859 -31.248l-117.18 0zm111.321 -156.24q0 39.06 18.553 66.402t43.943 27.342l7.812 0q85.932 0 162.099 62.496 -13.671 -74.214 -13.671 -156.24 0 -80.073 13.671 -156.24 -76.167 62.496 -162.099 62.496l-7.812 0q-25.389 0 -43.943 27.342t-18.553 66.402zm281.232 0q0 46.872 5.859 93.744l87.885 0q25.389 0 43.943 -27.342t18.553 -66.402 -18.553 -66.402 -43.943 -27.342l-87.885 0q-5.859 46.872 -5.859 93.744zm13.671 156.24q19.53 97.65 57.614 158.193t84.956 60.543q64.449 0 110.345 -109.368t45.895 -265.608 -45.895 -265.608 -110.345 -109.368q-46.872 0 -84.956 60.543t-57.614 158.193l80.073 0q52.731 0 88.862 44.919t36.13 111.321 -36.13 111.321 -88.862 44.919l-80.073 0z"/></svg>