<svg height="1000px" width="1000px" xmlns="http://www.w3.org/2000/svg">
  <g>
    <path d="M0 437.5c0 -44.271 12.044 -81.38 36.133 -111.328c24.088 -29.948 53.711 -44.922 88.867 -44.922c0 0 128.906 0 128.906 0c0 0 138.672 0 138.672 0c0 0 21.485 0 21.485 0c41.666 0 81.38 -14.974 119.14 -44.922c37.761 -29.948 69.662 -71.614 95.703 -125c0 0 1.953 0 1.953 0c39.063 -74.219 89.193 -111.328 150.391 -111.328c67.708 0 121.094 43.62 160.156 130.859c39.063 87.24 58.594 189.453 58.594 306.641c0 117.188 -19.531 219.401 -58.594 306.641c-39.062 87.239 -92.448 130.859 -160.156 130.859c-61.198 0 -111.328 -37.109 -150.391 -111.328c0 0 -1.953 0 -1.953 0c-52.083 -102.865 -118.489 -158.854 -199.219 -167.969c-3.906 1.302 -6.51 1.953 -7.812 1.953c0 0 0 1.953 0 1.953c-3.906 1.302 -7.161 3.907 -9.766 7.813c-1.302 1.302 -1.953 2.604 -1.953 3.906c-2.604 3.906 -3.906 7.813 -3.906 11.719c0 0 0 1.953 0 1.953c0 0 0 218.75 0 218.75c0 5.208 5.208 13.997 15.625 26.367c10.417 12.37 15.625 24.414 15.625 36.133c0 0 0 31.25 0 31.25c0 16.927 -6.185 31.576 -18.555 43.945c-12.369 12.37 -27.018 18.555 -43.945 18.555c0 0 -125 0 -125 0c-16.927 0 -31.576 -6.185 -43.945 -18.555c-12.37 -12.369 -18.555 -27.018 -18.555 -43.945c0 0 0 -281.25 0 -281.25c0 -16.927 -6.185 -31.576 -18.555 -43.945c-12.369 -12.37 -27.018 -18.555 -43.945 -18.555c-35.156 0 -64.779 -14.974 -88.867 -44.922c-24.089 -29.948 -36.133 -67.057 -36.133 -111.328c0 0 0 0 0 0m62.5 0c0 26.042 6.185 48.177 18.555 66.406c12.369 18.229 27.018 27.344 43.945 27.344c0 0 156.25 0 156.25 0c0 0 62.5 0 62.5 0c-20.833 -24.74 -31.25 -55.99 -31.25 -93.75c0 -37.76 10.417 -69.01 31.25 -93.75c0 0 -62.5 0 -62.5 0c0 0 -27.344 0 -27.344 0c0 0 -128.906 0 -128.906 0c-16.927 0 -31.576 9.115 -43.945 27.344c-12.37 18.229 -18.555 40.364 -18.555 66.406c0 0 0 0 0 0m169.922 156.25c11.719 19.531 17.578 40.365 17.578 62.5c0 0 0 281.25 0 281.25c0 0 125 0 125 0c0 0 0 -27.344 0 -27.344c0 0 -1.953 -1.953 -1.953 -1.953c0 0 -1.953 -1.953 -1.953 -1.953c-18.229 -22.135 -27.344 -42.969 -27.344 -62.5c0 0 0 -218.75 0 -218.75c0 -10.417 1.953 -20.833 5.859 -31.25c0 0 -95.703 0 -95.703 0c0 0 -21.484 0 -21.484 0c0 0 0 0 0 0m111.328 -156.25c0 26.042 6.185 48.177 18.555 66.406c12.369 18.229 27.018 27.344 43.945 27.344c0 0 7.812 0 7.812 0c57.292 0 111.329 20.833 162.11 62.5c-9.115 -49.479 -13.672 -101.563 -13.672 -156.25c0 -53.385 4.557 -105.469 13.672 -156.25c-50.781 41.667 -104.818 62.5 -162.11 62.5c0 0 -7.812 0 -7.812 0c-16.927 0 -31.576 9.115 -43.945 27.344c-12.37 18.229 -18.555 40.364 -18.555 66.406c0 0 0 0 0 0m281.25 0c0 31.25 1.953 62.5 5.859 93.75c0 0 87.891 0 87.891 0c16.927 0 31.576 -9.115 43.945 -27.344c12.37 -18.229 18.555 -40.364 18.555 -66.406c0 -26.042 -6.185 -48.177 -18.555 -66.406c-12.369 -18.229 -27.018 -27.344 -43.945 -27.344c0 0 -87.891 0 -87.891 0c-3.906 31.25 -5.859 62.5 -5.859 93.75c0 0 0 0 0 0m13.672 156.25c13.021 65.104 32.226 117.839 57.617 158.203c25.391 40.365 53.711 60.547 84.961 60.547c42.969 0 79.753 -36.458 110.352 -109.375c30.599 -72.917 45.898 -161.458 45.898 -265.625c0 -104.167 -15.299 -192.708 -45.898 -265.625c-30.599 -72.917 -67.383 -109.375 -110.352 -109.375c-31.25 0 -59.57 20.182 -84.961 60.547c-25.391 40.364 -44.596 93.099 -57.617 158.203c0 0 80.078 0 80.078 0c35.156 0 64.779 14.974 88.867 44.922c24.089 29.948 36.133 67.057 36.133 111.328c0 44.271 -12.044 81.38 -36.133 111.328c-24.088 29.948 -53.711 44.922 -88.867 44.922c0 0 -80.078 0 -80.078 0c0 0 0 0 0 0" />
  </g>
</svg>