<svg height="1000px" width="1000px" xmlns="http://www.w3.org/2000/svg">
  <g>
    <path d="M156.25 906.25c0 0 0 -812.5 0 -812.5c0 -26.042 9.115 -48.177 27.344 -66.406c18.229 -18.229 40.364 -27.344 66.406 -27.344c0 0 500 0 500 0c26.042 0 48.177 9.115 66.406 27.344c18.229 18.229 27.344 40.364 27.344 66.406c0 0 0 812.5 0 812.5c0 26.042 -9.115 48.177 -27.344 66.406c-18.229 18.229 -40.364 27.344 -66.406 27.344c0 0 -500 0 -500 0c-26.042 0 -48.177 -9.115 -66.406 -27.344c-18.229 -18.229 -27.344 -40.364 -27.344 -66.406c0 0 0 0 0 0m62.5 0c0 9.115 2.93 16.602 8.789 22.461c5.859 5.859 13.346 8.789 22.461 8.789c0 0 500 0 500 0c9.115 0 16.602 -2.93 22.461 -8.789c5.859 -5.859 8.789 -13.346 8.789 -22.461c0 0 0 -62.5 0 -62.5c0 0 -562.5 0 -562.5 0c0 0 0 62.5 0 62.5c0 0 0 0 0 0m0 -93.75c0 0 562.5 0 562.5 0c0 0 0 -625 0 -625c0 0 -562.5 0 -562.5 0c0 0 0 625 0 625c0 0 0 0 0 0m0 -656.25c0 0 562.5 0 562.5 0c0 0 0 -62.5 0 -62.5c0 -9.115 -2.93 -16.602 -8.789 -22.461c-5.859 -5.859 -13.346 -8.789 -22.461 -8.789c0 0 -500 0 -500 0c-9.115 0 -16.602 2.93 -22.461 8.789c-5.859 5.859 -8.789 13.346 -8.789 22.461c0 0 0 62.5 0 62.5c0 0 0 0 0 0m218.75 -46.875c0 -10.417 5.208 -15.625 15.625 -15.625c0 0 93.75 0 93.75 0c10.417 0 15.625 5.208 15.625 15.625c0 10.417 -5.208 15.625 -15.625 15.625c0 0 -93.75 0 -93.75 0c-10.417 0 -15.625 -5.208 -15.625 -15.625c0 0 0 0 0 0m31.25 781.25c0 -10.417 5.208 -15.625 15.625 -15.625c0 0 31.25 0 31.25 0c10.417 0 15.625 5.208 15.625 15.625c0 10.417 -5.208 15.625 -15.625 15.625c0 0 -31.25 0 -31.25 0c-10.417 0 -15.625 -5.208 -15.625 -15.625c0 0 0 0 0 0" />
  </g>
</svg>