<svg height="1000" width="687" xmlns="http://www.w3.org/2000/svg"><path d="M0 906.256l0 -812.448q0 -39.06 27.342 -66.402t66.402 -27.342l499.968 0q39.06 0 66.402 27.342t27.342 66.402l0 812.448q0 39.06 -27.342 66.402t-66.402 27.342l-499.968 0q-39.06 0 -66.402 -27.342t-27.342 -66.402zm62.496 0q0 13.671 8.789 22.46t22.46 8.789l499.968 0q13.671 0 22.46 -8.789t8.789 -22.46l0 -62.496l-562.464 0l0 62.496zm0 -93.744l562.464 0l0 -624.96l-562.464 0l0 624.96zm0 -656.208l562.464 0l0 -62.496q0 -13.671 -8.789 -22.46t-22.46 -8.789l-499.968 0q-13.671 0 -22.46 8.789t-8.789 22.46l0 62.496zm218.736 -46.872q0 -15.624 15.624 -15.624l93.744 0q15.624 0 15.624 15.624t-15.624 15.624l-93.744 0q-15.624 0 -15.624 -15.624zm31.248 781.2q0 -15.624 15.624 -15.624l31.248 0q15.624 0 15.624 15.624t-15.624 15.624l-31.248 0q-15.624 0 -15.624 -15.624z"/></svg>