<svg height="1000" width="1000" xmlns="http://www.w3.org/2000/svg"><path d="M156.24 906.256v-812.448q0-39.06 27.342-66.402t66.402-27.342h499.968q39.06 0 66.402 27.342t27.342 66.402v812.448q0 39.06-27.342 66.402t-66.402 27.342h-499.968q-39.06 0-66.402-27.342t-27.342-66.402zm62.496 0q0 13.671 8.789 22.46t22.46 8.789h499.968q13.671 0 22.46-8.789t8.789-22.46v-62.496h-562.464v62.496zm0-93.744h562.464v-624.96h-562.464v624.96zm0-656.208h562.464v-62.496q0-13.671-8.789-22.46t-22.46-8.789h-499.968q-13.671 0-22.46 8.789t-8.789 22.46v62.496zm218.736-46.872q0-15.624 15.624-15.624h93.744q15.624 0 15.624 15.624t-15.624 15.624h-93.744q-15.624 0-15.624-15.624zm31.248 781.2q0-15.624 15.624-15.624h31.248q15.624 0 15.624 15.624t-15.624 15.624h-31.248q-15.624 0-15.624-15.624z"/></svg>