<svg height="1000px" width="1000px" xmlns="http://www.w3.org/2000/svg">
  <g>
    <path d="M1.953125 607.421875c20.833 -65.104 56.641 -123.047 107.422 -173.828c39.062 -40.365 106.771 -88.542 203.125 -144.531c85.937 -49.48 145.182 -90.495 177.734 -123.047c36.459 -36.459 61.198 -76.823 74.219 -121.094c3.906 -10.417 9.115 -19.531 15.625 -27.344c9.115 -7.812 18.88 -13.021 29.297 -15.625c23.437 -5.208 43.62 0 60.547 15.625c0 0 312.5 312.5 312.5 312.5c16.927 18.229 22.135 39.063 15.625 62.5c-20.834 66.406 -56.641 124.349 -107.422 173.828c-39.063 40.365 -106.771 88.542 -203.125 144.532c-85.938 49.479 -145.182 90.494 -177.735 123.046c-36.458 35.157 -61.197 75.521 -74.218 121.094c-3.906 10.417 -9.115 19.531 -15.625 27.344c-9.115 7.812 -18.88 13.021 -29.297 15.625c-23.438 5.208 -43.62 0 -60.547 -15.625c0 0 -312.5 -312.5 -312.5 -312.5c-16.927 -18.229 -22.135 -39.063 -15.625 -62.5c0 0 0 0 0 0m60.547 17.578c0 0 98.633 98.633 98.633 98.633c0 0 115.234 115.234 115.234 115.234c0 0 98.633 98.633 98.633 98.633c16.927 -52.083 44.922 -98.633 83.984 -139.648c39.063 -41.016 81.706 -74.87 127.93 -101.563c0 0 138.672 -80.078 138.672 -80.078c0 0 42.969 -33.854 128.906 -101.562c85.938 -67.709 113.607 -114.258 83.008 -139.649c0 0 -157.227 -157.226 -157.227 -157.226c0 0 -155.273 -155.274 -155.273 -155.274c-15.625 52.083 -43.294 98.633 -83.008 139.649c-39.713 41.015 -82.682 74.869 -128.906 101.562c0 0 -138.672 80.078 -138.672 80.078c0 0 -42.643 33.854 -127.93 101.563c-85.286 67.708 -113.281 114.257 -83.984 139.648c0 0 0 0 0 0m273.437 199.219c0 0 21.485 -29.297 21.485 -29.297c14.323 -18.229 29.948 -35.807 46.875 -52.734c14.323 -15.625 32.552 -31.901 54.687 -48.829c7.813 -6.51 14.974 -6.51 21.485 0c7.812 7.813 7.812 15.625 0 23.438c0 0 -1.954 0 -1.954 0c-20.833 16.927 -38.411 32.552 -52.734 46.875c-15.625 15.625 -29.948 31.901 -42.969 48.828c0 0 -19.531 27.344 -19.531 27.344c-1.302 1.302 -1.953 2.604 -1.953 3.906c-7.813 7.813 -15.625 7.813 -23.438 0c-5.208 -6.51 -5.859 -13.021 -1.953 -19.531c0 0 0 0 0 0m27.344 -359.375c1.302 -11.719 4.557 -22.787 9.766 -33.203c5.208 -11.719 11.718 -22.136 19.531 -31.25c0 -1.302 -1.953 -3.255 -5.859 -5.86c-2.605 -1.302 -3.907 -3.58 -3.907 -6.836c0 -3.255 1.302 -6.51 3.907 -9.765c2.604 -3.255 5.533 -4.883 8.789 -4.883c3.255 0 5.534 1.302 6.836 3.906c2.604 2.604 5.208 4.558 7.812 5.86c5.208 -5.209 12.044 -10.417 20.508 -15.625c8.463 -5.209 17.578 -9.115 27.344 -11.719c9.765 -2.604 19.531 -2.93 29.297 -0.977c9.765 1.953 17.903 6.836 24.414 14.649c5.208 5.208 7.812 11.067 7.812 17.578c0 6.51 -2.604 11.719 -7.812 15.625c-3.907 3.906 -9.115 5.208 -15.625 3.906c-3.907 -1.302 -9.766 -2.604 -17.579 -3.906c-6.51 -2.604 -13.346 -3.581 -20.507 -2.93c-7.162 0.651 -14.649 4.232 -22.461 10.742c13.021 13.021 29.948 31.901 50.781 56.641c9.115 -5.208 19.531 -9.766 31.25 -13.672c10.417 -3.906 20.833 -6.51 31.25 -7.812c10.417 -1.302 20.833 -0.326 31.25 2.929c10.417 3.256 20.833 8.789 31.25 16.602c9.115 7.812 15.625 16.276 19.531 25.39c2.604 9.115 3.255 18.881 1.953 29.297c0 10.417 -3.255 21.485 -9.765 33.203c-5.209 13.021 -12.37 25.391 -21.485 37.11c5.209 3.906 10.417 8.463 15.625 13.672c2.605 1.302 4.232 3.58 4.883 6.836c0.651 3.255 -0.325 6.185 -2.93 8.789c-2.604 2.604 -5.533 4.232 -8.789 4.883c-3.255 0.651 -6.184 -0.326 -8.789 -2.93c-6.51 -5.208 -11.718 -10.417 -15.625 -15.625c-11.718 11.719 -23.437 19.531 -35.156 23.437c-10.417 3.907 -21.484 5.86 -33.203 5.86c-10.417 -1.302 -19.857 -3.907 -28.32 -7.813c-8.464 -3.906 -15.3 -8.789 -20.508 -14.648c-5.208 -5.86 -7.813 -11.719 -7.813 -17.578c0 -5.86 2.605 -11.068 7.813 -15.625c5.208 -4.558 9.765 -6.836 13.672 -6.836c3.906 0 8.138 0.976 12.695 2.929c4.557 1.954 8.789 4.558 12.695 7.813c3.907 3.255 8.464 5.534 13.672 6.836c5.209 1.302 10.742 1.302 16.602 0c5.859 -1.302 12.695 -5.208 20.508 -11.719c-14.323 -14.323 -33.204 -35.156 -56.641 -62.5c-20.833 11.719 -42.318 18.229 -64.453 19.531c-19.531 1.302 -36.458 -3.906 -50.781 -15.625c-9.115 -7.812 -15.625 -16.276 -19.532 -25.39c-3.906 -9.115 -5.208 -18.88 -3.906 -29.297c0 0 0 0 0 0m41.992 -10.742c-0.651 4.557 -0.325 9.114 0.977 13.672c1.302 4.557 3.906 8.138 7.812 10.742c6.511 6.51 13.998 9.44 22.461 8.789c8.464 -0.651 19.206 -4.232 32.227 -10.742c-19.531 -20.834 -35.807 -37.761 -48.828 -50.782c-3.907 5.209 -7.162 10.092 -9.766 14.649c-2.604 4.557 -4.232 9.114 -4.883 13.672c0 0 0 0 0 0m112.305 -143.555c-6.51 -6.51 -6.51 -13.672 0 -21.484c1.302 -1.302 2.604 -1.954 3.906 -1.954c20.834 -16.927 38.412 -32.552 52.735 -46.875c15.625 -15.625 29.948 -31.901 42.968 -48.828c0 0 19.532 -27.343 19.532 -27.343c1.302 -2.605 2.604 -3.907 3.906 -3.907c7.812 -7.812 14.974 -7.812 21.484 0c6.511 6.511 7.162 13.672 1.953 21.485c0 0 -21.484 29.297 -21.484 29.297c-14.323 18.229 -29.948 35.807 -46.875 52.734c-14.323 15.625 -32.552 31.901 -54.688 48.828c-7.812 6.511 -15.625 5.859 -23.437 -1.953c0 0 0 0 0 0m3.906 195.312c20.834 23.438 38.412 42.318 52.735 56.641c3.906 -3.906 7.161 -8.463 9.765 -13.672c2.604 -5.208 4.558 -10.416 5.86 -15.625c1.302 -5.208 1.302 -10.091 0 -14.648c-1.302 -4.557 -4.232 -9.115 -8.789 -13.672c-4.558 -4.557 -9.441 -7.487 -14.649 -8.789c-5.208 -1.302 -10.417 -1.628 -15.625 -0.977c-5.208 0.651 -10.417 2.279 -15.625 4.883c-2.604 1.302 -7.161 3.255 -13.672 5.859c0 0 0 0 0 0" />
  </g>
</svg>