<svg height="1000" width="1000" xmlns="http://www.w3.org/2000/svg"><path d="M9.453 894.538q-21.483 -56.637 5.859 -117.18 37.107 -76.167 130.851 -107.415 39.06 -13.671 78.12 -13.671 68.355 0 119.133 37.107l0 -537.075q0 -23.436 14.648 -40.037t36.13 -22.46l531.216 -93.744l11.718 0q23.436 0 41.013 15.624 21.483 17.577 21.483 46.872l0 656.208q0 35.154 -15.624 66.402 -37.107 76.167 -130.851 107.415 -39.06 13.671 -78.12 13.671 -60.543 0 -107.415 -28.319t-64.449 -77.144q-21.483 -56.637 5.859 -117.18 37.107 -76.167 130.851 -107.415 39.06 -13.671 78.12 -13.671 68.355 0 119.133 37.107l0 -378.882l-519.498 91.791l-11.718 0l0 499.968q0 35.154 -15.624 66.402 -37.107 76.167 -130.851 107.415 -39.06 13.671 -78.12 13.671 -60.543 0 -107.415 -28.319t-64.449 -77.144zm57.614 -21.483q14.648 41.013 65.425 57.614t107.415 -2.929 84.956 -61.52 12.694 -83.002 -65.425 -57.614 -106.439 2.929 -84.956 61.52 -13.671 83.002zm336.892 -623.007l531.216 -93.744l0 -93.744l-531.216 93.744l0 93.744zm255.843 529.263q15.624 41.013 66.402 57.614t106.439 -2.929 84.956 -61.52 13.671 -83.002 -66.402 -57.614 -106.439 2.929 -84.956 61.52 -13.671 83.002z"/></svg>