<svg height="1000px" width="1000px" xmlns="http://www.w3.org/2000/svg">
  <g>
    <path d="M9.765625 894.53125c-14.323 -37.76 -12.37 -76.823 5.859 -117.188c24.74 -50.781 68.36 -86.588 130.86 -107.421c26.041 -9.115 52.083 -13.672 78.125 -13.672c45.573 0 85.286 12.37 119.14 37.109c0 0 0 -443.359 0 -443.359c0 0 0 -31.25 0 -31.25c0 0 0 -62.5 0 -62.5c0 -15.625 4.883 -28.972 14.649 -40.039c9.765 -11.068 21.81 -18.555 36.133 -22.461c0 0 531.25 -93.75 531.25 -93.75c0 0 11.718 0 11.718 0c15.625 0 29.297 5.208 41.016 15.625c14.323 11.719 21.484 27.344 21.484 46.875c0 0 0 62.5 0 62.5c0 0 0 31.25 0 31.25c0 0 0 562.5 0 562.5c0 23.437 -5.208 45.573 -15.625 66.406c-24.739 50.781 -68.359 86.589 -130.859 107.422c-26.042 9.114 -52.083 13.672 -78.125 13.672c-40.365 0 -76.172 -9.44 -107.422 -28.321c-31.25 -18.88 -52.734 -44.596 -64.453 -77.148c-14.323 -37.76 -12.37 -76.823 5.859 -117.188c24.74 -50.781 68.36 -86.588 130.86 -107.421c26.041 -9.115 52.083 -13.672 78.125 -13.672c45.573 0 85.286 12.37 119.14 37.109c0 0 0 -378.906 0 -378.906c0 0 -519.531 91.797 -519.531 91.797c0 0 -11.719 0 -11.719 0c0 0 0 500 0 500c0 23.437 -5.208 45.573 -15.625 66.406c-24.739 50.781 -68.359 86.589 -130.859 107.422c-26.042 9.114 -52.083 13.672 -78.125 13.672c-40.365 0 -76.172 -9.44 -107.422 -28.321c-31.25 -18.88 -52.734 -44.596 -64.453 -77.148c0 0 0 0 0 0m57.617 -21.484c9.766 27.343 31.576 46.549 65.43 57.617c33.854 11.068 69.661 10.091 107.422 -2.93c37.76 -13.021 66.08 -33.529 84.961 -61.523c18.88 -27.995 23.112 -55.664 12.695 -83.008c-10.417 -27.344 -32.227 -46.55 -65.43 -57.617c-33.203 -11.068 -68.685 -10.091 -106.445 2.929c-37.76 13.021 -66.081 33.529 -84.961 61.524c-18.88 27.995 -23.437 55.664 -13.672 83.008c0 0 0 0 0 0m336.914 -623.047c0 0 531.25 -93.75 531.25 -93.75c0 0 0 -31.25 0 -31.25c0 0 0 -62.5 0 -62.5c0 0 -531.25 93.75 -531.25 93.75c0 0 0 62.5 0 62.5c0 0 0 31.25 0 31.25c0 0 0 0 0 0m255.86 529.297c10.416 27.343 32.552 46.549 66.406 57.617c33.854 11.068 69.336 10.091 106.445 -2.93c37.11 -13.021 65.43 -33.529 84.961 -61.523c19.531 -27.995 24.089 -55.664 13.672 -83.008c-10.417 -27.344 -32.552 -46.55 -66.406 -57.617c-33.854 -11.068 -69.336 -10.091 -106.446 2.929c-37.109 13.021 -65.429 33.529 -84.961 61.524c-19.531 27.995 -24.088 55.664 -13.671 83.008c0 0 0 0 0 0" />
  </g>
</svg>