<svg height="1000" width="1000" xmlns="http://www.w3.org/2000/svg"><path d="M0 875.008l0 -749.952q0 -39.06 27.342 -66.402t66.402 -27.342l656.208 0q25.389 0 44.919 17.577l187.488 187.488q17.577 19.53 17.577 44.919l0 593.712q0 39.06 -27.342 66.402t-66.402 27.342l-812.448 0q-39.06 0 -66.402 -27.342t-27.342 -66.402zm62.496 0q0 13.671 8.789 22.46t22.46 8.789l812.448 0q13.671 0 22.46 -8.789t8.789 -22.46l0 -562.464l-124.992 0q-39.06 0 -66.402 -27.342t-27.342 -66.402l0 -124.992l-624.96 0q-13.671 0 -22.46 8.789t-8.789 22.46l0 749.952zm62.496 -78.12q0 -15.624 15.624 -15.624l718.704 0q15.624 0 15.624 15.624t-15.624 15.624l-718.704 0q-15.624 0 -15.624 -15.624zm0 -93.744q0 -15.624 15.624 -15.624l718.704 0q15.624 0 15.624 15.624t-15.624 15.624l-718.704 0q-15.624 0 -15.624 -15.624zm0 -93.744q0 -15.624 15.624 -15.624l718.704 0q15.624 0 15.624 15.624t-15.624 15.624l-718.704 0q-15.624 0 -15.624 -15.624zm0 -93.744q0 -15.624 15.624 -15.624l718.704 0q15.624 0 15.624 15.624t-15.624 15.624l-718.704 0q-15.624 0 -15.624 -15.624zm0 -109.368l0 -187.488q0 -13.671 8.789 -22.46t22.46 -8.789l218.736 0q13.671 0 22.46 8.789t8.789 22.46l0 187.488q0 13.671 -8.789 22.46t-22.46 8.789l-218.736 0q-13.671 0 -22.46 -8.789t-8.789 -22.46zm62.496 -31.248l156.24 0l0 -124.992l-156.24 0l0 124.992zm281.232 46.872q0 -15.624 15.624 -15.624l374.976 0q15.624 0 15.624 15.624t-15.624 15.624l-374.976 0q-15.624 0 -15.624 -15.624zm0 -93.744q0 -15.624 15.624 -15.624l156.24 0q15.624 0 15.624 15.624t-15.624 15.624l-156.24 0q-15.624 0 -15.624 -15.624zm0 -93.744q0 -15.624 15.624 -15.624l156.24 0q15.624 0 15.624 15.624t-15.624 15.624l-156.24 0q-15.624 0 -15.624 -15.624zm281.232 -15.624q0 25.389 18.553 43.943t43.943 18.553l124.992 0l-187.488 -187.488l0 124.992z"/></svg>