<svg height="1000px" width="1000px" xmlns="http://www.w3.org/2000/svg">
  <g>
    <path d="M0 875c0 0 0 -750 0 -750c0 -26.042 9.115 -48.177 27.344 -66.406c18.229 -18.229 40.364 -27.344 66.406 -27.344c0 0 656.25 0 656.25 0c16.927 0 31.901 5.859 44.922 17.578c0 0 187.5 187.5 187.5 187.5c11.719 13.021 17.578 27.995 17.578 44.922c0 0 0 593.75 0 593.75c0 26.042 -9.115 48.177 -27.344 66.406c-18.229 18.229 -40.364 27.344 -66.406 27.344c0 0 -812.5 0 -812.5 0c-26.042 0 -48.177 -9.115 -66.406 -27.344c-18.229 -18.229 -27.344 -40.364 -27.344 -66.406c0 0 0 0 0 0m62.5 0c0 9.115 2.93 16.602 8.789 22.461c5.859 5.859 13.346 8.789 22.461 8.789c0 0 812.5 0 812.5 0c9.115 0 16.602 -2.93 22.461 -8.789c5.859 -5.859 8.789 -13.346 8.789 -22.461c0 0 0 -562.5 0 -562.5c0 0 -93.75 0 -93.75 0c0 0 -31.25 0 -31.25 0c-26.042 0 -48.177 -9.115 -66.406 -27.344c-18.229 -18.229 -27.344 -40.364 -27.344 -66.406c0 0 0 -125 0 -125c0 0 -625 0 -625 0c-9.115 0 -16.602 2.93 -22.461 8.789c-5.859 5.859 -8.789 13.346 -8.789 22.461c0 0 0 750 0 750c0 0 0 0 0 0m62.5 -78.125c0 -10.417 5.208 -15.625 15.625 -15.625c0 0 718.75 0 718.75 0c10.417 0 15.625 5.208 15.625 15.625c0 10.417 -5.208 15.625 -15.625 15.625c0 0 -718.75 0 -718.75 0c-10.417 0 -15.625 -5.208 -15.625 -15.625c0 0 0 0 0 0m0 -93.75c0 -10.417 5.208 -15.625 15.625 -15.625c0 0 718.75 0 718.75 0c10.417 0 15.625 5.208 15.625 15.625c0 10.417 -5.208 15.625 -15.625 15.625c0 0 -718.75 0 -718.75 0c-10.417 0 -15.625 -5.208 -15.625 -15.625c0 0 0 0 0 0m0 -93.75c0 -10.417 5.208 -15.625 15.625 -15.625c0 0 718.75 0 718.75 0c10.417 0 15.625 5.208 15.625 15.625c0 10.417 -5.208 15.625 -15.625 15.625c0 0 -718.75 0 -718.75 0c-10.417 0 -15.625 -5.208 -15.625 -15.625c0 0 0 0 0 0m0 -93.75c0 -10.417 5.208 -15.625 15.625 -15.625c0 0 718.75 0 718.75 0c10.417 0 15.625 5.208 15.625 15.625c0 10.417 -5.208 15.625 -15.625 15.625c0 0 -718.75 0 -718.75 0c-10.417 0 -15.625 -5.208 -15.625 -15.625c0 0 0 0 0 0m0 -109.375c0 0 0 -187.5 0 -187.5c0 -9.115 2.93 -16.602 8.789 -22.461c5.859 -5.859 13.346 -8.789 22.461 -8.789c0 0 218.75 0 218.75 0c9.115 0 16.602 2.93 22.461 8.789c5.859 5.859 8.789 13.346 8.789 22.461c0 0 0 187.5 0 187.5c0 9.115 -2.93 16.602 -8.789 22.461c-5.859 5.859 -13.346 8.789 -22.461 8.789c0 0 -218.75 0 -218.75 0c-9.115 0 -16.602 -2.93 -22.461 -8.789c-5.859 -5.859 -8.789 -13.346 -8.789 -22.461c0 0 0 0 0 0m62.5 -31.25c0 0 156.25 0 156.25 0c0 0 0 -125 0 -125c0 0 -156.25 0 -156.25 0c0 0 0 125 0 125c0 0 0 0 0 0m281.25 46.875c0 -10.417 5.208 -15.625 15.625 -15.625c0 0 375 0 375 0c10.417 0 15.625 5.208 15.625 15.625c0 10.417 -5.208 15.625 -15.625 15.625c0 0 -375 0 -375 0c-10.417 0 -15.625 -5.208 -15.625 -15.625c0 0 0 0 0 0m0 -93.75c0 -10.417 5.208 -15.625 15.625 -15.625c0 0 156.25 0 156.25 0c10.417 0 15.625 5.208 15.625 15.625c0 10.417 -5.208 15.625 -15.625 15.625c0 0 -156.25 0 -156.25 0c-10.417 0 -15.625 -5.208 -15.625 -15.625c0 0 0 0 0 0m0 -93.75c0 -10.417 5.208 -15.625 15.625 -15.625c0 0 156.25 0 156.25 0c10.417 0 15.625 5.208 15.625 15.625c0 10.417 -5.208 15.625 -15.625 15.625c0 0 -156.25 0 -156.25 0c-10.417 0 -15.625 -5.208 -15.625 -15.625c0 0 0 0 0 0m281.25 -15.625c0 16.927 6.185 31.576 18.555 43.945c12.369 12.37 27.018 18.555 43.945 18.555c0 0 31.25 0 31.25 0c0 0 93.75 0 93.75 0c0 0 -187.5 -187.5 -187.5 -187.5c0 0 0 125 0 125c0 0 0 0 0 0" />
  </g>
</svg>