<svg height="1000" width="1000" xmlns="http://www.w3.org/2000/svg"><path d="M0 875.008v-749.952q0-39.06 27.342-66.402t66.402-27.342h656.208q25.389 0 44.919 17.577l187.488 187.488q17.577 19.53 17.577 44.919v593.712q0 39.06-27.342 66.402t-66.402 27.342h-812.448q-39.06 0-66.402-27.342t-27.342-66.402zm62.496 0q0 13.671 8.789 22.46t22.46 8.789h812.448q13.671 0 22.46-8.789t8.789-22.46v-562.464h-124.992q-39.06 0-66.402-27.342t-27.342-66.402v-124.992h-624.96q-13.671 0-22.46 8.789t-8.789 22.46v749.952zm62.496-78.12q0-15.624 15.624-15.624h718.704q15.624 0 15.624 15.624t-15.624 15.624h-718.704q-15.624 0-15.624-15.624zm0-93.744q0-15.624 15.624-15.624h718.704q15.624 0 15.624 15.624t-15.624 15.624h-718.704q-15.624 0-15.624-15.624zm0-93.744q0-15.624 15.624-15.624h718.704q15.624 0 15.624 15.624t-15.624 15.624h-718.704q-15.624 0-15.624-15.624zm0-93.744q0-15.624 15.624-15.624h718.704q15.624 0 15.624 15.624t-15.624 15.624h-718.704q-15.624 0-15.624-15.624zm0-109.368v-187.488q0-13.671 8.789-22.46t22.46-8.789h218.736q13.671 0 22.46 8.789t8.789 22.46v187.488q0 13.671-8.789 22.46t-22.46 8.789h-218.736q-13.671 0-22.46-8.789t-8.789-22.46zm62.496-31.248h156.24v-124.992h-156.24v124.992zm281.232 46.872q0-15.624 15.624-15.624h374.976q15.624 0 15.624 15.624t-15.624 15.624h-374.976q-15.624 0-15.624-15.624zm0-93.744q0-15.624 15.624-15.624h156.24q15.624 0 15.624 15.624t-15.624 15.624h-156.24q-15.624 0-15.624-15.624zm0-93.744q0-15.624 15.624-15.624h156.24q15.624 0 15.624 15.624t-15.624 15.624h-156.24q-15.624 0-15.624-15.624zm281.232-15.624q0 25.389 18.553 43.943t43.943 18.553h124.992l-187.488-187.488v124.992z"/></svg>