<svg height="1000" width="1000" xmlns="http://www.w3.org/2000/svg"><path d="M.217 659.202q-1.953 -18.553 13.671 -28.319l937.44 -624.96q7.812 -5.859 17.577 -5.859t17.577 5.859q15.624 9.765 13.671 31.248l-156.24 937.44q-3.906 13.671 -15.624 21.483 -7.812 3.906 -15.624 3.906 -5.859 0 -11.718 -1.953l-302.715 -121.086 -64.449 107.415q-9.765 15.624 -27.342 15.624t-27.342 -15.624l-115.227 -201.159 -244.125 -97.65q-17.577 -7.812 -19.53 -26.366zm97.65 -10.742l189.441 76.167q1.953 1.953 4.883 3.906l2.929 1.953 527.31 -564.417zm220.689 103.509l87.885 152.334 503.874 -787.059zm183.582 62.496q11.718 1.953 19.53 3.906l265.608 107.415 124.992 -747.999z"/></svg>