<svg height="1000px" width="1000px" xmlns="http://www.w3.org/2000/svg">
  <g>
    <path d="M0 659.1796875c-1.302 -12.37 3.255 -21.81 13.672 -28.32c0 0 937.5 -625 937.5 -625c5.208 -3.907 11.068 -5.86 17.578 -5.86c6.51 0 12.37 1.953 17.578 5.86c10.417 6.51 14.974 16.927 13.672 31.25c0 0 -156.25 937.5 -156.25 937.5c-2.604 9.114 -7.813 16.276 -15.625 21.484c-5.208 2.604 -10.417 3.906 -15.625 3.906c-3.906 0 -7.813 -0.651 -11.719 -1.953c0 0 -302.734 -121.094 -302.734 -121.094c0 0 -64.453 107.422 -64.453 107.422c-6.511 10.417 -15.625 15.625 -27.344 15.625c-11.719 0 -20.833 -5.208 -27.344 -15.625c0 0 -115.234 -201.172 -115.234 -201.172c0 0 -244.141 -97.656 -244.141 -97.656c-11.718 -5.208 -18.229 -13.997 -19.531 -26.367c0 0 0 0 0 0m97.656 -10.742c0 0 189.453 76.172 189.453 76.172c1.302 1.302 2.93 2.604 4.883 3.906c0 0 2.93 1.953 2.93 1.953c0 0 527.344 -564.453 527.344 -564.453c0 0 -724.61 482.422 -724.61 482.422m220.703 103.515c0 0 87.891 152.344 87.891 152.344c0 0 503.906 -787.109 503.906 -787.109c0 0 -591.797 634.765 -591.797 634.765m183.594 62.5c7.813 1.303 14.323 2.605 19.531 3.907c0 0 265.625 107.422 265.625 107.422c0 0 125 -748.047 125 -748.047c0 0 -410.156 636.718 -410.156 636.718" />
  </g>
</svg>