<svg height="1000px" width="1000px" xmlns="http://www.w3.org/2000/svg">
  <g>
    <path d="M0 312.5c0 -50.781 20.833 -92.448 62.5 -125c0 0 0 -93.75 0 -93.75c0 -26.042 9.115 -48.177 27.344 -66.406c18.229 -18.229 40.364 -27.344 66.406 -27.344c26.042 0 48.177 9.115 66.406 27.344c18.229 18.229 27.344 40.364 27.344 66.406c0 0 0 93.75 0 93.75c41.667 32.552 62.5 74.219 62.5 125c0 50.781 -20.833 92.448 -62.5 125c0 0 0 468.75 0 468.75c0 26.042 -9.115 48.177 -27.344 66.406c-18.229 18.229 -40.364 27.344 -66.406 27.344c-26.042 0 -48.177 -9.115 -66.406 -27.344c-18.229 -18.229 -27.344 -40.364 -27.344 -66.406c0 0 0 -468.75 0 -468.75c-41.667 -32.552 -62.5 -74.219 -62.5 -125c0 0 0 0 0 0m62.5 0c0 7.813 1.302 16.276 3.906 25.391c0 0 1.953 5.859 1.953 5.859c2.605 9.115 6.511 16.927 11.719 23.438c5.208 7.812 11.719 14.648 19.531 20.507c7.813 5.86 16.276 10.091 25.391 12.696c10.417 3.906 20.833 5.859 31.25 5.859c10.417 0 20.833 -1.953 31.25 -5.859c9.115 -2.605 17.578 -7.162 25.391 -13.672c7.812 -5.209 14.323 -11.719 19.531 -19.531c5.208 -6.511 9.114 -14.323 11.719 -23.438c0 0 1.953 -5.859 1.953 -5.859c2.604 -9.115 3.906 -17.579 3.906 -25.391c0 -7.813 -1.302 -16.276 -3.906 -25.391c-1.302 -2.604 -1.953 -4.557 -1.953 -5.859c-2.605 -9.115 -6.511 -16.927 -11.719 -23.438c-5.208 -7.812 -11.719 -14.648 -19.531 -20.507c-7.813 -5.86 -16.276 -10.091 -25.391 -12.696c-10.417 -3.906 -20.833 -5.859 -31.25 -5.859c-10.417 0 -20.833 1.953 -31.25 5.859c-9.115 2.605 -17.578 7.162 -25.391 13.672c-6.51 5.209 -13.02 11.719 -19.531 19.531c-5.208 6.511 -9.114 14.323 -11.719 23.438c0 0 -1.953 5.859 -1.953 5.859c-2.604 9.115 -3.906 17.579 -3.906 25.391c0 0 0 0 0 0m62.5 593.75c0 9.115 2.93 16.602 8.789 22.461c5.859 5.859 13.346 8.789 22.461 8.789c9.115 0 16.602 -2.93 22.461 -8.789c5.859 -5.859 8.789 -13.346 8.789 -22.461c0 0 0 -441.406 0 -441.406c-10.417 2.604 -20.833 3.906 -31.25 3.906c-10.417 0 -20.833 -1.302 -31.25 -3.906c0 0 0 441.406 0 441.406c0 0 0 0 0 0m0 -746.094c10.417 -2.604 20.833 -3.906 31.25 -3.906c10.417 0 20.833 1.302 31.25 3.906c0 0 0 -66.406 0 -66.406c0 -9.115 -2.93 -16.602 -8.789 -22.461c-5.859 -5.859 -13.346 -8.789 -22.461 -8.789c-9.115 0 -16.602 2.93 -22.461 8.789c-5.859 5.859 -8.789 13.346 -8.789 22.461c0 0 0 66.406 0 66.406c0 0 0 0 0 0m218.75 527.344c0 -50.781 20.833 -92.448 62.5 -125c0 0 0 -468.75 0 -468.75c0 -26.042 9.115 -48.177 27.344 -66.406c18.229 -18.229 40.364 -27.344 66.406 -27.344c26.042 0 48.177 9.115 66.406 27.344c18.229 18.229 27.344 40.364 27.344 66.406c0 0 0 468.75 0 468.75c41.667 32.552 62.5 74.219 62.5 125c0 50.781 -20.833 92.448 -62.5 125c0 0 0 93.75 0 93.75c0 26.042 -9.115 48.177 -27.344 66.406c-18.229 18.229 -40.364 27.344 -66.406 27.344c-26.042 0 -48.177 -9.115 -66.406 -27.344c-18.229 -18.229 -27.344 -40.364 -27.344 -66.406c0 0 0 -93.75 0 -93.75c-41.667 -32.552 -62.5 -74.219 -62.5 -125c0 0 0 0 0 0m62.5 0c0 7.813 1.302 16.276 3.906 25.391c0 0 1.953 5.859 1.953 5.859c2.605 9.115 6.511 16.927 11.719 23.438c5.208 7.812 11.719 14.648 19.531 20.507c7.813 5.86 16.276 10.091 25.391 12.696c10.417 3.906 20.833 5.859 31.25 5.859c10.417 0 20.833 -1.953 31.25 -5.859c9.115 -2.605 17.578 -7.162 25.391 -13.672c7.812 -5.209 14.323 -11.719 19.531 -19.531c5.208 -6.511 9.114 -14.323 11.719 -23.438c0 -1.302 0.651 -3.255 1.953 -5.859c2.604 -9.115 3.906 -17.578 3.906 -25.391c0 -7.813 -1.302 -16.276 -3.906 -25.391c0 0 -1.953 -5.859 -1.953 -5.859c-2.605 -9.115 -6.511 -16.927 -11.719 -23.438c-5.208 -7.812 -11.719 -14.322 -19.531 -19.531c-7.813 -6.51 -16.276 -11.067 -25.391 -13.672c-10.417 -3.906 -20.833 -5.859 -31.25 -5.859c-10.417 0 -20.833 1.953 -31.25 5.859c-9.115 2.605 -17.578 7.162 -25.391 13.672c-6.51 5.209 -13.02 11.719 -19.531 19.531c-5.208 6.511 -9.114 14.323 -11.719 23.438c0 0 -1.953 5.859 -1.953 5.859c-2.604 9.115 -3.906 17.578 -3.906 25.391c0 0 0 0 0 0m62.5 218.75c0 9.115 2.93 16.602 8.789 22.461c5.859 5.859 13.346 8.789 22.461 8.789c9.115 0 16.602 -2.93 22.461 -8.789c5.859 -5.859 8.789 -13.346 8.789 -22.461c0 0 0 -66.406 0 -66.406c-10.417 2.604 -20.833 3.906 -31.25 3.906c-10.417 0 -20.833 -1.302 -31.25 -3.906c0 0 0 66.406 0 66.406c0 0 0 0 0 0m0 -371.094c10.417 -2.604 20.833 -3.906 31.25 -3.906c10.417 0 20.833 1.302 31.25 3.906c0 0 0 -441.406 0 -441.406c0 -9.115 -2.93 -16.602 -8.789 -22.461c-5.859 -5.859 -13.346 -8.789 -22.461 -8.789c-9.115 0 -16.602 2.93 -22.461 8.789c-5.859 5.859 -8.789 13.346 -8.789 22.461c0 0 0 441.406 0 441.406c0 0 0 0 0 0m218.75 -222.656c0 -50.781 20.833 -92.448 62.5 -125c0 0 0 -93.75 0 -93.75c0 -26.042 9.115 -48.177 27.344 -66.406c18.229 -18.229 40.364 -27.344 66.406 -27.344c26.042 0 48.177 9.115 66.406 27.344c18.229 18.229 27.344 40.364 27.344 66.406c0 0 0 93.75 0 93.75c41.667 32.552 62.5 74.219 62.5 125c0 50.781 -20.833 92.448 -62.5 125c0 0 0 468.75 0 468.75c0 26.042 -9.115 48.177 -27.344 66.406c-18.229 18.229 -40.364 27.344 -66.406 27.344c-26.042 0 -48.177 -9.115 -66.406 -27.344c-18.229 -18.229 -27.344 -40.364 -27.344 -66.406c0 0 0 -468.75 0 -468.75c-41.667 -32.552 -62.5 -74.219 -62.5 -125c0 0 0 0 0 0m62.5 0c0 7.813 1.302 16.276 3.906 25.391c0 0 1.953 5.859 1.953 5.859c2.605 9.115 6.511 16.927 11.719 23.438c5.208 7.812 11.719 14.648 19.531 20.507c7.813 5.86 16.276 10.091 25.391 12.696c10.417 3.906 20.833 5.859 31.25 5.859c10.417 0 20.833 -1.953 31.25 -5.859c9.115 -2.605 17.578 -7.162 25.391 -13.672c7.812 -5.209 14.323 -11.719 19.531 -19.531c5.208 -6.511 9.114 -14.323 11.719 -23.438c0 -1.302 0.651 -3.255 1.953 -5.859c2.604 -9.115 3.906 -17.579 3.906 -25.391c0 -7.813 -1.302 -16.276 -3.906 -25.391c0 0 -1.953 -5.859 -1.953 -5.859c-2.605 -9.115 -6.511 -16.927 -11.719 -23.438c-5.208 -7.812 -11.719 -14.322 -19.531 -19.531c-7.813 -6.51 -16.276 -11.067 -25.391 -13.672c-10.417 -3.906 -20.833 -5.859 -31.25 -5.859c-10.417 0 -20.833 1.953 -31.25 5.859c-9.115 2.605 -17.578 7.162 -25.391 13.672c-7.812 5.209 -14.323 11.719 -19.531 19.531c-5.208 6.511 -9.114 14.323 -11.719 23.438c0 0 -1.953 5.859 -1.953 5.859c-2.604 9.115 -3.906 17.579 -3.906 25.391c0 0 0 0 0 0m62.5 593.75c0 9.115 2.93 16.602 8.789 22.461c5.859 5.859 13.346 8.789 22.461 8.789c9.115 0 16.602 -2.93 22.461 -8.789c5.859 -5.859 8.789 -13.346 8.789 -22.461c0 0 0 -441.406 0 -441.406c-10.417 2.604 -20.833 3.906 -31.25 3.906c-10.417 0 -20.833 -1.302 -31.25 -3.906c0 0 0 441.406 0 441.406c0 0 0 0 0 0m0 -746.094c10.417 -2.604 20.833 -3.906 31.25 -3.906c10.417 0 20.833 1.302 31.25 3.906c0 0 0 -66.406 0 -66.406c0 -9.115 -2.93 -16.602 -8.789 -22.461c-5.859 -5.859 -13.346 -8.789 -22.461 -8.789c-9.115 0 -16.602 2.93 -22.461 8.789c-5.859 5.859 -8.789 13.346 -8.789 22.461c0 0 0 66.406 0 66.406c0 0 0 0 0 0" />
  </g>
</svg>