<svg height="1000" width="1000" xmlns="http://www.w3.org/2000/svg"><path d="M0 312.544q0-76.167 62.496-124.992v-93.744q0-39.06 27.342-66.402t66.402-27.342 66.402 27.342 27.342 66.402v93.744q62.496 48.825 62.496 124.992t-62.496 124.992v468.72q0 39.06-27.342 66.402t-66.402 27.342-66.402-27.342-27.342-66.402v-468.72q-62.496-48.825-62.496-124.992zm62.496 0q0 11.718 3.906 25.389l1.953 5.859q3.906 13.671 11.718 23.436 7.812 11.718 19.53 20.506t25.389 12.694q15.624 5.859 31.248 5.859t31.248-5.859q13.671-3.906 25.389-13.671 11.718-7.812 19.53-19.53 7.812-9.765 11.718-23.436l1.953-5.859q3.906-13.671 3.906-25.389t-3.906-25.389q-1.953-3.906-1.953-5.859-3.906-13.671-11.718-23.436-7.812-11.718-19.53-20.506t-25.389-12.694q-15.624-5.859-31.248-5.859t-31.248 5.859q-13.671 3.906-25.389 13.671-9.765 7.812-19.53 19.53-7.812 9.765-11.718 23.436l-1.953 5.859q-3.906 13.671-3.906 25.389zm62.496 593.712q0 13.671 8.789 22.46t22.46 8.789 22.46-8.789 8.789-22.46v-441.378q-15.624 3.906-31.248 3.906t-31.248-3.906v441.378zm0-746.046q15.624-3.906 31.248-3.906t31.248 3.906v-66.402q0-13.671-8.789-22.46t-22.46-8.789-22.46 8.789-8.789 22.46v66.402zm218.736 527.31q0-76.167 62.496-124.992v-468.72q0-39.06 27.342-66.402t66.402-27.342 66.402 27.342 27.342 66.402v468.72q62.496 48.825 62.496 124.992t-62.496 124.992v93.744q0 39.06-27.342 66.402t-66.402 27.342-66.402-27.342-27.342-66.402v-93.744q-62.496-48.825-62.496-124.992zm62.496 0q0 11.718 3.906 25.389l1.953 5.859q3.906 13.671 11.718 23.436 7.812 11.718 19.53 20.506t25.389 12.694q15.624 5.859 31.248 5.859t31.248-5.859q13.671-3.906 25.389-13.671 11.718-7.812 19.53-19.53 7.812-9.765 11.718-23.436 0-1.953 1.953-5.859 3.906-13.671 3.906-25.389t-3.906-25.389l-1.953-5.859q-3.906-13.671-11.718-23.436-7.812-11.718-19.53-19.53-11.718-9.765-25.389-13.671-15.624-5.859-31.248-5.859t-31.248 5.859q-13.671 3.906-25.389 13.671-9.765 7.812-19.53 19.53-7.812 9.765-11.718 23.436l-1.953 5.859q-3.906 13.671-3.906 25.389zm62.496 218.736q0 13.671 8.789 22.46t22.46 8.789 22.46-8.789 8.789-22.46v-66.402q-15.624 3.906-31.248 3.906t-31.248-3.906v66.402zm0-371.07q15.624-3.906 31.248-3.906t31.248 3.906v-441.378q0-13.671-8.789-22.46t-22.46-8.789-22.46 8.789-8.789 22.46v441.378zm218.736-222.642q0-76.167 62.496-124.992v-93.744q0-39.06 27.342-66.402t66.402-27.342 66.402 27.342 27.342 66.402v93.744q62.496 48.825 62.496 124.992t-62.496 124.992v468.72q0 39.06-27.342 66.402t-66.402 27.342-66.402-27.342-27.342-66.402v-468.72q-62.496-48.825-62.496-124.992zm62.496 0q0 11.718 3.906 25.389l1.953 5.859q3.906 13.671 11.718 23.436 7.812 11.718 19.53 20.506t25.389 12.694q15.624 5.859 31.248 5.859t31.248-5.859q13.671-3.906 25.389-13.671 11.718-7.812 19.53-19.53 7.812-9.765 11.718-23.436 0-1.953 1.953-5.859 3.906-13.671 3.906-25.389t-3.906-25.389l-1.953-5.859q-3.906-13.671-11.718-23.436-7.812-11.718-19.53-19.53-11.718-9.765-25.389-13.671-15.624-5.859-31.248-5.859t-31.248 5.859q-13.671 3.906-25.389 13.671-11.718 7.812-19.53 19.53-7.812 9.765-11.718 23.436l-1.953 5.859q-3.906 13.671-3.906 25.389zm62.496 593.712q0 13.671 8.789 22.46t22.46 8.789 22.46-8.789 8.789-22.46v-441.378q-15.624 3.906-31.248 3.906t-31.248-3.906v441.378zm0-746.046q15.624-3.906 31.248-3.906t31.248 3.906v-66.402q0-13.671-8.789-22.46t-22.46-8.789-22.46 8.789-8.789 22.46v66.402z"/></svg>