<svg height="1000px" width="1000px" xmlns="http://www.w3.org/2000/svg">
  <g>
    <path d="M0 890.625c0 -2.604 0.326 -5.208 0.977 -7.813c0.651 -2.604 0.976 -5.208 0.976 -7.812c0 -2.604 0.326 -5.208 0.977 -7.813c0.651 -2.604 0.976 -4.557 0.976 -5.859c0 0 0 -1.953 0 -1.953c0 0 74.219 -267.578 74.219 -267.578c6.51 -20.833 16.927 -38.412 31.25 -52.735c0 0 324.219 -324.218 324.219 -324.218c0 0 0 -1.953 0 -1.953c0 0 1.953 -1.953 1.953 -1.953c0 0 150.391 -152.344 150.391 -152.344c40.364 -39.063 89.192 -58.594 146.484 -58.594c70.312 0 132.161 26.693 185.547 80.078c49.479 49.479 76.497 106.445 81.054 170.899c4.558 64.453 -14.648 118.164 -57.617 161.132c0 0 -476.562 480.469 -476.562 480.469c-15.625 15.625 -33.854 26.042 -54.688 31.25c0 0 -263.672 70.313 -263.672 70.313c0 0 -2.929 0.976 -2.929 0.976c-1.953 0.651 -4.232 1.302 -6.836 1.953c-2.604 0.651 -5.534 0.977 -8.789 0.977c-3.256 0 -6.511 0.325 -9.766 0.976c-3.255 0.651 -6.185 0.977 -8.789 0.977c-29.948 0 -55.664 -10.742 -77.148 -32.227c-21.485 -21.484 -32.227 -47.2 -32.227 -77.148c0 0 0 0 0 0m62.5 0c0 13.021 4.557 24.089 13.672 33.203c9.114 9.115 20.182 13.672 33.203 13.672c3.906 0 11.068 -1.302 21.484 -3.906c0 0 115.235 -31.25 115.235 -31.25c2.604 -39.063 -11.719 -74.219 -42.969 -105.469c-29.948 -29.948 -65.104 -44.271 -105.469 -42.969c0 0 -31.25 119.141 -31.25 119.141c-2.604 9.114 -3.906 14.974 -3.906 17.578c0 0 0 0 0 0m44.922 -167.969c44.271 1.302 83.333 18.88 117.187 52.735c33.855 33.854 51.433 73.567 52.735 119.14c0 0 115.234 -29.297 115.234 -29.297c0 0 11.719 -5.859 11.719 -5.859c27.344 -31.25 38.411 -69.661 33.203 -115.234c-5.208 -45.573 -25.391 -85.938 -60.547 -121.094c-33.854 -32.552 -72.265 -52.083 -115.234 -58.594c-42.969 -6.51 -80.078 1.302 -111.328 23.438c-5.209 6.51 -9.115 13.672 -11.719 21.484c0 0 -31.25 113.281 -31.25 113.281m130.859 -224.609c29.948 1.302 59.896 7.812 89.844 19.531c0 0 294.922 -294.922 294.922 -294.922c-58.594 -14.323 -106.771 -3.255 -144.531 33.203c0 0 -240.235 242.188 -240.235 242.188m119.141 35.156c24.739 13.021 46.224 27.995 64.453 44.922c14.323 14.323 27.995 32.552 41.016 54.688c0 0 296.875 -298.829 296.875 -298.829c-10.417 -20.833 -23.438 -39.062 -39.063 -54.687c-19.531 -19.531 -41.667 -34.505 -66.406 -44.922c0 0 -296.875 298.828 -296.875 298.828m121.094 128.906c11.718 27.344 18.88 54.688 21.484 82.032c0 0 0 23.437 0 23.437c0 0 242.188 -244.14 242.188 -244.14c0 0 0 -1.954 0 -1.954c40.364 -40.364 50.781 -92.448 31.25 -156.25c0 0 -294.922 296.875 -294.922 296.875m101.562 -507.812c70.313 0 132.162 26.693 185.547 80.078c46.875 48.177 72.917 103.516 78.125 166.016c0 0 0 9.765 0 9.765c0 0 0 11.719 0 11.719c0 0 52.734 -54.687 52.734 -54.687c29.948 -29.948 43.62 -67.058 41.016 -111.329c-3.906 -49.479 -24.74 -93.099 -62.5 -130.859c-41.667 -41.667 -89.193 -62.5 -142.578 -62.5c-40.365 0 -74.219 13.672 -101.563 41.016c0 0 -50.781 50.781 -50.781 50.781" />
  </g>
</svg>