<svg height="1000px" width="1000px" xmlns="http://www.w3.org/2000/svg">
  <g>
    <path d="M31.25 875c0 0 0 -750 0 -750c0 -35.156 12.044 -64.779 36.133 -88.867c24.088 -24.089 53.711 -36.133 88.867 -36.133c0 0 687.5 0 687.5 0c35.156 0 64.779 12.044 88.867 36.133c24.089 24.088 36.133 53.711 36.133 88.867c0 0 0 750 0 750c0 35.156 -12.044 64.779 -36.133 88.867c-24.088 24.089 -53.711 36.133 -88.867 36.133c0 0 -687.5 0 -687.5 0c-35.156 0 -64.779 -12.044 -88.867 -36.133c-24.089 -24.088 -36.133 -53.711 -36.133 -88.867c0 0 0 0 0 0m62.5 0c0 16.927 6.185 31.576 18.555 43.945c12.369 12.37 27.018 18.555 43.945 18.555c0 0 687.5 0 687.5 0c16.927 0 31.576 -6.185 43.945 -18.555c12.37 -12.369 18.555 -27.018 18.555 -43.945c0 0 0 -750 0 -750c0 -16.927 -6.185 -31.576 -18.555 -43.945c-12.369 -12.37 -27.018 -18.555 -43.945 -18.555c0 0 -687.5 0 -687.5 0c-16.927 0 -31.576 6.185 -43.945 18.555c-12.37 12.369 -18.555 27.018 -18.555 43.945c0 0 0 750 0 750c0 0 0 0 0 0m62.5 -156.25c0 0 0 -562.5 0 -562.5c0 -9.115 2.93 -16.602 8.789 -22.461c5.859 -5.859 13.346 -8.789 22.461 -8.789c0 0 625 0 625 0c9.115 0 16.602 2.93 22.461 8.789c5.859 5.859 8.789 13.346 8.789 22.461c0 0 0 562.5 0 562.5c0 9.115 -2.93 16.602 -8.789 22.461c-5.859 5.859 -13.346 8.789 -22.461 8.789c0 0 -625 0 -625 0c-9.115 0 -16.602 -2.93 -22.461 -8.789c-5.859 -5.859 -8.789 -13.346 -8.789 -22.461c0 0 0 0 0 0m31.25 0c0 0 482.422 0 482.422 0c0 0 -87.891 -99.609 -87.891 -99.609c0 0 -17.578 -21.485 -17.578 -21.485c0 0 -251.953 -285.156 -251.953 -285.156c0 0 -125 144.531 -125 144.531c0 0 0 261.719 0 261.719c0 0 0 0 0 0m0 -310.547c0 0 101.562 -117.187 101.562 -117.187c6.511 -6.511 14.323 -9.766 23.438 -9.766c9.115 0 16.927 3.255 23.437 9.766c0 0 246.094 281.25 246.094 281.25c0 0 82.031 -93.75 82.031 -93.75c6.511 -6.511 14.323 -9.766 23.438 -9.766c9.115 0 16.927 3.255 23.437 9.766c0 0 101.563 111.328 101.563 111.328c0 0 0 -433.594 0 -433.594c0 0 -625 0 -625 0c0 0 0 251.953 0 251.953c0 0 0 0 0 0m343.75 -95.703c0 -26.042 9.115 -48.177 27.344 -66.406c18.229 -18.229 40.364 -27.344 66.406 -27.344c26.042 0 48.177 9.115 66.406 27.344c18.229 18.229 27.344 40.364 27.344 66.406c0 26.042 -9.115 48.177 -27.344 66.406c-18.229 18.229 -40.364 27.344 -66.406 27.344c-26.042 0 -48.177 -9.115 -66.406 -27.344c-18.229 -18.229 -27.344 -40.364 -27.344 -66.406c0 0 0 0 0 0m31.25 0c0 16.927 6.185 31.576 18.555 43.945c12.369 12.37 27.018 18.555 43.945 18.555c16.927 0 31.576 -6.185 43.945 -18.555c12.37 -12.369 18.555 -27.018 18.555 -43.945c0 -16.927 -6.185 -31.576 -18.555 -43.945c-12.369 -12.37 -27.018 -18.555 -43.945 -18.555c-16.927 0 -31.576 6.185 -43.945 18.555c-12.37 12.369 -18.555 27.018 -18.555 43.945c0 0 0 0 0 0m41.016 283.203c0 0 107.421 123.047 107.421 123.047c0 0 101.563 0 101.563 0c0 0 0 -82.031 0 -82.031c0 0 -125 -136.719 -125 -136.719c0 0 -83.984 95.703 -83.984 95.703" />
  </g>
</svg>