<svg height="1000" width="1000" xmlns="http://www.w3.org/2000/svg"><path d="M31.248 875.008v-749.952q0-52.731 36.13-88.862t88.862-36.13h687.456q52.731 0 88.862 36.13t36.13 88.862v749.952q0 52.731-36.13 88.862t-88.862 36.13h-687.456q-52.731 0-88.862-36.13t-36.13-88.862zm62.496 0q0 25.389 18.553 43.943t43.943 18.553h687.456q25.389 0 43.943-18.553t18.553-43.943v-749.952q0-25.389-18.553-43.943t-43.943-18.553h-687.456q-25.389 0-43.943 18.553t-18.553 43.943v749.952zm62.496-156.24v-562.464q0-13.671 8.789-22.46t22.46-8.789h624.96q13.671 0 22.46 8.789t8.789 22.46v562.464q0 13.671-8.789 22.46t-22.46 8.789h-624.96q-13.671 0-22.46-8.789t-8.789-22.46zm31.248 0h482.391l-87.885-99.603-17.577-21.483-251.937-285.138-124.992 144.522v261.702zm0-310.527l101.556-117.18q9.765-9.765 23.436-9.765t23.436 9.765l246.078 281.232 82.026-93.744q9.765-9.765 23.436-9.765t23.436 9.765l101.556 111.321v-433.566h-624.96v251.937zm343.728-95.697q0-39.06 27.342-66.402t66.402-27.342 66.402 27.342 27.342 66.402-27.342 66.402-66.402 27.342-66.402-27.342-27.342-66.402zm31.248 0q0 25.389 18.553 43.943t43.943 18.553 43.943-18.553 18.553-43.943-18.553-43.943-43.943-18.553-43.943 18.553-18.553 43.943zm41.013 283.185l107.415 123.039h101.556v-82.026l-124.992-136.71z"/></svg>