<svg height="1000px" width="1000px" xmlns="http://www.w3.org/2000/svg">
  <g>
    <path d="M0 890.625c0 -31.25 11.068 -57.943 33.203 -80.078c0 0 259.766 -259.766 259.766 -259.766c-28.646 -54.687 -42.969 -113.281 -42.969 -175.781c0 -102.865 36.458 -191.081 109.375 -264.648c72.917 -73.568 161.458 -110.352 265.625 -110.352c104.167 0 192.708 36.784 265.625 110.352c72.917 73.567 109.375 162.109 109.375 265.625c0 103.515 -36.458 191.731 -109.375 264.648c-72.917 72.917 -161.458 109.375 -265.625 109.375c-62.5 0 -121.094 -14.323 -175.781 -42.969c0 0 -259.766 259.766 -259.766 259.766c-22.135 22.135 -48.828 33.203 -80.078 33.203c-29.948 0 -55.664 -10.742 -77.148 -32.227c-21.485 -21.484 -32.227 -47.2 -32.227 -77.148c0 0 0 0 0 0m54.688 -0.977c0 14.974 5.533 27.995 16.601 39.063c11.068 11.068 24.089 16.601 39.063 16.601c14.974 0 28.32 -5.859 40.039 -17.578c0 0 251.953 -251.953 251.953 -251.953c-29.948 -22.135 -55.99 -48.177 -78.125 -78.125c0 0 -251.953 251.953 -251.953 251.953c-11.719 11.719 -17.578 25.065 -17.578 40.039c0 0 0 0 0 0m257.812 -514.648c0 85.938 30.599 159.505 91.797 220.703c61.198 61.198 134.765 91.797 220.703 91.797c85.938 0 159.505 -30.599 220.703 -91.797c61.198 -61.198 91.797 -134.765 91.797 -220.703c0 -85.938 -30.599 -159.505 -91.797 -220.703c-61.198 -61.198 -134.765 -91.797 -220.703 -91.797c-85.938 0 -159.505 30.599 -220.703 91.797c-61.198 61.198 -91.797 134.766 -91.797 220.703c0 0 0 0 0 0m93.75 0c0 -59.896 21.484 -111.328 64.453 -154.297c42.969 -42.969 94.401 -64.453 154.297 -64.453c10.417 0 15.625 5.208 15.625 15.625c0 10.417 -5.208 15.625 -15.625 15.625c-52.083 0 -96.354 18.229 -132.813 54.688c-36.458 36.458 -54.687 80.729 -54.687 132.812c0 10.417 -5.208 15.625 -15.625 15.625c-10.417 0 -15.625 -5.208 -15.625 -15.625c0 0 0 0 0 0" />
  </g>
</svg>