<svg height="1000px" width="1000px" xmlns="http://www.w3.org/2000/svg">
  <g>
    <path d="M0 437.5c0 0 0 -31.25 0 -31.25c0 -20.833 6.51 -39.714 19.531 -56.641c0 0 93.75 -125 93.75 -125c2.604 -3.906 6.511 -8.463 11.719 -13.671c0 0 0 -148.438 0 -148.438c0 -16.927 6.185 -31.576 18.555 -43.945c12.369 -12.37 27.018 -18.555 43.945 -18.555c0 0 625 0 625 0c16.927 0 31.576 6.185 43.945 18.555c12.37 12.369 18.555 27.018 18.555 43.945c0 0 0 148.438 0 148.438c5.208 5.208 9.115 9.765 11.719 13.671c0 0 93.75 125 93.75 125c13.021 16.927 19.531 35.808 19.531 56.641c0 0 0 31.25 0 31.25c0 26.042 -9.115 48.177 -27.344 66.406c-18.229 18.229 -40.364 27.344 -66.406 27.344c0 0 0 406.25 0 406.25c0 16.927 -6.185 31.576 -18.555 43.945c-12.369 12.37 -27.018 18.555 -43.945 18.555c0 0 -687.5 0 -687.5 0c-16.927 0 -31.576 -6.185 -43.945 -18.555c-12.37 -12.369 -18.555 -27.018 -18.555 -43.945c0 0 0 -406.25 0 -406.25c-26.042 0 -48.177 -9.115 -66.406 -27.344c-18.229 -18.229 -27.344 -40.364 -27.344 -66.406c0 0 0 0 0 0m62.5 0c0 9.115 2.93 16.602 8.789 22.461c5.859 5.859 13.346 8.789 22.461 8.789c0 0 58.594 0 58.594 0c0 0 125 -218.75 125 -218.75c0 0 -89.844 0 -89.844 0c-10.417 0 -18.88 3.906 -25.391 11.719c0 0 -93.75 125 -93.75 125c-3.906 6.51 -5.859 13.021 -5.859 19.531c0 0 0 31.25 0 31.25c0 0 0 0 0 0m93.75 500c0 0 203.125 0 203.125 0c0 0 0 -312.5 0 -312.5c0 -9.115 2.93 -16.602 8.789 -22.461c5.859 -5.859 13.346 -8.789 22.461 -8.789c0 0 234.375 0 234.375 0c9.115 0 16.602 2.93 22.461 8.789c5.859 5.859 8.789 13.346 8.789 22.461c0 0 0 312.5 0 312.5c0 0 187.5 0 187.5 0c0 0 0 -406.25 0 -406.25c0 0 -687.5 0 -687.5 0c0 0 0 406.25 0 406.25c0 0 0 0 0 0m31.25 -468.75c0 0 130.859 0 130.859 0c0 0 62.5 -218.75 62.5 -218.75c0 0 -68.359 0 -68.359 0c0 0 -125 218.75 -125 218.75m0 -281.25c0 0 625 0 625 0c0 0 0 -125 0 -125c0 0 -625 0 -625 0c0 0 0 125 0 125c0 0 0 0 0 0m164.063 281.25c0 0 132.812 0 132.812 0c0 0 0 -218.75 0 -218.75c0 0 -70.313 0 -70.313 0c0 0 -62.5 218.75 -62.5 218.75m39.063 468.75c0 0 234.375 0 234.375 0c0 0 0 -312.5 0 -312.5c0 0 -234.375 0 -234.375 0c0 0 0 312.5 0 312.5c0 0 0 0 0 0m125 -468.75c0 0 132.813 0 132.813 0c0 0 -62.5 -218.75 -62.5 -218.75c0 0 -70.313 0 -70.313 0c0 0 0 218.75 0 218.75c0 0 0 0 0 0m103.516 -218.75c0 0 62.5 218.75 62.5 218.75c0 0 130.859 0 130.859 0c0 0 -125 -218.75 -125 -218.75c0 0 -68.359 0 -68.359 0c0 0 0 0 0 0m103.515 0c0 0 125 218.75 125 218.75c0 0 58.594 0 58.594 0c9.115 0 16.602 -2.93 22.461 -8.789c5.859 -5.859 8.789 -13.346 8.789 -22.461c0 0 0 -31.25 0 -31.25c0 -6.51 -1.953 -13.021 -5.859 -19.531c0 0 -93.75 -125 -93.75 -125c-6.511 -7.813 -14.974 -11.719 -25.391 -11.719c0 0 -89.844 0 -89.844 0c0 0 0 0 0 0" />
  </g>
</svg>