<svg height="1000" width="1000" xmlns="http://www.w3.org/2000/svg"><path d="M0 437.536v-31.248q0-31.248 19.53-56.637l93.744-124.992q3.906-5.859 11.718-13.671v-148.428q0-25.389 18.553-43.943t43.943-18.553h624.96q25.389 0 43.943 18.553t18.553 43.943v148.428q7.812 7.812 11.718 13.671l93.744 124.992q19.53 25.389 19.53 56.637v31.248q0 39.06-27.342 66.402t-66.402 27.342v406.224q0 25.389-18.553 43.943t-43.943 18.553h-687.456q-25.389 0-43.943-18.553t-18.553-43.943v-406.224q-39.06 0-66.402-27.342t-27.342-66.402zm62.496 0q0 13.671 8.789 22.46t22.46 8.789h58.59l124.992-218.736h-89.838q-15.624 0-25.389 11.718l-93.744 124.992q-5.859 9.765-5.859 19.53v31.248zm93.744 499.968h203.112v-312.48q0-13.671 8.789-22.46t22.46-8.789h234.36q13.671 0 22.46 8.789t8.789 22.46v312.48h187.488v-406.224h-687.456v406.224zm31.248-468.72h130.851l62.496-218.736h-68.355zm0-281.232h624.96v-124.992h-624.96v124.992zm164.052 281.232h132.804v-218.736h-70.308zm39.06 468.72h234.36v-312.48h-234.36v312.48zm124.992-468.72h132.804l-62.496-218.736h-70.308v218.736zm103.509-218.736l62.496 218.736h130.851l-124.992-218.736h-68.355zm103.509 0l124.992 218.736h58.59q13.671 0 22.46-8.789t8.789-22.46v-31.248q0-9.765-5.859-19.53l-93.744-124.992q-9.765-11.718-25.389-11.718h-89.838z"/></svg>