<svg height="1000" width="1000" xmlns="http://www.w3.org/2000/svg"><path d="M0 437.536l0 -31.248q0 -31.248 19.53 -56.637l93.744 -124.992q3.906 -5.859 11.718 -13.671l0 -148.428q0 -25.389 18.553 -43.943t43.943 -18.553l624.96 0q25.389 0 43.943 18.553t18.553 43.943l0 148.428q7.812 7.812 11.718 13.671l93.744 124.992q19.53 25.389 19.53 56.637l0 31.248q0 39.06 -27.342 66.402t-66.402 27.342l0 406.224q0 25.389 -18.553 43.943t-43.943 18.553l-687.456 0q-25.389 0 -43.943 -18.553t-18.553 -43.943l0 -406.224q-39.06 0 -66.402 -27.342t-27.342 -66.402zm62.496 0q0 13.671 8.789 22.46t22.46 8.789l58.59 0l124.992 -218.736l-89.838 0q-15.624 0 -25.389 11.718l-93.744 124.992q-5.859 9.765 -5.859 19.53l0 31.248zm93.744 499.968l203.112 0l0 -312.48q0 -13.671 8.789 -22.46t22.46 -8.789l234.36 0q13.671 0 22.46 8.789t8.789 22.46l0 312.48l187.488 0l0 -406.224l-687.456 0l0 406.224zm31.248 -468.72l130.851 0l62.496 -218.736l-68.355 0zm0 -281.232l624.96 0l0 -124.992l-624.96 0l0 124.992zm164.052 281.232l132.804 0l0 -218.736l-70.308 0zm39.06 468.72l234.36 0l0 -312.48l-234.36 0l0 312.48zm124.992 -468.72l132.804 0l-62.496 -218.736l-70.308 0l0 218.736zm103.509 -218.736l62.496 218.736l130.851 0l-124.992 -218.736l-68.355 0zm103.509 0l124.992 218.736l58.59 0q13.671 0 22.46 -8.789t8.789 -22.46l0 -31.248q0 -9.765 -5.859 -19.53l-93.744 -124.992q-9.765 -11.718 -25.389 -11.718l-89.838 0z"/></svg>