<svg height="1000" width="1001" xmlns="http://www.w3.org/2000/svg"><path d="M0 687.52q0 -39.06 27.342 -66.402l97.65 -97.65l0 -429.66q0 -29.295 15.624 -52.731t42.966 -33.201q15.624 -7.812 35.154 -7.812 39.06 0 66.402 27.342l687.456 687.456q44.919 44.919 19.53 101.556 -9.765 27.342 -33.201 42.966t-52.731 15.624l-429.66 0l-97.65 97.65q-27.342 27.342 -66.402 27.342t-66.402 -27.342l-218.736 -218.736q-27.342 -27.342 -27.342 -66.402zm62.496 0q0 13.671 9.765 21.483l218.736 218.736q7.812 9.765 21.483 9.765t21.483 -9.765l97.65 -97.65l1.953 0l-263.655 -263.655l0 1.953l-97.65 97.65q-9.765 7.812 -9.765 21.483zm123.039 -150.381l277.326 277.326q11.718 -1.953 13.671 -1.953l376.929 0l-665.973 -665.973l0 376.929q0 1.953 -1.953 13.671zm1.953 -433.566l708.939 708.939l9.765 0q21.483 0 29.295 -19.53t-7.812 -33.201l-687.456 -687.456q-7.812 -9.765 -21.483 -9.765 -5.859 0 -11.718 1.953 -19.53 7.812 -19.53 29.295l0 9.765zm343.728 -72.261q0 -13.671 8.789 -22.46t22.46 -8.789q181.629 0 309.55 127.922t127.922 309.55q0 13.671 -8.789 22.46t-22.46 8.789 -22.46 -8.789 -8.789 -22.46q0 -154.287 -110.345 -264.632t-264.632 -110.345q-13.671 0 -22.46 -8.789t-8.789 -22.46zm15.624 109.368q0 -15.624 15.624 -15.624 128.898 0 220.689 91.791t91.791 220.689q0 15.624 -15.624 15.624t-15.624 -15.624q0 -117.18 -82.026 -199.206t-199.206 -82.026q-15.624 0 -15.624 -15.624z"/></svg>