<svg height="1000px" width="1000px" xmlns="http://www.w3.org/2000/svg">
  <g>
    <path d="M0 687.5c0 -26.042 9.115 -48.177 27.344 -66.406c0 0 97.656 -97.657 97.656 -97.657c0 0 0 -429.687 0 -429.687c0 -19.531 5.208 -37.109 15.625 -52.734c10.417 -15.625 24.74 -26.693 42.969 -33.203c10.416 -5.209 22.135 -7.813 35.156 -7.813c26.042 0 48.177 9.115 66.406 27.344c0 0 687.5 687.5 687.5 687.5c29.948 29.948 36.459 63.802 19.532 101.562c-6.511 18.229 -17.579 32.552 -33.204 42.969c-15.625 10.417 -33.203 15.625 -52.734 15.625c0 0 -429.688 0 -429.688 0c0 0 -97.656 97.656 -97.656 97.656c-18.229 18.229 -40.364 27.344 -66.406 27.344c-26.042 0 -48.177 -9.115 -66.406 -27.344c0 0 -218.75 -218.75 -218.75 -218.75c-18.229 -18.229 -27.344 -40.364 -27.344 -66.406c0 0 0 0 0 0m62.5 0c0 9.115 3.255 16.276 9.766 21.484c0 0 218.75 218.75 218.75 218.75c5.208 6.511 12.369 9.766 21.484 9.766c9.115 0 16.276 -3.255 21.484 -9.766c0 0 97.657 -97.656 97.657 -97.656c0 0 1.953 0 1.953 0c0 0 -263.672 -263.672 -263.672 -263.672c0 0 0 1.953 0 1.953c0 0 -97.656 97.657 -97.656 97.657c-6.511 5.208 -9.766 12.369 -9.766 21.484c0 0 0 0 0 0m123.047 -150.391c0 0 277.344 277.344 277.344 277.344c7.812 -1.302 12.369 -1.953 13.672 -1.953c0 0 376.953 0 376.953 0c0 0 -666.016 -666.016 -666.016 -666.016c0 0 0 376.953 0 376.953c0 1.303 -0.651 5.86 -1.953 13.672c0 0 0 0 0 0m1.953 -433.593c0 0 708.984 708.984 708.984 708.984c0 0 9.766 0 9.766 0c14.323 0 24.089 -6.51 29.297 -19.531c5.208 -13.021 2.604 -24.089 -7.813 -33.203c0 0 -687.5 -687.5 -687.5 -687.5c-5.208 -6.511 -12.369 -9.766 -21.484 -9.766c-3.906 0 -7.812 0.651 -11.719 1.953c-13.021 5.208 -19.531 14.974 -19.531 29.297c0 0 0 9.766 0 9.766c0 0 0 0 0 0m343.75 -72.266c0 -9.115 2.93 -16.602 8.789 -22.461c5.859 -5.859 13.346 -8.789 22.461 -8.789c121.094 0 224.284 42.643 309.57 127.93c85.287 85.286 127.93 188.476 127.93 309.57c0 9.115 -2.93 16.602 -8.789 22.461c-5.859 5.859 -13.346 8.789 -22.461 8.789c-9.115 0 -16.602 -2.93 -22.461 -8.789c-5.859 -5.859 -8.789 -13.346 -8.789 -22.461c0 -102.865 -36.784 -191.081 -110.352 -264.648c-73.567 -73.568 -161.783 -110.352 -264.648 -110.352c-9.115 0 -16.602 -2.93 -22.461 -8.789c-5.859 -5.859 -8.789 -13.346 -8.789 -22.461c0 0 0 0 0 0m15.625 109.375c0 -10.417 5.208 -15.625 15.625 -15.625c85.938 0 159.505 30.599 220.703 91.797c61.198 61.198 91.797 134.765 91.797 220.703c0 10.417 -5.208 15.625 -15.625 15.625c-10.417 0 -15.625 -5.208 -15.625 -15.625c0 -78.125 -27.344 -144.531 -82.031 -199.219c-54.688 -54.687 -121.094 -82.031 -199.219 -82.031c-10.417 0 -15.625 -5.208 -15.625 -15.625c0 0 0 0 0 0" />
  </g>
</svg>