<svg height="1000px" width="1000px" xmlns="http://www.w3.org/2000/svg">
  <g>
    <path d="M3.90625 392.578125c9.115 -27.344 27.995 -42.969 56.641 -46.875c0 0 261.718 -39.063 261.718 -39.063c0 0 113.282 -234.375 113.282 -234.375c13.02 -27.343 34.505 -41.015 64.453 -41.015c29.948 0 51.432 13.672 64.453 41.015c0 0 113.281 234.375 113.281 234.375c0 0 261.719 39.063 261.719 39.063c28.646 3.906 47.526 19.531 56.64 46.875c9.115 27.344 3.907 50.781 -15.625 70.313c0 0 -191.406 191.406 -191.406 191.406c0 0 42.969 263.672 42.969 263.672c5.208 28.645 -4.557 51.432 -29.297 68.359c-11.719 9.115 -25.39 13.672 -41.015 13.672c-11.719 0 -23.438 -2.604 -35.157 -7.813c0 0 -226.562 -123.047 -226.562 -123.047c0 0 -226.563 123.047 -226.563 123.047c-11.718 5.209 -23.437 7.813 -35.156 7.813c-15.625 0 -29.297 -4.557 -41.016 -13.672c-24.739 -16.927 -34.505 -39.714 -29.296 -68.359c0 0 42.968 -263.672 42.968 -263.672c0 0 -189.453 -191.407 -189.453 -191.407c-20.833 -19.531 -26.693 -42.968 -17.578 -70.312c0 0 0 0 0 0m68.359 21.484c0 0 191.407 191.407 191.407 191.407c16.927 16.927 23.437 37.109 19.531 60.547c0 0 -44.922 263.671 -44.922 263.671c0 0 226.563 -123.046 226.563 -123.046c10.416 -5.209 22.135 -7.813 35.156 -7.813c13.021 0 24.739 2.604 35.156 7.813c0 0 226.563 123.046 226.563 123.046c0 0 -44.922 -263.671 -44.922 -263.671c-3.907 -23.438 2.604 -43.62 19.531 -60.547c0 0 191.406 -191.407 191.406 -191.407c0 0 -259.765 -37.109 -259.765 -37.109c-26.042 -3.906 -44.271 -17.578 -54.688 -41.016c0 0 -113.281 -234.375 -113.281 -234.375c0 0 -113.281 234.375 -113.281 234.375c-10.417 23.438 -28.646 36.459 -54.688 39.063c0 0 -259.766 39.062 -259.766 39.062" />
  </g>
</svg>