<svg height="1000" width="1001" xmlns="http://www.w3.org/2000/svg"><path d="M4.161 392.617q13.671 -41.013 56.637 -46.872l261.702 -39.06 113.274 -234.36q19.53 -41.013 64.449 -41.013t64.449 41.013l113.274 234.36 261.702 39.06q42.966 5.859 56.637 46.872t-15.624 70.308l-191.394 191.394 42.966 263.655q7.812 42.966 -29.295 68.355 -17.577 13.671 -41.013 13.671 -17.577 0 -35.154 -7.812l-226.548 -123.039 -226.548 123.039q-17.577 7.812 -35.154 7.812 -23.436 0 -41.013 -13.671 -37.107 -25.389 -29.295 -68.355l42.966 -263.655 -189.441 -191.394q-31.248 -29.295 -17.577 -70.308zm68.355 21.483l191.394 191.394q25.389 25.389 19.53 60.543l-44.919 263.655 226.548 -123.039q15.624 -7.812 35.154 -7.812t35.154 7.812l226.548 123.039 -44.919 -263.655q-5.859 -35.154 19.53 -60.543l191.394 -191.394 -259.749 -37.107q-39.06 -5.859 -54.684 -41.013l-113.274 -234.36 -113.274 234.36q-15.624 35.154 -54.684 39.06z"/></svg>