<svg height="1000" width="1000" xmlns="http://www.w3.org/2000/svg"><path d="M3.987 269.578q-13.671 -41.013 19.53 -68.355l156.24 -124.992q17.577 -13.671 39.06 -13.671l562.464 0q21.483 0 39.06 13.671l156.24 124.992q33.201 27.342 19.53 68.355l-62.496 187.488q-9.765 29.295 -39.06 39.06 -9.765 3.906 -19.53 3.906 -17.577 0 -31.248 -7.812l0 382.788q0 25.389 -18.553 43.943t-43.943 18.553l-562.464 0q-25.389 0 -43.943 -18.553t-18.553 -43.943l0 -382.788q-13.671 7.812 -31.248 7.812 -9.765 0 -19.53 -3.906 -29.295 -9.765 -39.06 -39.06zm58.59 -19.53l62.496 187.488 93.744 -62.496l0 499.968l562.464 0l0 -499.968l93.744 62.496 62.496 -187.488 -156.24 -124.992l-130.851 0q-13.671 41.013 -54.684 67.379t-95.697 26.366 -95.697 -26.366 -54.684 -67.379l-130.851 0zm320.292 -124.992q13.671 27.342 44.919 44.919t72.261 17.577 72.261 -17.577 44.919 -44.919l-234.36 0z"/></svg>