<svg height="1000px" width="1000px" xmlns="http://www.w3.org/2000/svg">
  <g>
    <path d="M3.90625 269.53125c-9.115 -27.344 -2.604 -50.13 19.531 -68.359c0 0 156.25 -125 156.25 -125c11.719 -9.115 24.74 -13.672 39.063 -13.672c0 0 562.5 0 562.5 0c14.323 0 27.343 4.557 39.062 13.672c0 0 156.25 125 156.25 125c22.136 18.229 28.646 41.015 19.531 68.359c0 0 -62.5 187.5 -62.5 187.5c-6.51 19.531 -19.531 32.552 -39.062 39.063c-6.51 2.604 -13.021 3.906 -19.531 3.906c-11.719 0 -22.136 -2.604 -31.25 -7.813c0 0 0 382.813 0 382.813c0 16.927 -6.185 31.575 -18.555 43.945c-12.37 12.37 -27.018 18.555 -43.945 18.555c0 0 -562.5 0 -562.5 0c-16.927 0 -31.576 -6.185 -43.946 -18.555c-12.369 -12.37 -18.554 -27.018 -18.554 -43.945c0 0 0 -382.813 0 -382.813c-9.115 5.209 -19.532 7.813 -31.25 7.813c-6.511 0 -13.021 -1.302 -19.532 -3.907c-19.531 -6.51 -32.552 -19.531 -39.062 -39.062c0 0 -62.5 -187.5 -62.5 -187.5m58.594 -19.531c0 0 62.5 187.5 62.5 187.5c0 0 93.75 -62.5 93.75 -62.5c0 0 0 500 0 500c0 0 562.5 0 562.5 0c0 0 0 -500 0 -500c0 0 93.75 62.5 93.75 62.5c0 0 62.5 -187.5 62.5 -187.5c0 0 -156.25 -125 -156.25 -125c0 0 -130.86 0 -130.86 0c-9.114 27.343 -27.343 49.804 -54.687 67.383c-27.344 17.578 -59.245 26.367 -95.703 26.367c-36.459 0 -68.36 -8.789 -95.703 -26.367c-27.344 -17.579 -45.573 -40.04 -54.688 -67.383c0 0 -130.859 0 -130.859 0c0 0 -156.25 125 -156.25 125m320.312 -125c9.115 18.229 24.089 33.203 44.922 44.922c20.833 11.718 44.922 17.578 72.266 17.578c27.343 0 51.432 -5.86 72.265 -17.578c20.834 -11.719 35.808 -26.693 44.922 -44.922c0 0 -234.375 0 -234.375 0c0 0 0 0 0 0" />
  </g>
</svg>