<svg height="1000" width="1002" xmlns="http://www.w3.org/2000/svg"><path d="M0 750.016l0 -499.968q0 -50.778 36.13 -87.885t88.862 -37.107l593.712 0q68.355 0 105.462 58.59l156.24 249.984q42.966 66.402 0 132.804l-156.24 249.984q-37.107 58.59 -105.462 58.59l-593.712 0q-52.731 0 -88.862 -36.13t-36.13 -88.862zm62.496 0q0 25.389 18.553 43.943t43.943 18.553l593.712 0q35.154 0 52.731 -29.295l156.24 -249.984q21.483 -33.201 0 -66.402l-156.24 -249.984q-17.577 -29.295 -52.731 -29.295l-593.712 0q-25.389 0 -43.943 18.553t-18.553 43.943l0 499.968zm562.464 -249.984q0 -39.06 27.342 -66.402t66.402 -27.342 66.402 27.342 27.342 66.402 -27.342 66.402 -66.402 27.342 -66.402 -27.342 -27.342 -66.402zm31.248 0q0 25.389 18.553 43.943t43.943 18.553 43.943 -18.553 18.553 -43.943 -18.553 -43.943 -43.943 -18.553 -43.943 18.553 -18.553 43.943z"/></svg>