<svg height="1000px" width="1000px" xmlns="http://www.w3.org/2000/svg">
  <g>
    <path d="M0 750c0 0 0 -500 0 -500c0 -33.854 12.044 -63.151 36.133 -87.891c24.088 -24.739 53.711 -37.109 88.867 -37.109c0 0 593.75 0 593.75 0c45.573 0 80.729 19.531 105.469 58.594c0 0 156.25 250 156.25 250c28.646 44.271 28.646 88.541 0 132.812c0 0 -156.25 250 -156.25 250c-24.74 39.063 -59.896 58.594 -105.469 58.594c0 0 -593.75 0 -593.75 0c-35.156 0 -64.779 -12.044 -88.867 -36.133c-24.089 -24.088 -36.133 -53.711 -36.133 -88.867c0 0 0 0 0 0m62.5 0c0 16.927 6.185 31.576 18.555 43.945c12.369 12.37 27.018 18.555 43.945 18.555c0 0 593.75 0 593.75 0c23.438 0 41.016 -9.766 52.734 -29.297c0 0 156.25 -250 156.25 -250c14.323 -22.135 14.323 -44.271 0 -66.406c0 0 -156.25 -250 -156.25 -250c-11.718 -19.531 -29.297 -29.297 -52.734 -29.297c0 0 -593.75 0 -593.75 0c-16.927 0 -31.576 6.185 -43.945 18.555c-12.37 12.369 -18.555 27.018 -18.555 43.945c0 0 0 500 0 500c0 0 0 0 0 0m562.5 -250c0 -26.042 9.115 -48.177 27.344 -66.406c18.229 -18.229 40.364 -27.344 66.406 -27.344c26.042 0 48.177 9.115 66.406 27.344c18.229 18.229 27.344 40.364 27.344 66.406c0 26.042 -9.115 48.177 -27.344 66.406c-18.229 18.229 -40.364 27.344 -66.406 27.344c-26.042 0 -48.177 -9.115 -66.406 -27.344c-18.229 -18.229 -27.344 -40.364 -27.344 -66.406c0 0 0 0 0 0m31.25 0c0 16.927 6.185 31.576 18.555 43.945c12.369 12.37 27.018 18.555 43.945 18.555c16.927 0 31.576 -6.185 43.945 -18.555c12.37 -12.369 18.555 -27.018 18.555 -43.945c0 -16.927 -6.185 -31.576 -18.555 -43.945c-12.369 -12.37 -27.018 -18.555 -43.945 -18.555c-16.927 0 -31.576 6.185 -43.945 18.555c-12.37 12.369 -18.555 27.018 -18.555 43.945c0 0 0 0 0 0" />
  </g>
</svg>