<svg height="1000px" width="1000px" xmlns="http://www.w3.org/2000/svg">
  <g>
    <path d="M0 906.25c0 0 0 -500 0 -500c0 -26.042 9.115 -48.177 27.344 -66.406c18.229 -18.229 40.364 -27.344 66.406 -27.344c0 0 93.75 0 93.75 0c21.384 0 41.567 7.813 60.547 23.438c7.812 -3.907 18.88 -9.115 33.203 -15.625c82.031 -42.969 123.698 -118.49 125 -226.563c0 -26.042 9.115 -48.177 27.344 -66.406c18.229 -18.229 40.364 -27.344 66.406 -27.344c37.76 0 72.917 21.484 105.469 64.453c32.552 42.969 48.828 91.797 48.828 146.484c0 44.271 -2.604 78.777 -7.813 103.516c157.552 3.906 246.094 8.464 265.625 13.672c28.646 7.812 50.456 22.135 65.43 42.969c14.974 20.833 22.461 41.666 22.461 62.5c0 0 0 15.625 0 15.625c0 0 0 7.812 0 7.812c-1.302 26.042 -10.417 48.828 -27.344 68.36c11.719 22.135 15.625 46.875 11.719 74.218c-5.208 36.459 -18.88 65.105 -41.016 85.938c10.417 24.739 10.417 52.734 0 83.984c-11.718 39.063 -29.297 66.406 -52.734 82.031c5.208 18.23 5.208 36.459 0 54.688c-3.906 11.719 -8.464 22.786 -13.672 33.203c-22.135 40.365 -59.245 60.547 -111.328 60.547c0 0 -171.875 0 -171.875 0c-61.198 0 -123.047 -7.161 -185.547 -21.484c-61.198 -14.323 -103.515 -24.089 -126.953 -29.297c0 0 -1.953 0 -1.953 0c0 -1.302 -0.977 -1.953 -2.93 -1.953c0 0 -4.883 0 -4.883 0c0 0 0 -1.954 0 -1.954c-18.229 36.459 -46.224 54.688 -83.984 54.688c0 0 -93.75 0 -93.75 0c-26.042 0 -48.177 -9.115 -66.406 -27.344c-18.229 -18.229 -27.344 -40.364 -27.344 -66.406c0 0 0 0 0 0m62.5 0c0 9.115 2.93 16.602 8.789 22.461c5.859 5.859 13.346 8.789 22.461 8.789c0 0 93.75 0 93.75 0c9.115 0 16.602 -2.93 22.461 -8.789c5.859 -5.859 8.789 -13.346 8.789 -22.461c0 0 0 -500 0 -500c0 -9.115 -2.93 -16.602 -8.789 -22.461c-5.859 -5.859 -13.346 -8.789 -22.461 -8.789c0 0 -93.75 0 -93.75 0c-9.115 0 -16.602 2.93 -22.461 8.789c-5.859 5.859 -8.789 13.346 -8.789 22.461c0 0 0 500 0 500c0 0 0 0 0 0m31.25 -46.875c0 -13.021 4.557 -24.089 13.672 -33.203c9.114 -9.115 20.182 -13.672 33.203 -13.672c13.021 0 24.089 4.557 33.203 13.672c9.115 9.114 13.672 20.182 13.672 33.203c0 13.021 -4.557 24.089 -13.672 33.203c-9.114 9.115 -20.182 13.672 -33.203 13.672c-13.021 0 -24.089 -4.557 -33.203 -13.672c-9.115 -9.114 -13.672 -20.182 -13.672 -33.203c0 0 0 0 0 0m31.25 0c0 10.417 5.208 15.625 15.625 15.625c10.417 0 15.625 -5.208 15.625 -15.625c0 -10.417 -5.208 -15.625 -15.625 -15.625c-10.417 0 -15.625 5.208 -15.625 15.625c0 0 0 0 0 0m125 -3.906c0 15.625 9.115 24.739 27.344 27.343c14.323 3.907 62.5 15.625 144.531 35.157c58.594 13.021 115.885 19.531 171.875 19.531c0 0 171.875 0 171.875 0c27.344 0 46.224 -9.115 56.641 -27.344c3.906 -10.416 6.51 -18.229 7.812 -23.437c3.906 -7.813 3.255 -16.927 -1.953 -27.344c-5.208 -10.417 -14.974 -15.625 -29.297 -15.625c0 0 -48.828 0 -48.828 0c-10.417 0 -15.625 -5.208 -15.625 -15.625c0 -10.417 5.208 -15.625 15.625 -15.625c0 0 50.781 0 50.781 0c20.834 0 37.11 -3.581 48.828 -10.742c11.719 -7.162 19.206 -13.672 22.461 -19.531c3.256 -5.86 6.836 -15.951 10.743 -30.274c14.322 -42.969 1.302 -64.453 -39.063 -64.453c0 0 -62.5 0 -62.5 0c-10.417 0 -15.625 -5.208 -15.625 -15.625c0 -10.417 5.208 -15.625 15.625 -15.625c0 0 74.219 0 74.219 0c37.76 0 60.547 -22.135 68.359 -66.406c1.302 -14.323 -1.627 -27.67 -8.789 -40.039c-7.161 -12.37 -21.159 -18.555 -41.992 -18.555c0 0 -60.547 0 -60.547 0c-10.417 0 -15.625 -5.208 -15.625 -15.625c0 -10.417 5.208 -15.625 15.625 -15.625c0 0 62.5 0 62.5 0c40.365 0 61.198 -14.974 62.5 -44.922c0 0 0 -21.484 0 -21.484c0 -24.74 -12.37 -40.365 -37.109 -46.875c-29.948 -7.813 -142.579 -11.719 -337.891 -11.719c13.021 -39.063 21.159 -67.057 24.414 -83.984c3.255 -16.927 4.883 -43.62 4.883 -80.079c0 -37.76 -10.742 -71.94 -32.227 -102.539c-21.484 -30.599 -41.341 -45.898 -59.57 -45.898c-20.833 0 -31.25 10.417 -31.25 31.25c-1.302 61.198 -16.602 118.815 -45.898 172.852c-29.297 54.036 -76.498 94.726 -141.602 122.07c-1.302 0 -2.604 0.325 -3.906 0.976c0 0 -1.953 0.977 -1.953 0.977c-16.927 5.208 -25.391 16.276 -25.391 33.203c0 0 0 431.641 0 431.641c0 0 0 0 0 0" />
  </g>
</svg>