<svg height="1000" width="1000" xmlns="http://www.w3.org/2000/svg"><path d="M62.496 281.296v-68.355q1.953-37.107 29.295-62.496t64.449-25.389h93.744v-31.248q0-39.06 27.342-66.402t66.402-27.342h312.48q39.06 0 66.402 27.342t27.342 66.402v31.248h93.744q37.107 0 64.449 25.389t29.295 62.496v68.355q0 25.389-18.553 43.943t-43.943 18.553v531.216q0 52.731-36.13 88.862t-88.862 36.13h-499.968q-52.731 0-88.862-36.13t-36.13-88.862v-531.216q-25.389 0-43.943-18.553t-18.553-43.943zm62.496 0h749.952v-62.496q0-13.671-8.789-22.46t-22.46-8.789h-687.456q-13.671 0-22.46 8.789t-8.789 22.46v62.496zm62.496 593.712q0 25.389 18.553 43.943t43.943 18.553h499.968q25.389 0 43.943-18.553t18.553-43.943v-531.216h-624.96v531.216zm62.496-31.248v-406.224q0-13.671 8.789-22.46t22.46-8.789h62.496q13.671 0 22.46 8.789t8.789 22.46v406.224q0 13.671-8.789 22.46t-22.46 8.789h-62.496q-13.671 0-22.46-8.789t-8.789-22.46zm31.248 0h62.496v-406.224h-62.496v406.224zm31.248-718.704h374.976v-31.248q0-13.671-8.789-22.46t-22.46-8.789h-312.48q-13.671 0-22.46 8.789t-8.789 22.46v31.248zm124.992 718.704v-406.224q0-13.671 8.789-22.46t22.46-8.789h62.496q13.671 0 22.46 8.789t8.789 22.46v406.224q0 13.671-8.789 22.46t-22.46 8.789h-62.496q-13.671 0-22.46-8.789t-8.789-22.46zm31.248 0h62.496v-406.224h-62.496v406.224zm156.24 0v-406.224q0-13.671 8.789-22.46t22.46-8.789h62.496q13.671 0 22.46 8.789t8.789 22.46v406.224q0 13.671-8.789 22.46t-22.46 8.789h-62.496q-13.671 0-22.46-8.789t-8.789-22.46zm31.248 0h62.496v-406.224h-62.496v406.224z"/></svg>