<svg height="1000px" width="1000px" xmlns="http://www.w3.org/2000/svg">
  <g>
    <path d="M62.5 281.25c0 0 0 -31.25 0 -31.25c0 0 0 -37.109 0 -37.109c1.302 -24.74 11.068 -45.573 29.297 -62.5c18.229 -16.927 39.713 -25.391 64.453 -25.391c0 0 93.75 0 93.75 0c0 0 0 -31.25 0 -31.25c0 -26.042 9.115 -48.177 27.344 -66.406c18.229 -18.229 40.364 -27.344 66.406 -27.344c0 0 312.5 0 312.5 0c26.042 0 48.177 9.115 66.406 27.344c18.229 18.229 27.344 40.364 27.344 66.406c0 0 0 31.25 0 31.25c0 0 93.75 0 93.75 0c24.74 0 46.224 8.464 64.453 25.391c18.229 16.927 27.995 37.76 29.297 62.5c0 0 0 37.109 0 37.109c0 0 0 31.25 0 31.25c0 16.927 -6.185 31.576 -18.555 43.945c-12.369 12.37 -27.018 18.555 -43.945 18.555c0 0 0 531.25 0 531.25c0 35.156 -12.044 64.779 -36.133 88.867c-24.088 24.089 -53.711 36.133 -88.867 36.133c0 0 -500 0 -500 0c-35.156 0 -64.779 -12.044 -88.867 -36.133c-24.089 -24.088 -36.133 -53.711 -36.133 -88.867c0 0 0 -531.25 0 -531.25c-16.927 0 -31.576 -6.185 -43.945 -18.555c-12.37 -12.369 -18.555 -27.018 -18.555 -43.945c0 0 0 0 0 0m62.5 0c0 0 750 0 750 0c0 0 0 -31.25 0 -31.25c0 0 0 -31.25 0 -31.25c0 -9.115 -2.93 -16.602 -8.789 -22.461c-5.859 -5.859 -13.346 -8.789 -22.461 -8.789c0 0 -687.5 0 -687.5 0c-9.115 0 -16.602 2.93 -22.461 8.789c-5.859 5.859 -8.789 13.346 -8.789 22.461c0 0 0 31.25 0 31.25c0 0 0 31.25 0 31.25c0 0 0 0 0 0m62.5 593.75c0 16.927 6.185 31.576 18.555 43.945c12.369 12.37 27.018 18.555 43.945 18.555c0 0 500 0 500 0c16.927 0 31.576 -6.185 43.945 -18.555c12.37 -12.369 18.555 -27.018 18.555 -43.945c0 0 0 -531.25 0 -531.25c0 0 -625 0 -625 0c0 0 0 531.25 0 531.25c0 0 0 0 0 0m62.5 -31.25c0 0 0 -406.25 0 -406.25c0 -9.115 2.93 -16.602 8.789 -22.461c5.859 -5.859 13.346 -8.789 22.461 -8.789c0 0 62.5 0 62.5 0c9.115 0 16.602 2.93 22.461 8.789c5.859 5.859 8.789 13.346 8.789 22.461c0 0 0 406.25 0 406.25c0 9.115 -2.93 16.602 -8.789 22.461c-5.859 5.859 -13.346 8.789 -22.461 8.789c0 0 -62.5 0 -62.5 0c-9.115 0 -16.602 -2.93 -22.461 -8.789c-5.859 -5.859 -8.789 -13.346 -8.789 -22.461c0 0 0 0 0 0m31.25 0c0 0 62.5 0 62.5 0c0 0 0 -406.25 0 -406.25c0 0 -62.5 0 -62.5 0c0 0 0 406.25 0 406.25c0 0 0 0 0 0m31.25 -718.75c0 0 375 0 375 0c0 0 0 -31.25 0 -31.25c0 -9.115 -2.93 -16.602 -8.789 -22.461c-5.859 -5.859 -13.346 -8.789 -22.461 -8.789c0 0 -312.5 0 -312.5 0c-9.115 0 -16.602 2.93 -22.461 8.789c-5.859 5.859 -8.789 13.346 -8.789 22.461c0 0 0 31.25 0 31.25c0 0 0 0 0 0m125 718.75c0 0 0 -406.25 0 -406.25c0 -9.115 2.93 -16.602 8.789 -22.461c5.859 -5.859 13.346 -8.789 22.461 -8.789c0 0 62.5 0 62.5 0c9.115 0 16.602 2.93 22.461 8.789c5.859 5.859 8.789 13.346 8.789 22.461c0 0 0 406.25 0 406.25c0 9.115 -2.93 16.602 -8.789 22.461c-5.859 5.859 -13.346 8.789 -22.461 8.789c0 0 -62.5 0 -62.5 0c-9.115 0 -16.602 -2.93 -22.461 -8.789c-5.859 -5.859 -8.789 -13.346 -8.789 -22.461c0 0 0 0 0 0m31.25 0c0 0 62.5 0 62.5 0c0 0 0 -406.25 0 -406.25c0 0 -62.5 0 -62.5 0c0 0 0 406.25 0 406.25c0 0 0 0 0 0m156.25 0c0 0 0 -406.25 0 -406.25c0 -9.115 2.93 -16.602 8.789 -22.461c5.859 -5.859 13.346 -8.789 22.461 -8.789c0 0 62.5 0 62.5 0c9.115 0 16.602 2.93 22.461 8.789c5.859 5.859 8.789 13.346 8.789 22.461c0 0 0 406.25 0 406.25c0 9.115 -2.93 16.602 -8.789 22.461c-5.859 5.859 -13.346 8.789 -22.461 8.789c0 0 -62.5 0 -62.5 0c-9.115 0 -16.602 -2.93 -22.461 -8.789c-5.859 -5.859 -8.789 -13.346 -8.789 -22.461c0 0 0 0 0 0m31.25 0c0 0 62.5 0 62.5 0c0 0 0 -406.25 0 -406.25c0 0 -62.5 0 -62.5 0c0 0 0 406.25 0 406.25c0 0 0 0 0 0" />
  </g>
</svg>