<svg height="1000" width="1000" xmlns="http://www.w3.org/2000/svg"><path d="M0 531.28l0 -343.728q0 -39.06 27.342 -66.402t66.402 -27.342l468.72 0q39.06 0 66.402 27.342t27.342 66.402l0 62.496l124.992 0q50.778 0 78.12 41.013l124.992 187.488q15.624 23.436 15.624 52.731l0 187.488q0 39.06 -27.342 66.402t-66.402 27.342l-35.154 0q-11.718 41.013 -44.919 67.379t-76.167 26.366 -76.167 -26.366 -44.919 -67.379l-164.052 0q-11.718 41.013 -44.919 67.379t-76.167 26.366 -76.167 -26.366 -44.919 -67.379l-35.154 0q-39.06 0 -66.402 -27.342t-27.342 -66.402l0 -93.744q-39.06 0 -66.402 -27.342t-27.342 -66.402zm62.496 0q0 13.671 8.789 22.46t22.46 8.789l468.72 0q13.671 0 22.46 -8.789t8.789 -22.46l0 -343.728q0 -13.671 -8.789 -22.46t-22.46 -8.789l-468.72 0q-13.671 0 -22.46 8.789t-8.789 22.46l0 343.728zm93.744 187.488q0 13.671 8.789 22.46t22.46 8.789l35.154 0q11.718 -41.013 44.919 -67.379t76.167 -26.366 76.167 26.366 44.919 67.379l164.052 0q11.718 -41.013 44.919 -67.379t76.167 -26.366 76.167 26.366 44.919 67.379l35.154 0q13.671 0 22.46 -8.789t8.789 -22.46l0 -187.488q0 -9.765 -5.859 -17.577l-124.992 -187.488q-7.812 -13.671 -25.389 -13.671l-124.992 0l0 218.736q0 39.06 -27.342 66.402t-66.402 27.342l-406.224 0l0 93.744zm124.992 62.496q0 25.389 18.553 43.943t43.943 18.553 43.943 -18.553 18.553 -43.943 -18.553 -43.943 -43.943 -18.553 -43.943 18.553 -18.553 43.943zm406.224 0q0 25.389 18.553 43.943t43.943 18.553 43.943 -18.553 18.553 -43.943 -18.553 -43.943 -43.943 -18.553 -43.943 18.553 -18.553 43.943zm0 -218.736l0 -187.488q0 -13.671 8.789 -22.46t22.46 -8.789l31.248 0q17.577 0 25.389 13.671l93.744 140.616q5.859 7.812 5.859 17.577l0 46.872q0 13.671 -8.789 22.46t-22.46 8.789l-124.992 0q-13.671 0 -22.46 -8.789t-8.789 -22.46zm31.248 0l124.992 0l0 -46.872l-93.744 -140.616l-31.248 0l0 187.488z"/></svg>