<svg height="1000" width="1000" xmlns="http://www.w3.org/2000/svg"><path d="M0 531.28v-343.728q0-39.06 27.342-66.402t66.402-27.342h468.72q39.06 0 66.402 27.342t27.342 66.402v62.496h124.992q50.778 0 78.12 41.013l124.992 187.488q15.624 23.436 15.624 52.731v187.488q0 39.06-27.342 66.402t-66.402 27.342h-35.154q-11.718 41.013-44.919 67.379t-76.167 26.366-76.167-26.366-44.919-67.379h-164.052q-11.718 41.013-44.919 67.379t-76.167 26.366-76.167-26.366-44.919-67.379h-35.154q-39.06 0-66.402-27.342t-27.342-66.402v-93.744q-39.06 0-66.402-27.342t-27.342-66.402zm62.496 0q0 13.671 8.789 22.46t22.46 8.789h468.72q13.671 0 22.46-8.789t8.789-22.46v-343.72799999999995q0-13.671-8.789-22.46t-22.46-8.789h-468.72q-13.671 0-22.46 8.789t-8.789 22.46v343.728zm93.744 187.488q0 13.671 8.789 22.46t22.46 8.789h35.154q11.718-41.013 44.919-67.379t76.167-26.366 76.167 26.366 44.919 67.379h164.052q11.718-41.013 44.919-67.379t76.167-26.366 76.167 26.366 44.919 67.379h35.154q13.671 0 22.46-8.789t8.789-22.46v-187.488q0-9.765-5.859-17.577l-124.992-187.488q-7.812-13.671-25.389-13.671h-124.992v218.736q0 39.06-27.342 66.402t-66.402 27.342h-406.224v93.744zm124.992 62.496q0 25.389 18.553 43.943t43.943 18.553 43.943-18.553 18.553-43.943-18.553-43.943-43.943-18.553-43.943 18.553-18.553 43.943zm406.224 0q0 25.389 18.553 43.943t43.943 18.553 43.943-18.553 18.553-43.943-18.553-43.943-43.943-18.553-43.943 18.553-18.553 43.943zm0-218.736v-187.488q0-13.671 8.789-22.46t22.46-8.789h31.248q17.577 0 25.389 13.671l93.744 140.616q5.859 7.812 5.859 17.577v46.872q0 13.671-8.789 22.46t-22.46 8.789h-124.992q-13.671 0-22.46-8.789t-8.789-22.46zm31.248 0h124.992v-46.872l-93.744-140.616h-31.248v187.488z"/></svg>