<svg height="1000px" width="1000px" xmlns="http://www.w3.org/2000/svg">
  <g>
    <path d="M0 531.25c0 0 0 -343.75 0 -343.75c0 -26.042 9.115 -48.177 27.344 -66.406c18.229 -18.229 40.364 -27.344 66.406 -27.344c0 0 468.75 0 468.75 0c26.042 0 48.177 9.115 66.406 27.344c18.229 18.229 27.344 40.364 27.344 66.406c0 0 0 62.5 0 62.5c0 0 125 0 125 0c33.854 0 59.896 13.672 78.125 41.016c0 0 125 187.5 125 187.5c10.417 15.625 15.625 33.203 15.625 52.734c0 0 0 187.5 0 187.5c0 26.042 -9.115 48.177 -27.344 66.406c-18.229 18.229 -40.364 27.344 -66.406 27.344c0 0 -35.156 0 -35.156 0c-7.813 27.344 -22.787 49.805 -44.922 67.383c-22.136 17.578 -47.526 26.367 -76.172 26.367c-28.646 0 -54.036 -8.789 -76.172 -26.367c-22.135 -17.578 -37.109 -40.039 -44.922 -67.383c0 0 -164.062 0 -164.062 0c-7.813 27.344 -22.787 49.805 -44.922 67.383c-22.136 17.578 -47.526 26.367 -76.172 26.367c-28.646 0 -54.036 -8.789 -76.172 -26.367c-22.135 -17.578 -37.109 -40.039 -44.922 -67.383c0 0 -35.156 0 -35.156 0c-26.042 0 -48.177 -9.115 -66.406 -27.344c-18.229 -18.229 -27.344 -40.364 -27.344 -66.406c0 0 0 -93.75 0 -93.75c-26.042 0 -48.177 -9.115 -66.406 -27.344c-18.229 -18.229 -27.344 -40.364 -27.344 -66.406c0 0 0 0 0 0m62.5 0c0 9.115 2.93 16.602 8.789 22.461c5.859 5.859 13.346 8.789 22.461 8.789c0 0 468.75 0 468.75 0c9.115 0 16.602 -2.93 22.461 -8.789c5.859 -5.859 8.789 -13.346 8.789 -22.461c0 0 0 -218.75 0 -218.75c0 0 0 -62.5 0 -62.5c0 0 0 -62.5 0 -62.5c0 -9.115 -2.93 -16.602 -8.789 -22.461c-5.859 -5.859 -13.346 -8.789 -22.461 -8.789c0 0 -468.75 0 -468.75 0c-9.115 0 -16.602 2.93 -22.461 8.789c-5.859 5.859 -8.789 13.346 -8.789 22.461c0 0 0 343.75 0 343.75c0 0 0 0 0 0m93.75 187.5c0 9.115 2.93 16.602 8.789 22.461c5.859 5.859 13.346 8.789 22.461 8.789c0 0 35.156 0 35.156 0c7.813 -27.344 22.787 -49.805 44.922 -67.383c22.136 -17.578 47.526 -26.367 76.172 -26.367c28.646 0 54.036 8.789 76.172 26.367c22.135 17.578 37.109 40.039 44.922 67.383c0 0 164.062 0 164.062 0c7.813 -27.344 22.787 -49.805 44.922 -67.383c22.136 -17.578 47.526 -26.367 76.172 -26.367c28.646 0 54.036 8.789 76.172 26.367c22.135 17.578 37.109 40.039 44.922 67.383c0 0 35.156 0 35.156 0c9.115 0 16.602 -2.93 22.461 -8.789c5.859 -5.859 8.789 -13.346 8.789 -22.461c0 0 0 -187.5 0 -187.5c0 -6.51 -1.953 -12.37 -5.859 -17.578c0 0 -125 -187.5 -125 -187.5c-5.209 -9.115 -13.672 -13.672 -25.391 -13.672c0 0 -125 0 -125 0c0 0 0 218.75 0 218.75c0 26.042 -9.115 48.177 -27.344 66.406c-18.229 18.229 -40.364 27.344 -66.406 27.344c0 0 -406.25 0 -406.25 0c0 0 0 93.75 0 93.75c0 0 0 0 0 0m125 62.5c0 16.927 6.185 31.576 18.555 43.945c12.369 12.37 27.018 18.555 43.945 18.555c16.927 0 31.576 -6.185 43.945 -18.555c12.37 -12.369 18.555 -27.018 18.555 -43.945c0 -16.927 -6.185 -31.576 -18.555 -43.945c-12.369 -12.37 -27.018 -18.555 -43.945 -18.555c-16.927 0 -31.576 6.185 -43.945 18.555c-12.37 12.369 -18.555 27.018 -18.555 43.945c0 0 0 0 0 0m406.25 0c0 16.927 6.185 31.576 18.555 43.945c12.369 12.37 27.018 18.555 43.945 18.555c16.927 0 31.576 -6.185 43.945 -18.555c12.37 -12.369 18.555 -27.018 18.555 -43.945c0 -16.927 -6.185 -31.576 -18.555 -43.945c-12.369 -12.37 -27.018 -18.555 -43.945 -18.555c-16.927 0 -31.576 6.185 -43.945 18.555c-12.37 12.369 -18.555 27.018 -18.555 43.945c0 0 0 0 0 0m0 -218.75c0 0 0 -187.5 0 -187.5c0 -9.115 2.93 -16.602 8.789 -22.461c5.859 -5.859 13.346 -8.789 22.461 -8.789c0 0 31.25 0 31.25 0c11.719 0 20.182 4.557 25.391 13.672c0 0 93.75 140.625 93.75 140.625c3.906 5.208 5.859 11.068 5.859 17.578c0 0 0 46.875 0 46.875c0 9.115 -2.93 16.602 -8.789 22.461c-5.859 5.859 -13.346 8.789 -22.461 8.789c0 0 -125 0 -125 0c-9.115 0 -16.602 -2.93 -22.461 -8.789c-5.859 -5.859 -8.789 -13.346 -8.789 -22.461c0 0 0 0 0 0m31.25 0c0 0 125 0 125 0c0 0 0 -46.875 0 -46.875c0 0 -93.75 -140.625 -93.75 -140.625c0 0 -31.25 0 -31.25 0c0 0 0 187.5 0 187.5c0 0 0 0 0 0" />
  </g>
</svg>