<svg height="1000" width="1000" xmlns="http://www.w3.org/2000/svg"><path d="M36.13 802.747q-72.261 -302.715 0 -605.43 9.765 -42.966 52.731 -46.872 205.065 -25.389 410.13 -25.389t410.13 25.389q44.919 3.906 54.684 46.872 72.261 302.715 0 605.43 -11.718 42.966 -54.684 46.872 -93.744 11.718 -197.253 17.577 5.859 3.906 5.859 7.812 0 13.671 -64.449 22.46t-154.287 8.789 -154.287 -8.789 -64.449 -22.46q0 -3.906 5.859 -7.812 -103.509 -5.859 -197.253 -17.577 -42.966 -3.906 -52.731 -46.872zm60.543 -15.624q402.318 50.778 806.589 0 68.355 -287.091 0 -574.182 -404.271 -50.778 -806.589 0 -68.355 287.091 0 574.182zm60.543 -83.979q-66.402 -207.018 0 -412.083 5.859 -17.577 23.436 -21.483 128.898 -25.389 255.843 -25.389t255.843 25.389q17.577 3.906 23.436 21.483 33.201 101.556 33.201 205.065t-33.201 207.018q-5.859 17.577 -23.436 21.483 -128.898 25.389 -255.843 25.389t-255.843 -25.389q-17.577 -3.906 -23.436 -21.483zm31.248 -9.765q248.031 50.778 498.015 0 64.449 -197.253 0 -392.553 -249.984 -52.731 -498.015 0 -64.449 195.3 0 392.553zm62.496 -208.971l7.812 -87.885q3.906 -13.671 19.53 -15.624l142.569 -11.718q15.624 0 15.624 15.624t-15.624 15.624l-117.18 7.812q-15.624 1.953 -17.577 17.577l-5.859 58.59q0 15.624 -15.624 15.624t-13.671 -15.624zm498.015 218.736q0 -15.624 15.624 -15.624l93.744 0q15.624 0 15.624 15.624t-15.624 15.624l-93.744 0q-15.624 0 -15.624 -15.624zm31.248 -93.744q0 -15.624 15.624 -15.624l93.744 0q15.624 0 15.624 15.624t-15.624 15.624l-93.744 0q-15.624 0 -15.624 -15.624zm0 -93.744q0 -15.624 15.624 -15.624l93.744 0q15.624 0 15.624 15.624t-15.624 15.624l-93.744 0q-15.624 0 -15.624 -15.624zm0 -187.488q0 -19.53 13.671 -33.201t33.201 -13.671 33.201 13.671 13.671 33.201 -13.671 33.201 -33.201 13.671 -33.201 -13.671 -13.671 -33.201zm31.248 0q0 15.624 15.624 15.624t15.624 -15.624 -15.624 -15.624 -15.624 15.624z"/></svg>