<svg height="1000px" width="1000px" xmlns="http://www.w3.org/2000/svg">
  <g>
    <path d="M37.109375 802.734375c-48.177 -201.823 -48.177 -403.646 0 -605.469c6.51 -28.646 24.089 -44.271 52.734 -46.875c136.719 -16.927 273.438 -25.39 410.157 -25.39c136.718 0 273.437 8.463 410.156 25.39c29.948 2.604 48.177 18.229 54.687 46.875c48.177 201.823 48.177 403.646 0 605.469c-7.812 28.646 -26.041 44.271 -54.687 46.875c-62.5 7.813 -128.255 13.672 -197.266 17.578c3.906 2.604 5.86 5.208 5.86 7.813c0 9.114 -21.485 16.601 -64.454 22.461c-42.968 5.859 -94.401 8.789 -154.296 8.789c-59.896 0 -111.329 -2.93 -154.297 -8.789c-42.969 -5.86 -64.453 -13.347 -64.453 -22.461c0 -2.605 1.953 -5.209 5.859 -7.813c-69.01 -3.906 -134.766 -9.765 -197.266 -17.578c-28.645 -2.604 -46.224 -18.229 -52.734 -46.875c0 0 0 0 0 0m60.547 -15.625c268.229 33.854 537.109 33.854 806.64 0c45.573 -191.406 45.573 -382.813 0 -574.219c-269.531 -33.854 -538.411 -33.854 -806.64 0c-45.573 191.407 -45.573 382.813 0 574.219c0 0 0 0 0 0m60.547 -83.984c-44.271 -138.021 -44.271 -275.391 0 -412.11c3.906 -11.718 11.718 -18.88 23.437 -21.484c85.938 -16.927 171.224 -25.391 255.86 -25.391c84.635 0 169.921 8.464 255.859 25.391c11.719 2.604 19.531 9.766 23.437 21.484c22.136 67.709 33.204 136.068 33.204 205.078c0 69.011 -11.068 138.021 -33.204 207.032c-3.906 11.718 -11.718 18.88 -23.437 21.484c-85.938 16.927 -171.224 25.391 -255.859 25.391c-84.636 0 -169.922 -8.464 -255.86 -25.391c-11.719 -2.604 -19.531 -9.766 -23.437 -21.484c0 0 0 0 0 0m31.25 -9.766c165.364 33.854 331.38 33.854 498.047 0c42.968 -131.51 42.968 -262.37 0 -392.578c-166.667 -35.156 -332.683 -35.156 -498.047 0c-42.969 130.208 -42.969 261.068 0 392.578c0 0 0 0 0 0m62.5 -208.984c0 0 7.812 -87.891 7.812 -87.891c2.604 -9.115 9.115 -14.323 19.531 -15.625c0 0 142.579 -11.719 142.579 -11.719c10.416 0 15.625 5.209 15.625 15.625c0 10.417 -5.209 15.625 -15.625 15.625c0 0 -117.188 7.813 -117.188 7.813c-10.417 1.302 -16.276 7.161 -17.578 17.578c0 0 -5.859 58.594 -5.859 58.594c0 10.416 -5.209 15.625 -15.625 15.625c-10.417 0 -14.974 -5.209 -13.672 -15.625c0 0 0 0 0 0m498.047 218.75c0 -10.417 5.208 -15.625 15.625 -15.625c0 0 93.75 0 93.75 0c10.416 0 15.625 5.208 15.625 15.625c0 10.416 -5.209 15.625 -15.625 15.625c0 0 -93.75 0 -93.75 0c-10.417 0 -15.625 -5.209 -15.625 -15.625c0 0 0 0 0 0m31.25 -93.75c0 -10.417 5.208 -15.625 15.625 -15.625c0 0 93.75 0 93.75 0c10.416 0 15.625 5.208 15.625 15.625c0 10.416 -5.209 15.625 -15.625 15.625c0 0 -93.75 0 -93.75 0c-10.417 0 -15.625 -5.209 -15.625 -15.625c0 0 0 0 0 0m0 -93.75c0 -10.417 5.208 -15.625 15.625 -15.625c0 0 93.75 0 93.75 0c10.416 0 15.625 5.208 15.625 15.625c0 10.416 -5.209 15.625 -15.625 15.625c0 0 -93.75 0 -93.75 0c-10.417 0 -15.625 -5.209 -15.625 -15.625c0 0 0 0 0 0m0 -187.5c0 -13.021 4.557 -24.089 13.671 -33.203c9.115 -9.115 20.183 -13.672 33.204 -13.672c13.02 0 24.088 4.557 33.203 13.672c9.114 9.114 13.672 20.182 13.672 33.203c0 13.02 -4.558 24.088 -13.672 33.203c-9.115 9.114 -20.183 13.672 -33.203 13.672c-13.021 0 -24.089 -4.558 -33.204 -13.672c-9.114 -9.115 -13.671 -20.183 -13.671 -33.203c0 0 0 0 0 0m31.25 0c0 10.416 5.208 15.625 15.625 15.625c10.416 0 15.625 -5.209 15.625 -15.625c0 -10.417 -5.209 -15.625 -15.625 -15.625c-10.417 0 -15.625 5.208 -15.625 15.625c0 0 0 0 0 0" />
  </g>
</svg>