<svg height="1000" width="1003" xmlns="http://www.w3.org/2000/svg"><path d="M3.544 955.081q-13.671 -42.966 25.389 -70.308 119.133 -78.12 290.997 -115.227 -83.979 -105.462 -119.133 -255.843 -9.765 -54.684 -10.742 -122.063t22.46 -148.428 66.402 -137.686q83.979 -105.462 222.642 -105.462t222.642 105.462q42.966 56.637 66.402 137.686t22.46 148.428 -10.742 122.063q-35.154 150.381 -119.133 255.843 171.864 37.107 290.997 115.227 39.06 27.342 25.389 71.285t-60.543 43.943l-874.944 0q-21.483 0 -38.084 -12.694t-22.46 -32.224zm60.543 -17.577l874.944 0q-109.368 -72.261 -267.561 -107.415l-78.12 -15.624q-44.919 29.295 -91.791 29.295t-91.791 -29.295l-78.12 15.624q-160.146 35.154 -267.561 107.415zm193.347 -601.524q-13.671 103.509 15.624 207.995t95.697 186.512l9.765 13.671q56.637 64.449 123.039 64.449t123.039 -64.449l9.765 -13.671q66.402 -82.026 95.697 -186.512t15.624 -207.995q-13.671 -113.274 -76.167 -193.347t-167.958 -80.073 -167.958 80.073 -76.167 193.347z"/></svg>