<svg height="1000px" width="1000px" xmlns="http://www.w3.org/2000/svg">
  <g>
    <path d="M1.953125 955.078125c-9.115 -28.646 -0.651 -52.083 25.391 -70.313c79.427 -52.083 176.432 -90.494 291.015 -115.234c-55.989 -70.312 -95.703 -155.599 -119.14 -255.859c-6.511 -36.459 -10.092 -77.149 -10.743 -122.071c-0.651 -44.921 6.836 -94.401 22.461 -148.437c15.625 -54.037 37.761 -99.935 66.407 -137.695c55.989 -70.313 130.208 -105.469 222.656 -105.469c92.448 0 166.667 35.156 222.656 105.469c28.646 37.76 50.781 83.658 66.406 137.695c15.625 54.036 23.112 103.516 22.461 148.437c-0.651 44.922 -4.231 85.612 -10.742 122.071c-23.437 100.26 -63.151 185.547 -119.14 255.859c114.583 24.74 211.588 63.151 291.015 115.235c26.042 18.229 34.505 41.992 25.391 71.289c-9.115 29.296 -29.297 43.945 -60.547 43.945c0 0 -875 0 -875 0c-14.323 0 -27.018 -4.232 -38.086 -12.695c-11.068 -8.464 -18.555 -19.206 -22.461 -32.227c0 0 0 0 0 0m60.547 -17.578c0 0 875 0 875 0c-72.917 -48.177 -162.11 -83.985 -267.578 -107.422c0 0 -78.125 -15.625 -78.125 -15.625c-29.948 19.531 -60.547 29.297 -91.797 29.297c-31.25 0 -61.849 -9.766 -91.797 -29.297c0 0 -78.125 15.625 -78.125 15.625c-106.771 23.438 -195.964 59.245 -267.578 107.422c0 0 0 0 0 0m193.359 -601.563c-9.114 69.011 -3.906 138.347 15.625 208.008c19.532 69.662 51.433 131.836 95.703 186.524c0 0 9.766 13.671 9.766 13.671c37.76 42.969 78.776 64.454 123.047 64.454c44.271 0 85.286 -21.485 123.047 -64.454c0 0 9.765 -13.671 9.765 -13.671c44.271 -54.688 76.172 -116.862 95.704 -186.524c19.531 -69.661 24.739 -138.997 15.625 -208.008c-9.115 -75.52 -34.506 -139.974 -76.172 -193.359c-41.667 -53.385 -97.657 -80.078 -167.969 -80.078c-70.313 0 -126.302 26.693 -167.969 80.078c-41.667 53.385 -67.057 117.839 -76.172 193.359c0 0 0 0 0 0" />
  </g>
</svg>