<svg height="1000" width="1000" xmlns="http://www.w3.org/2000/svg"><path d="M0 750.016v-499.968q0-39.06 27.342-66.402t66.402-27.342h593.712q39.06 0 66.402 27.342t27.342 66.402v39.06l83.979-83.979q19.53-17.577 44.919-17.577h27.342q25.389 0 43.943 18.553t18.553 43.943v499.968q0 27.342-18.553 44.919t-43.943 17.577h-27.342q-25.389 0-44.919-17.577l-83.979-83.979v39.06q0 39.06-27.342 66.402t-66.402 27.342h-593.712q-39.06 0-66.402-27.342t-27.342-66.402zm62.496 0q0 13.671 8.789 22.46t22.46 8.789h593.712q13.671 0 22.46-8.789t8.789-22.46v-499.968q0-13.671-8.789-22.46t-22.46-8.789h-593.712q-13.671 0-22.46 8.789t-8.789 22.46v499.968zm687.456-156.24l31.248 31.248 124.992 124.992h31.247999999999998v-499.968h-31.247999999999998l-156.24 156.24v187.488z"/></svg>