<svg height="1000px" width="1000px" xmlns="http://www.w3.org/2000/svg">
  <g>
    <path d="M0 750c0 0 0 -281.25 0 -281.25c0 0 0 -218.75 0 -218.75c0 -26.042 9.115 -48.177 27.344 -66.406c18.229 -18.229 40.364 -27.344 66.406 -27.344c0 0 593.75 0 593.75 0c26.042 0 48.177 9.115 66.406 27.344c18.229 18.229 27.344 40.364 27.344 66.406c0 0 0 39.063 0 39.063c0 0 83.984 -83.985 83.984 -83.985c13.021 -11.719 27.995 -17.578 44.922 -17.578c0 0 27.344 0 27.344 0c16.927 0 31.576 6.185 43.945 18.555c12.37 12.369 18.555 27.018 18.555 43.945c0 0 0 500 0 500c0 18.229 -6.185 33.203 -18.555 44.922c-12.369 11.719 -27.018 17.578 -43.945 17.578c0 0 -27.344 0 -27.344 0c-16.927 0 -31.901 -5.859 -44.922 -17.578c0 0 -83.984 -83.985 -83.984 -83.985c0 0 0 39.063 0 39.063c0 26.042 -9.115 48.177 -27.344 66.406c-18.229 18.229 -40.364 27.344 -66.406 27.344c0 0 -593.75 0 -593.75 0c-26.042 0 -48.177 -9.115 -66.406 -27.344c-18.229 -18.229 -27.344 -40.364 -27.344 -66.406c0 0 0 0 0 0m62.5 0c0 9.115 2.93 16.602 8.789 22.461c5.859 5.859 13.346 8.789 22.461 8.789c0 0 593.75 0 593.75 0c9.115 0 16.602 -2.93 22.461 -8.789c5.859 -5.859 8.789 -13.346 8.789 -22.461c0 0 0 -500 0 -500c0 -9.115 -2.93 -16.602 -8.789 -22.461c-5.859 -5.859 -13.346 -8.789 -22.461 -8.789c0 0 -593.75 0 -593.75 0c-9.115 0 -16.602 2.93 -22.461 8.789c-5.859 5.859 -8.789 13.346 -8.789 22.461c0 0 0 500 0 500c0 0 0 0 0 0m687.5 -156.25c0 0 31.25 31.25 31.25 31.25c0 0 125 125 125 125c0 0 3.906 0 3.906 0c0 0 27.344 0 27.344 0c0 0 0 -500 0 -500c0 0 -27.344 0 -27.344 0c0 0 -3.906 0 -3.906 0c0 0 -156.25 156.25 -156.25 156.25c0 0 0 187.5 0 187.5c0 0 0 0 0 0" />
  </g>
</svg>