<svg height="1000" width="1000" xmlns="http://www.w3.org/2000/svg"><path d="M0 750.016l0 -499.968q0 -39.06 27.342 -66.402t66.402 -27.342l593.712 0q39.06 0 66.402 27.342t27.342 66.402l0 39.06l83.979 -83.979q19.53 -17.577 44.919 -17.577l27.342 0q25.389 0 43.943 18.553t18.553 43.943l0 499.968q0 27.342 -18.553 44.919t-43.943 17.577l-27.342 0q-25.389 0 -44.919 -17.577l-83.979 -83.979l0 39.06q0 39.06 -27.342 66.402t-66.402 27.342l-593.712 0q-39.06 0 -66.402 -27.342t-27.342 -66.402zm62.496 0q0 13.671 8.789 22.46t22.46 8.789l593.712 0q13.671 0 22.46 -8.789t8.789 -22.46l0 -499.968q0 -13.671 -8.789 -22.46t-22.46 -8.789l-593.712 0q-13.671 0 -22.46 8.789t-8.789 22.46l0 499.968zm687.456 -156.24l31.248 31.248 124.992 124.992l31.248 0l0 -499.968l-31.248 0l-156.24 156.24l0 187.488z"/></svg>