<svg height="1000" width="1000" xmlns="http://www.w3.org/2000/svg"><path d="M0 828.136v-624.96q0-70.308 50.778-121.086t121.086-50.778h640.584q39.06 0 66.402 27.342t27.342 66.402v281.23199999999997q93.744 70.308 93.744 187.488t-93.744 187.488v46.872q0 70.308-50.778 121.086t-121.086 50.778h-562.464q-70.308 0-121.086-50.778t-50.778-121.086zm62.496 0q0 44.919 32.224 77.144t77.144 32.224h562.464q44.919 0 77.144-32.224t32.224-77.144v-46.872h-281.232q-64.449 0-110.345-45.895t-45.895-110.345 45.895-110.345 110.345-45.895h281.232v-62.496q0-13.671-8.789-22.46t-22.46-8.789h-640.584q-62.496 0-109.368-39.06v492.156zm0-624.96q0 44.919 31.248 76.167v-123.039q0-13.671 8.789-22.46t22.46-8.789h656.208q13.671 0 22.46 8.789t8.789 22.46v156.24q15.624 0 31.248 5.859v-193.34699999999998q0-13.671-8.789-22.46t-22.46-8.789h-640.584q-44.919 0-77.144 32.224t-32.224 77.144zm62.496 97.65q23.436 11.718 46.872 11.718h609.336v-31.248h-656.208v19.53zm0-50.778h656.208v-31.248h-656.208v31.248zm0-62.496h656.208v-31.248h-656.208v31.248zm343.728 437.472q0 39.06 27.342 66.402t66.402 27.342h320.292q54.684-50.778 54.684-124.992 0-58.59-35.154-103.509v1.953q-3.906 7.812-7.812 13.671-19.53 25.389-50.778 25.389h-281.232q-39.06 0-66.402 27.342t-27.342 66.402zm31.248 0q0-25.389 18.553-43.943t43.943-18.553 43.943 18.553 18.553 43.943-18.553 43.943-43.943 18.553-43.943-18.553-18.553-43.943z"/></svg>