<svg height="1000" width="1000" xmlns="http://www.w3.org/2000/svg"><path d="M0 828.136l0 -624.96q0 -70.308 50.778 -121.086t121.086 -50.778l640.584 0q39.06 0 66.402 27.342t27.342 66.402l0 281.232q93.744 70.308 93.744 187.488t-93.744 187.488l0 46.872q0 70.308 -50.778 121.086t-121.086 50.778l-562.464 0q-70.308 0 -121.086 -50.778t-50.778 -121.086zm62.496 0q0 44.919 32.224 77.144t77.144 32.224l562.464 0q44.919 0 77.144 -32.224t32.224 -77.144l0 -46.872l-281.232 0q-64.449 0 -110.345 -45.895t-45.895 -110.345 45.895 -110.345 110.345 -45.895l281.232 0l0 -62.496q0 -13.671 -8.789 -22.46t-22.46 -8.789l-640.584 0q-62.496 0 -109.368 -39.06l0 492.156zm0 -624.96q0 44.919 31.248 76.167l0 -123.039q0 -13.671 8.789 -22.46t22.46 -8.789l656.208 0q13.671 0 22.46 8.789t8.789 22.46l0 156.24q15.624 0 31.248 5.859l0 -193.347q0 -13.671 -8.789 -22.46t-22.46 -8.789l-640.584 0q-44.919 0 -77.144 32.224t-32.224 77.144zm62.496 97.65q23.436 11.718 46.872 11.718l609.336 0l0 -31.248l-656.208 0l0 19.53zm0 -50.778l656.208 0l0 -31.248l-656.208 0l0 31.248zm0 -62.496l656.208 0l0 -31.248l-656.208 0l0 31.248zm343.728 437.472q0 39.06 27.342 66.402t66.402 27.342l320.292 0q54.684 -50.778 54.684 -124.992 0 -58.59 -35.154 -103.509l0 1.953q-3.906 7.812 -7.812 13.671 -19.53 25.389 -50.778 25.389l-281.232 0q-39.06 0 -66.402 27.342t-27.342 66.402zm31.248 0q0 -25.389 18.553 -43.943t43.943 -18.553 43.943 18.553 18.553 43.943 -18.553 43.943 -43.943 18.553 -43.943 -18.553 -18.553 -43.943z"/></svg>