<svg height="1000px" width="1000px" xmlns="http://www.w3.org/2000/svg">
  <g>
    <path d="M0 828.125c0 0 0 -625 0 -625c0 -46.875 16.927 -87.24 50.781 -121.094c33.854 -33.854 74.219 -50.781 121.094 -50.781c0 0 515.625 0 515.625 0c0 0 125 0 125 0c26.042 0 48.177 9.115 66.406 27.344c18.229 18.229 27.344 40.364 27.344 66.406c0 0 0 78.125 0 78.125c0 0 0 15.625 0 15.625c0 0 0 187.5 0 187.5c62.5 46.875 93.75 109.375 93.75 187.5c0 78.125 -31.25 140.625 -93.75 187.5c0 0 0 46.875 0 46.875c0 46.875 -16.927 87.24 -50.781 121.094c-33.854 33.854 -74.219 50.781 -121.094 50.781c0 0 -562.5 0 -562.5 0c-46.875 0 -87.24 -16.927 -121.094 -50.781c-33.854 -33.854 -50.781 -74.219 -50.781 -121.094c0 0 0 0 0 0m62.5 0c0 29.948 10.742 55.664 32.227 77.148c21.484 21.485 47.2 32.227 77.148 32.227c0 0 562.5 0 562.5 0c29.948 0 55.664 -10.742 77.148 -32.227c21.485 -21.484 32.227 -47.2 32.227 -77.148c0 0 0 -46.875 0 -46.875c0 0 -281.25 0 -281.25 0c-42.969 0 -79.753 -15.299 -110.352 -45.898c-30.599 -30.599 -45.898 -67.383 -45.898 -110.352c0 -42.969 15.299 -79.753 45.898 -110.352c30.599 -30.599 67.383 -45.898 110.352 -45.898c0 0 281.25 0 281.25 0c0 0 0 -62.5 0 -62.5c0 -9.115 -2.93 -16.602 -8.789 -22.461c-5.859 -5.859 -13.346 -8.789 -22.461 -8.789c0 0 -125 0 -125 0c0 0 -515.625 0 -515.625 0c-41.667 0 -78.125 -13.021 -109.375 -39.063c0 0 0 492.188 0 492.188c0 0 0 0 0 0m0 -625c0 29.948 10.417 55.339 31.25 76.172c0 0 0 -60.547 0 -60.547c0 0 0 -62.5 0 -62.5c0 -9.115 2.93 -16.602 8.789 -22.461c5.859 -5.859 13.346 -8.789 22.461 -8.789c0 0 656.25 0 656.25 0c9.115 0 16.602 2.93 22.461 8.789c5.859 5.859 8.789 13.346 8.789 22.461c0 0 0 62.5 0 62.5c0 0 0 62.5 0 62.5c0 0 0 31.25 0 31.25c10.417 0 20.833 1.953 31.25 5.859c0 0 0 -99.609 0 -99.609c0 0 0 -15.625 0 -15.625c0 0 0 -78.125 0 -78.125c0 -9.115 -2.93 -16.602 -8.789 -22.461c-5.859 -5.859 -13.346 -8.789 -22.461 -8.789c0 0 -125 0 -125 0c0 0 -515.625 0 -515.625 0c-29.948 0 -55.664 10.742 -77.148 32.227c-21.485 21.484 -32.227 47.2 -32.227 77.148c0 0 0 0 0 0m62.5 97.656c15.625 7.813 31.25 11.719 46.875 11.719c0 0 515.625 0 515.625 0c0 0 93.75 0 93.75 0c0 0 0 -31.25 0 -31.25c0 0 -656.25 0 -656.25 0c0 0 0 19.531 0 19.531c0 0 0 0 0 0m0 -50.781c0 0 656.25 0 656.25 0c0 0 0 -31.25 0 -31.25c0 0 -656.25 0 -656.25 0c0 0 0 31.25 0 31.25c0 0 0 0 0 0m0 -62.5c0 0 656.25 0 656.25 0c0 0 0 -31.25 0 -31.25c0 0 -656.25 0 -656.25 0c0 0 0 31.25 0 31.25c0 0 0 0 0 0m343.75 437.5c0 26.042 9.115 48.177 27.344 66.406c18.229 18.229 40.364 27.344 66.406 27.344c0 0 320.313 0 320.313 0c36.458 -33.854 54.687 -75.521 54.687 -125c0 -39.063 -11.719 -73.568 -35.156 -103.516c0 0 0 1.954 0 1.954c-2.604 5.208 -5.209 9.765 -7.813 13.671c-13.021 16.927 -29.948 25.391 -50.781 25.391c0 0 -281.25 0 -281.25 0c-26.042 0 -48.177 9.115 -66.406 27.344c-18.229 18.229 -27.344 40.364 -27.344 66.406c0 0 0 0 0 0m31.25 0c0 -16.927 6.185 -31.576 18.555 -43.945c12.369 -12.37 27.018 -18.555 43.945 -18.555c16.927 0 31.576 6.185 43.945 18.555c12.37 12.369 18.555 27.018 18.555 43.945c0 16.927 -6.185 31.576 -18.555 43.945c-12.369 12.37 -27.018 18.555 -43.945 18.555c-16.927 0 -31.576 -6.185 -43.945 -18.555c-12.37 -12.369 -18.555 -27.018 -18.555 -43.945c0 0 0 0 0 0" />
  </g>
</svg>